<svg xmlns="http://www.w3.org/2000/svg" xmlns:xlink="http://www.w3.org/1999/xlink" width="670.187" height="406.878" viewBox="0 0 670.187 406.878">
  <defs>
    <clipPath id="clip-path">
      <circle id="Elipse_293" data-name="Elipse 293" cx="57.337" cy="57.337" r="57.337" transform="translate(603.349 7091.576) rotate(-80.614)" fill="none"/>
    </clipPath>
  </defs>
  <g id="Grupo_3828" data-name="Grupo 3828" transform="translate(901.663 -6690.603)">
    <path id="Trazado_6446" data-name="Trazado 6446" d="M6.461,6.6A3.735,3.735,0,0,0,3.488,7.855,5.058,5.058,0,0,0,2.4,11.289a5.159,5.159,0,0,0,1.051,3.465,3.735,3.735,0,0,0,3,1.223,10.23,10.23,0,0,0,2.727-.43v1.164a8.4,8.4,0,0,1-2.93.445,4.956,4.956,0,0,1-3.895-1.531A6.306,6.306,0,0,1,.977,11.273a6.868,6.868,0,0,1,.66-3.094A4.739,4.739,0,0,1,3.543,6.133a5.77,5.77,0,0,1,2.934-.719,7.078,7.078,0,0,1,3.141.656L9.055,7.211A6.053,6.053,0,0,0,6.461,6.6Zm8.625,10.555a3.934,3.934,0,0,1-3-1.156,4.476,4.476,0,0,1-1.1-3.211A4.964,4.964,0,0,1,12.012,9.5,3.387,3.387,0,0,1,14.75,8.281,3.229,3.229,0,0,1,17.3,9.34a4.057,4.057,0,0,1,.938,2.793v.82h-5.9a3.394,3.394,0,0,0,.762,2.289,2.635,2.635,0,0,0,2.035.781,6.9,6.9,0,0,0,2.734-.578V16.6a6.863,6.863,0,0,1-1.3.426A7.31,7.31,0,0,1,15.086,17.156Zm-.352-7.789a2.118,2.118,0,0,0-1.645.672,3.1,3.1,0,0,0-.723,1.859h4.477A2.851,2.851,0,0,0,16.3,10.02,1.925,1.925,0,0,0,14.734,9.367ZM26.3,17V11.461A2.235,2.235,0,0,0,25.828,9.9a1.941,1.941,0,0,0-1.492-.516,2.461,2.461,0,0,0-1.969.727,3.668,3.668,0,0,0-.625,2.4V17h-1.3V8.438H21.5l.211,1.172h.063a2.648,2.648,0,0,1,1.117-.98,3.63,3.63,0,0,1,1.6-.348,3.252,3.252,0,0,1,2.328.746,3.175,3.175,0,0,1,.781,2.387V17Zm5.258,0h-1.3V8.438h1.3ZM30.156,6.117a.861.861,0,0,1,.219-.652.81.81,0,0,1,1.086,0,.846.846,0,0,1,.227.648.859.859,0,0,1-.227.652.794.794,0,0,1-1.086,0A.877.877,0,0,1,30.156,6.117Zm6.922,9.969a4.236,4.236,0,0,0,.664-.051,4.3,4.3,0,0,0,.508-.105v.992a2.371,2.371,0,0,1-.621.168,4.664,4.664,0,0,1-.738.066q-2.484,0-2.484-2.617V9.445H33.18V8.82l1.227-.539.547-1.828h.75V8.438h2.484V9.445H35.7v5.039a1.734,1.734,0,0,0,.367,1.188A1.278,1.278,0,0,0,37.078,16.086ZM45.227,17l-.258-1.219h-.062a3.6,3.6,0,0,1-1.277,1.09,3.893,3.893,0,0,1-1.59.285,2.86,2.86,0,0,1-2-.656,2.394,2.394,0,0,1-.723-1.867q0-2.594,4.148-2.719l1.453-.047v-.531a2.171,2.171,0,0,0-.434-1.488,1.783,1.783,0,0,0-1.387-.48,5.65,5.65,0,0,0-2.422.656l-.4-.992a6.094,6.094,0,0,1,1.387-.539,6.006,6.006,0,0,1,1.512-.2,3.262,3.262,0,0,1,2.27.68,2.837,2.837,0,0,1,.738,2.18V17Zm-2.93-.914a2.632,2.632,0,0,0,1.9-.664,2.457,2.457,0,0,0,.691-1.859v-.773l-1.3.055a4.717,4.717,0,0,0-2.23.48,1.449,1.449,0,0,0-.684,1.324,1.336,1.336,0,0,0,.426,1.07A1.767,1.767,0,0,0,42.3,16.086ZM50.156,17h-1.3V4.844h1.3Z" transform="translate(-697.227 6685.759)" fill="#444242"/>
    <path id="Trazado_6447" data-name="Trazado 6447" d="M8.813,8.906a3.2,3.2,0,0,1-1.184,2.668,5.362,5.362,0,0,1-3.387.934H2.9V17H1.57V5.578H4.531Q8.813,5.578,8.813,8.906ZM2.9,11.367h1.2a4.442,4.442,0,0,0,2.555-.57,2.1,2.1,0,0,0,.789-1.828A1.971,1.971,0,0,0,6.7,7.281a3.877,3.877,0,0,0-2.312-.555H2.9ZM12.3,17h-1.3V8.438h1.3ZM10.9,6.117a.861.861,0,0,1,.219-.652.81.81,0,0,1,1.086,0,.846.846,0,0,1,.227.648.859.859,0,0,1-.227.652.794.794,0,0,1-1.086,0A.877.877,0,0,1,10.9,6.117Zm7.578,11.039A3.654,3.654,0,0,1,15.6,16.012a4.707,4.707,0,0,1-1.02-3.238,4.853,4.853,0,0,1,1.035-3.32,3.727,3.727,0,0,1,2.949-1.172,5.852,5.852,0,0,1,1.234.133,4.066,4.066,0,0,1,.969.313l-.4,1.1a6.1,6.1,0,0,0-.937-.285,4.186,4.186,0,0,0-.9-.113q-2.609,0-2.609,3.328a3.963,3.963,0,0,0,.637,2.422,2.215,2.215,0,0,0,1.887.844,5.769,5.769,0,0,0,2.2-.461v1.148A4.679,4.679,0,0,1,18.477,17.156ZM27.938,17l-.258-1.219h-.062a3.6,3.6,0,0,1-1.277,1.09,3.893,3.893,0,0,1-1.59.285,2.86,2.86,0,0,1-2-.656,2.394,2.394,0,0,1-.723-1.867q0-2.594,4.148-2.719l1.453-.047v-.531A2.171,2.171,0,0,0,27.2,9.848a1.783,1.783,0,0,0-1.387-.48,5.65,5.65,0,0,0-2.422.656l-.4-.992a6.094,6.094,0,0,1,1.387-.539,6.006,6.006,0,0,1,1.512-.2,3.262,3.262,0,0,1,2.27.68,2.837,2.837,0,0,1,.738,2.18V17Zm-2.93-.914a2.632,2.632,0,0,0,1.9-.664,2.457,2.457,0,0,0,.691-1.859v-.773l-1.3.055a4.717,4.717,0,0,0-2.23.48,1.449,1.449,0,0,0-.684,1.324,1.336,1.336,0,0,0,.426,1.07A1.767,1.767,0,0,0,25.008,16.086ZM37.4,15.852h-.07a3.047,3.047,0,0,1-2.687,1.3,3.179,3.179,0,0,1-2.613-1.148,5.055,5.055,0,0,1-.934-3.266,5.141,5.141,0,0,1,.938-3.289,3.155,3.155,0,0,1,2.609-1.172,3.114,3.114,0,0,1,2.672,1.266h.1l-.055-.617-.031-.6V4.844h1.3V17H37.57ZM34.8,16.07a2.361,2.361,0,0,0,1.926-.723,3.652,3.652,0,0,0,.6-2.332v-.273a4.3,4.3,0,0,0-.605-2.6,2.3,2.3,0,0,0-1.934-.777,1.985,1.985,0,0,0-1.746.887,4.409,4.409,0,0,0-.605,2.5,4.227,4.227,0,0,0,.6,2.477A2.037,2.037,0,0,0,34.8,16.07Zm13.961-3.359a4.724,4.724,0,0,1-1.055,3.27A3.714,3.714,0,0,1,44.8,17.156a3.86,3.86,0,0,1-2.039-.539,3.558,3.558,0,0,1-1.375-1.547,5.391,5.391,0,0,1-.484-2.359,4.716,4.716,0,0,1,1.047-3.262,3.7,3.7,0,0,1,2.906-1.168,3.622,3.622,0,0,1,2.855,1.2A4.7,4.7,0,0,1,48.766,12.711Zm-6.523,0a4.064,4.064,0,0,0,.656,2.5,2.6,2.6,0,0,0,3.863,0,4.043,4.043,0,0,0,.66-2.5,3.978,3.978,0,0,0-.66-2.48,2.32,2.32,0,0,0-1.949-.848,2.283,2.283,0,0,0-1.922.836A4.023,4.023,0,0,0,42.242,12.711Z" transform="translate(-838.244 6748.845)" fill="#444242"/>
    <path id="Trazado_6448" data-name="Trazado 6448" d="M10.492,17H8.977L2.734,7.414H2.672Q2.8,9.1,2.8,10.508V17H1.57V5.578h1.5L9.3,15.125h.063q-.016-.211-.07-1.355T9.25,12.133V5.578h1.242Zm10.336-4.289a4.724,4.724,0,0,1-1.055,3.27,3.714,3.714,0,0,1-2.914,1.176,3.86,3.86,0,0,1-2.039-.539,3.558,3.558,0,0,1-1.375-1.547,5.391,5.391,0,0,1-.484-2.359,4.716,4.716,0,0,1,1.047-3.262,3.7,3.7,0,0,1,2.906-1.168,3.622,3.622,0,0,1,2.855,1.2A4.7,4.7,0,0,1,20.828,12.711Zm-6.523,0a4.064,4.064,0,0,0,.656,2.5,2.278,2.278,0,0,0,1.93.859,2.293,2.293,0,0,0,1.934-.855,4.043,4.043,0,0,0,.66-2.5,3.978,3.978,0,0,0-.66-2.48,2.32,2.32,0,0,0-1.949-.848,2.283,2.283,0,0,0-1.922.836A4.023,4.023,0,0,0,14.3,12.711Zm12.7-4.43a5.075,5.075,0,0,1,1.023.094l-.18,1.2a4.418,4.418,0,0,0-.937-.117,2.282,2.282,0,0,0-1.777.844,3.077,3.077,0,0,0-.738,2.1V17H23.1V8.438h1.07l.148,1.586h.063a3.764,3.764,0,0,1,1.148-1.289A2.585,2.585,0,0,1,27.008,8.281ZM40.547,17V11.43a2.312,2.312,0,0,0-.437-1.535,1.692,1.692,0,0,0-1.359-.512,2.195,2.195,0,0,0-1.789.7,3.3,3.3,0,0,0-.578,2.141V17h-1.3V11.43a2.312,2.312,0,0,0-.437-1.535,1.7,1.7,0,0,0-1.367-.512,2.118,2.118,0,0,0-1.785.73,3.953,3.953,0,0,0-.566,2.395V17h-1.3V8.438h1.055L30.9,9.609h.063A2.549,2.549,0,0,1,32,8.633a3.163,3.163,0,0,1,1.5-.352,2.544,2.544,0,0,1,2.625,1.453h.063a2.73,2.73,0,0,1,1.109-1.062,3.442,3.442,0,0,1,1.656-.391,2.9,2.9,0,0,1,2.176.746,3.338,3.338,0,0,1,.723,2.387V17Zm9.234,0-.258-1.219h-.062a3.6,3.6,0,0,1-1.277,1.09,3.893,3.893,0,0,1-1.59.285,2.86,2.86,0,0,1-2-.656,2.394,2.394,0,0,1-.723-1.867q0-2.594,4.148-2.719l1.453-.047v-.531a2.171,2.171,0,0,0-.434-1.488,1.783,1.783,0,0,0-1.387-.48,5.65,5.65,0,0,0-2.422.656l-.4-.992a6.094,6.094,0,0,1,1.387-.539,6.006,6.006,0,0,1,1.512-.2,3.262,3.262,0,0,1,2.27.68,2.837,2.837,0,0,1,.738,2.18V17Zm-2.93-.914a2.632,2.632,0,0,0,1.9-.664,2.457,2.457,0,0,0,.691-1.859v-.773l-1.3.055a4.717,4.717,0,0,0-2.23.48,1.449,1.449,0,0,0-.684,1.324,1.336,1.336,0,0,0,.426,1.07A1.767,1.767,0,0,0,46.852,16.086ZM54.711,17h-1.3V4.844h1.3Z" transform="translate(-890.998 6878.957)" fill="#444242"/>
    <path id="Trazado_6449" data-name="Trazado 6449" d="M6.461,6.6A3.735,3.735,0,0,0,3.488,7.855,5.058,5.058,0,0,0,2.4,11.289a5.159,5.159,0,0,0,1.051,3.465,3.735,3.735,0,0,0,3,1.223,10.23,10.23,0,0,0,2.727-.43v1.164a8.4,8.4,0,0,1-2.93.445,4.956,4.956,0,0,1-3.895-1.531A6.306,6.306,0,0,1,.977,11.273a6.868,6.868,0,0,1,.66-3.094A4.739,4.739,0,0,1,3.543,6.133a5.77,5.77,0,0,1,2.934-.719,7.078,7.078,0,0,1,3.141.656L9.055,7.211A6.053,6.053,0,0,0,6.461,6.6Zm12.4,6.109A4.724,4.724,0,0,1,17.8,15.98a3.714,3.714,0,0,1-2.914,1.176,3.86,3.86,0,0,1-2.039-.539,3.558,3.558,0,0,1-1.375-1.547,5.391,5.391,0,0,1-.484-2.359,4.716,4.716,0,0,1,1.047-3.262,3.7,3.7,0,0,1,2.906-1.168,3.622,3.622,0,0,1,2.855,1.2A4.7,4.7,0,0,1,18.859,12.711Zm-6.523,0a4.064,4.064,0,0,0,.656,2.5,2.278,2.278,0,0,0,1.93.859,2.293,2.293,0,0,0,1.934-.855,4.043,4.043,0,0,0,.66-2.5,3.978,3.978,0,0,0-.66-2.48,2.32,2.32,0,0,0-1.949-.848,2.283,2.283,0,0,0-1.922.836A4.023,4.023,0,0,0,12.336,12.711ZM26.992,17V11.461A2.235,2.235,0,0,0,26.516,9.9a1.941,1.941,0,0,0-1.492-.516,2.461,2.461,0,0,0-1.969.727,3.668,3.668,0,0,0-.625,2.4V17h-1.3V8.438h1.055L22.4,9.609h.063a2.648,2.648,0,0,1,1.117-.98,3.63,3.63,0,0,1,1.6-.348,3.252,3.252,0,0,1,2.328.746,3.175,3.175,0,0,1,.781,2.387V17Zm6.727-.914a4.236,4.236,0,0,0,.664-.051,4.3,4.3,0,0,0,.508-.105v.992a2.371,2.371,0,0,1-.621.168,4.664,4.664,0,0,1-.738.066q-2.484,0-2.484-2.617V9.445H29.82V8.82l1.227-.539.547-1.828h.75V8.438h2.484V9.445H32.344v5.039a1.734,1.734,0,0,0,.367,1.188A1.278,1.278,0,0,0,33.719,16.086Zm6.789-7.8a5.075,5.075,0,0,1,1.023.094l-.18,1.2a4.418,4.418,0,0,0-.937-.117,2.282,2.282,0,0,0-1.777.844,3.077,3.077,0,0,0-.738,2.1V17H36.6V8.438h1.07l.148,1.586h.063a3.764,3.764,0,0,1,1.148-1.289A2.585,2.585,0,0,1,40.508,8.281ZM48.078,17l-.258-1.219h-.062a3.6,3.6,0,0,1-1.277,1.09,3.893,3.893,0,0,1-1.59.285,2.86,2.86,0,0,1-2-.656,2.394,2.394,0,0,1-.723-1.867q0-2.594,4.148-2.719l1.453-.047v-.531a2.171,2.171,0,0,0-.434-1.488,1.783,1.783,0,0,0-1.387-.48,5.65,5.65,0,0,0-2.422.656l-.4-.992a6.094,6.094,0,0,1,1.387-.539,6.006,6.006,0,0,1,1.512-.2,3.262,3.262,0,0,1,2.27.68,2.837,2.837,0,0,1,.738,2.18V17Zm-2.93-.914a2.632,2.632,0,0,0,1.9-.664,2.457,2.457,0,0,0,.691-1.859v-.773l-1.3.055a4.717,4.717,0,0,0-2.23.48,1.449,1.449,0,0,0-.684,1.324,1.336,1.336,0,0,0,.426,1.07A1.767,1.767,0,0,0,45.148,16.086ZM55.7,17.156a3.706,3.706,0,0,1-1.527-.309,2.872,2.872,0,0,1-1.16-.949h-.094a11.485,11.485,0,0,1,.094,1.422v3.523h-1.3V8.438h1.055l.18,1.172h.063a3.012,3.012,0,0,1,1.164-1.016A3.539,3.539,0,0,1,55.7,8.281a3.165,3.165,0,0,1,2.629,1.164,5.125,5.125,0,0,1,.926,3.266,5.1,5.1,0,0,1-.941,3.277A3.17,3.17,0,0,1,55.7,17.156Zm-.187-7.773a2.3,2.3,0,0,0-1.9.727,3.739,3.739,0,0,0-.6,2.313v.289a4.285,4.285,0,0,0,.6,2.582,2.288,2.288,0,0,0,1.93.777,2.007,2.007,0,0,0,1.738-.9,4.26,4.26,0,0,0,.629-2.477,4.1,4.1,0,0,0-.629-2.457A2.069,2.069,0,0,0,55.508,9.383ZM62.813,17h-1.3V8.438h1.3ZM61.406,6.117a.861.861,0,0,1,.219-.652.81.81,0,0,1,1.086,0,.846.846,0,0,1,.227.648.859.859,0,0,1-.227.652.794.794,0,0,1-1.086,0A.877.877,0,0,1,61.406,6.117Zm7.578,11.039a3.654,3.654,0,0,1-2.879-1.145,4.707,4.707,0,0,1-1.02-3.238,4.853,4.853,0,0,1,1.035-3.32A3.727,3.727,0,0,1,69.07,8.281a5.852,5.852,0,0,1,1.234.133,4.066,4.066,0,0,1,.969.313l-.4,1.1a6.1,6.1,0,0,0-.937-.285,4.186,4.186,0,0,0-.9-.113q-2.609,0-2.609,3.328a3.963,3.963,0,0,0,.637,2.422,2.215,2.215,0,0,0,1.887.844,5.769,5.769,0,0,0,2.2-.461v1.148A4.679,4.679,0,0,1,68.984,17.156ZM78.445,17l-.258-1.219h-.062a3.6,3.6,0,0,1-1.277,1.09,3.893,3.893,0,0,1-1.59.285,2.86,2.86,0,0,1-2-.656,2.394,2.394,0,0,1-.723-1.867q0-2.594,4.148-2.719l1.453-.047v-.531a2.171,2.171,0,0,0-.434-1.488,1.783,1.783,0,0,0-1.387-.48,5.65,5.65,0,0,0-2.422.656l-.4-.992a6.094,6.094,0,0,1,1.387-.539A6.006,6.006,0,0,1,76.4,8.3a3.262,3.262,0,0,1,2.27.68,2.837,2.837,0,0,1,.738,2.18V17Zm-2.93-.914a2.632,2.632,0,0,0,1.9-.664,2.457,2.457,0,0,0,.691-1.859v-.773l-1.3.055a4.717,4.717,0,0,0-2.23.48,1.449,1.449,0,0,0-.684,1.324,1.336,1.336,0,0,0,.426,1.07A1.767,1.767,0,0,0,75.516,16.086Zm12.391-.234h-.07a3.047,3.047,0,0,1-2.687,1.3,3.179,3.179,0,0,1-2.613-1.148,5.055,5.055,0,0,1-.934-3.266,5.141,5.141,0,0,1,.938-3.289,3.155,3.155,0,0,1,2.609-1.172A3.114,3.114,0,0,1,87.82,9.547h.1l-.055-.617-.031-.6V4.844h1.3V17H88.078Zm-2.594.219a2.361,2.361,0,0,0,1.926-.723,3.652,3.652,0,0,0,.6-2.332v-.273a4.3,4.3,0,0,0-.605-2.6A2.3,2.3,0,0,0,85.3,9.367a1.985,1.985,0,0,0-1.746.887,4.409,4.409,0,0,0-.605,2.5,4.227,4.227,0,0,0,.6,2.477A2.037,2.037,0,0,0,85.313,16.07Zm13.961-3.359a4.724,4.724,0,0,1-1.055,3.27A3.714,3.714,0,0,1,95.3,17.156a3.86,3.86,0,0,1-2.039-.539,3.558,3.558,0,0,1-1.375-1.547,5.391,5.391,0,0,1-.484-2.359,4.716,4.716,0,0,1,1.047-3.262,3.7,3.7,0,0,1,2.906-1.168,3.622,3.622,0,0,1,2.855,1.2A4.7,4.7,0,0,1,99.273,12.711Zm-6.523,0a4.064,4.064,0,0,0,.656,2.5,2.6,2.6,0,0,0,3.863,0,4.043,4.043,0,0,0,.66-2.5,3.978,3.978,0,0,0-.66-2.48,2.32,2.32,0,0,0-1.949-.848,2.283,2.283,0,0,0-1.922.836A4.023,4.023,0,0,0,92.75,12.711Z" transform="translate(-902.64 6998.054)" fill="#444242"/>
    <path id="Trazado_6450" data-name="Trazado 6450" d="M10.492,17H8.977L2.734,7.414H2.672Q2.8,9.1,2.8,10.508V17H1.57V5.578h1.5L9.3,15.125h.063q-.016-.211-.07-1.355T9.25,12.133V5.578h1.242ZM18.7,17l-.258-1.219h-.062a3.6,3.6,0,0,1-1.277,1.09,3.893,3.893,0,0,1-1.59.285,2.86,2.86,0,0,1-2-.656,2.394,2.394,0,0,1-.723-1.867q0-2.594,4.148-2.719l1.453-.047v-.531a2.171,2.171,0,0,0-.434-1.488,1.783,1.783,0,0,0-1.387-.48,5.65,5.65,0,0,0-2.422.656l-.4-.992a6.094,6.094,0,0,1,1.387-.539,6.006,6.006,0,0,1,1.512-.2,3.262,3.262,0,0,1,2.27.68,2.837,2.837,0,0,1,.738,2.18V17Zm-2.93-.914a2.632,2.632,0,0,0,1.9-.664,2.457,2.457,0,0,0,.691-1.859v-.773l-1.3.055a4.717,4.717,0,0,0-2.23.48,1.449,1.449,0,0,0-.684,1.324,1.336,1.336,0,0,0,.426,1.07A1.767,1.767,0,0,0,15.773,16.086Zm12.391-.234h-.07a3.047,3.047,0,0,1-2.687,1.3,3.179,3.179,0,0,1-2.613-1.148,5.055,5.055,0,0,1-.934-3.266A5.141,5.141,0,0,1,22.8,9.453a3.155,3.155,0,0,1,2.609-1.172,3.114,3.114,0,0,1,2.672,1.266h.1l-.055-.617-.031-.6V4.844h1.3V17H28.336Zm-2.594.219a2.361,2.361,0,0,0,1.926-.723,3.652,3.652,0,0,0,.6-2.332v-.273a4.3,4.3,0,0,0-.605-2.6,2.3,2.3,0,0,0-1.934-.777,1.985,1.985,0,0,0-1.746.887,4.409,4.409,0,0,0-.605,2.5,4.227,4.227,0,0,0,.6,2.477A2.037,2.037,0,0,0,25.57,16.07Zm7.867.93h-1.3V8.438h1.3ZM32.031,6.117a.861.861,0,0,1,.219-.652.81.81,0,0,1,1.086,0,.846.846,0,0,1,.227.648.859.859,0,0,1-.227.652.794.794,0,0,1-1.086,0A.877.877,0,0,1,32.031,6.117Zm8.063,2.164a5.075,5.075,0,0,1,1.023.094l-.18,1.2A4.418,4.418,0,0,0,40,9.461a2.282,2.282,0,0,0-1.777.844,3.077,3.077,0,0,0-.738,2.1V17h-1.3V8.438h1.07l.148,1.586h.063a3.764,3.764,0,0,1,1.148-1.289A2.585,2.585,0,0,1,40.094,8.281Z" transform="translate(-714.855 7077.352)" fill="#444242"/>
    <path id="Trazado_6451" data-name="Trazado 6451" d="M6.461,6.6A3.735,3.735,0,0,0,3.488,7.855,5.058,5.058,0,0,0,2.4,11.289a5.159,5.159,0,0,0,1.051,3.465,3.735,3.735,0,0,0,3,1.223,10.23,10.23,0,0,0,2.727-.43v1.164a8.4,8.4,0,0,1-2.93.445,4.956,4.956,0,0,1-3.895-1.531A6.306,6.306,0,0,1,.977,11.273a6.868,6.868,0,0,1,.66-3.094A4.739,4.739,0,0,1,3.543,6.133a5.77,5.77,0,0,1,2.934-.719,7.078,7.078,0,0,1,3.141.656L9.055,7.211A6.053,6.053,0,0,0,6.461,6.6Zm8.625,10.555a3.934,3.934,0,0,1-3-1.156,4.476,4.476,0,0,1-1.1-3.211A4.964,4.964,0,0,1,12.012,9.5,3.387,3.387,0,0,1,14.75,8.281,3.229,3.229,0,0,1,17.3,9.34a4.057,4.057,0,0,1,.938,2.793v.82h-5.9a3.394,3.394,0,0,0,.762,2.289,2.635,2.635,0,0,0,2.035.781,6.9,6.9,0,0,0,2.734-.578V16.6a6.863,6.863,0,0,1-1.3.426A7.31,7.31,0,0,1,15.086,17.156Zm-.352-7.789a2.118,2.118,0,0,0-1.645.672,3.1,3.1,0,0,0-.723,1.859h4.477A2.851,2.851,0,0,0,16.3,10.02,1.925,1.925,0,0,0,14.734,9.367ZM26.3,17V11.461A2.235,2.235,0,0,0,25.828,9.9a1.941,1.941,0,0,0-1.492-.516,2.461,2.461,0,0,0-1.969.727,3.668,3.668,0,0,0-.625,2.4V17h-1.3V8.438H21.5l.211,1.172h.063a2.648,2.648,0,0,1,1.117-.98,3.63,3.63,0,0,1,1.6-.348,3.252,3.252,0,0,1,2.328.746,3.175,3.175,0,0,1,.781,2.387V17Zm5.258,0h-1.3V8.438h1.3ZM30.156,6.117a.861.861,0,0,1,.219-.652.81.81,0,0,1,1.086,0,.846.846,0,0,1,.227.648.859.859,0,0,1-.227.652.794.794,0,0,1-1.086,0A.877.877,0,0,1,30.156,6.117Zm6.922,9.969a4.236,4.236,0,0,0,.664-.051,4.3,4.3,0,0,0,.508-.105v.992a2.371,2.371,0,0,1-.621.168,4.664,4.664,0,0,1-.738.066q-2.484,0-2.484-2.617V9.445H33.18V8.82l1.227-.539.547-1.828h.75V8.438h2.484V9.445H35.7v5.039a1.734,1.734,0,0,0,.367,1.188A1.278,1.278,0,0,0,37.078,16.086ZM45.227,17l-.258-1.219h-.062a3.6,3.6,0,0,1-1.277,1.09,3.893,3.893,0,0,1-1.59.285,2.86,2.86,0,0,1-2-.656,2.394,2.394,0,0,1-.723-1.867q0-2.594,4.148-2.719l1.453-.047v-.531a2.171,2.171,0,0,0-.434-1.488,1.783,1.783,0,0,0-1.387-.48,5.65,5.65,0,0,0-2.422.656l-.4-.992a6.094,6.094,0,0,1,1.387-.539,6.006,6.006,0,0,1,1.512-.2,3.262,3.262,0,0,1,2.27.68,2.837,2.837,0,0,1,.738,2.18V17Zm-2.93-.914a2.632,2.632,0,0,0,1.9-.664,2.457,2.457,0,0,0,.691-1.859v-.773l-1.3.055a4.717,4.717,0,0,0-2.23.48,1.449,1.449,0,0,0-.684,1.324,1.336,1.336,0,0,0,.426,1.07A1.767,1.767,0,0,0,42.3,16.086ZM50.156,17h-1.3V4.844h1.3Zm2.563-.828a1.164,1.164,0,0,1,.238-.793.864.864,0,0,1,.684-.27.924.924,0,0,1,.707.27,1.116,1.116,0,0,1,.254.793,1.1,1.1,0,0,1-.258.781,1.025,1.025,0,0,1-1.363.027A1.07,1.07,0,0,1,52.719,16.172ZM8.813,30.906a3.2,3.2,0,0,1-1.184,2.668,5.362,5.362,0,0,1-3.387.934H2.9V39H1.57V27.578H4.531Q8.813,27.578,8.813,30.906ZM2.9,33.367h1.2a4.442,4.442,0,0,0,2.555-.57,2.1,2.1,0,0,0,.789-1.828A1.971,1.971,0,0,0,6.7,29.281a3.877,3.877,0,0,0-2.312-.555H2.9ZM12.3,39h-1.3V30.438h1.3ZM10.9,28.117a.861.861,0,0,1,.219-.652.81.81,0,0,1,1.086,0,.846.846,0,0,1,.227.648.859.859,0,0,1-.227.652.794.794,0,0,1-1.086,0A.877.877,0,0,1,10.9,28.117Zm7.578,11.039A3.654,3.654,0,0,1,15.6,38.012a4.707,4.707,0,0,1-1.02-3.238,4.853,4.853,0,0,1,1.035-3.32,3.727,3.727,0,0,1,2.949-1.172,5.852,5.852,0,0,1,1.234.133,4.066,4.066,0,0,1,.969.313l-.4,1.1a6.1,6.1,0,0,0-.937-.285,4.186,4.186,0,0,0-.9-.113q-2.609,0-2.609,3.328a3.963,3.963,0,0,0,.637,2.422,2.215,2.215,0,0,0,1.887.844,5.769,5.769,0,0,0,2.2-.461v1.148A4.679,4.679,0,0,1,18.477,39.156ZM27.938,39l-.258-1.219h-.062a3.6,3.6,0,0,1-1.277,1.09,3.893,3.893,0,0,1-1.59.285,2.86,2.86,0,0,1-2-.656,2.394,2.394,0,0,1-.723-1.867q0-2.594,4.148-2.719l1.453-.047v-.531a2.171,2.171,0,0,0-.434-1.488,1.783,1.783,0,0,0-1.387-.48,5.65,5.65,0,0,0-2.422.656l-.4-.992a6.094,6.094,0,0,1,1.387-.539,6.006,6.006,0,0,1,1.512-.2,3.262,3.262,0,0,1,2.27.68,2.837,2.837,0,0,1,.738,2.18V39Zm-2.93-.914a2.632,2.632,0,0,0,1.9-.664,2.457,2.457,0,0,0,.691-1.859v-.773l-1.3.055a4.717,4.717,0,0,0-2.23.48,1.449,1.449,0,0,0-.684,1.324,1.336,1.336,0,0,0,.426,1.07A1.767,1.767,0,0,0,25.008,38.086ZM37.4,37.852h-.07a3.047,3.047,0,0,1-2.687,1.3,3.179,3.179,0,0,1-2.613-1.148,5.055,5.055,0,0,1-.934-3.266,5.141,5.141,0,0,1,.938-3.289,3.155,3.155,0,0,1,2.609-1.172,3.114,3.114,0,0,1,2.672,1.266h.1l-.055-.617-.031-.6V26.844h1.3V39H37.57ZM34.8,38.07a2.361,2.361,0,0,0,1.926-.723,3.652,3.652,0,0,0,.6-2.332v-.273a4.3,4.3,0,0,0-.605-2.6,2.3,2.3,0,0,0-1.934-.777,1.985,1.985,0,0,0-1.746.887,4.409,4.409,0,0,0-.605,2.5,4.227,4.227,0,0,0,.6,2.477A2.037,2.037,0,0,0,34.8,38.07Zm13.961-3.359a4.724,4.724,0,0,1-1.055,3.27A3.714,3.714,0,0,1,44.8,39.156a3.86,3.86,0,0,1-2.039-.539,3.558,3.558,0,0,1-1.375-1.547,5.391,5.391,0,0,1-.484-2.359,4.716,4.716,0,0,1,1.047-3.262,3.7,3.7,0,0,1,2.906-1.168,3.622,3.622,0,0,1,2.855,1.2A4.7,4.7,0,0,1,48.766,34.711Zm-6.523,0a4.064,4.064,0,0,0,.656,2.5,2.6,2.6,0,0,0,3.863,0,4.043,4.043,0,0,0,.66-2.5,3.978,3.978,0,0,0-.66-2.48,2.32,2.32,0,0,0-1.949-.848,2.283,2.283,0,0,0-1.922.836A4.023,4.023,0,0,0,42.242,34.711Zm8.609,3.461a1.164,1.164,0,0,1,.238-.793.864.864,0,0,1,.684-.27.924.924,0,0,1,.707.27,1.116,1.116,0,0,1,.254.793,1.1,1.1,0,0,1-.258.781,1.025,1.025,0,0,1-1.363.027A1.07,1.07,0,0,1,50.852,38.172ZM10.492,61H8.977L2.734,51.414H2.672Q2.8,53.1,2.8,54.508V61H1.57V49.578h1.5L9.3,59.125h.063q-.016-.211-.07-1.355T9.25,56.133V49.578h1.242Zm6.563.156a3.934,3.934,0,0,1-3-1.156,4.476,4.476,0,0,1-1.1-3.211A4.964,4.964,0,0,1,13.98,53.5a3.387,3.387,0,0,1,2.738-1.219,3.229,3.229,0,0,1,2.547,1.059,4.057,4.057,0,0,1,.938,2.793v.82H14.3a3.394,3.394,0,0,0,.762,2.289,2.635,2.635,0,0,0,2.035.781,6.9,6.9,0,0,0,2.734-.578V60.6a6.863,6.863,0,0,1-1.3.426A7.31,7.31,0,0,1,17.055,61.156ZM16.7,53.367a2.118,2.118,0,0,0-1.645.672,3.1,3.1,0,0,0-.723,1.859h4.477a2.851,2.851,0,0,0-.547-1.879A1.925,1.925,0,0,0,16.7,53.367Zm6.93-.93v5.555a2.235,2.235,0,0,0,.477,1.563,1.941,1.941,0,0,0,1.492.516,2.435,2.435,0,0,0,1.965-.734,3.7,3.7,0,0,0,.621-2.4v-4.5h1.3V61h-1.07l-.187-1.148h-.07a2.585,2.585,0,0,1-1.105.969,3.716,3.716,0,0,1-1.613.336,3.273,3.273,0,0,1-2.34-.742,3.159,3.159,0,0,1-.777-2.375v-5.6ZM35,60.086a4.236,4.236,0,0,0,.664-.051,4.3,4.3,0,0,0,.508-.105v.992a2.371,2.371,0,0,1-.621.168,4.664,4.664,0,0,1-.738.066q-2.484,0-2.484-2.617V53.445H31.1V52.82l1.227-.539.547-1.828h.75v1.984h2.484v1.008H33.625v5.039a1.734,1.734,0,0,0,.367,1.188A1.278,1.278,0,0,0,35,60.086Zm6.789-7.8a5.075,5.075,0,0,1,1.023.094l-.18,1.2a4.418,4.418,0,0,0-.937-.117,2.282,2.282,0,0,0-1.777.844,3.077,3.077,0,0,0-.738,2.1V61h-1.3V52.438h1.07l.148,1.586h.063a3.764,3.764,0,0,1,1.148-1.289A2.585,2.585,0,0,1,41.789,52.281Zm9.7,4.43a4.724,4.724,0,0,1-1.055,3.27,3.714,3.714,0,0,1-2.914,1.176,3.86,3.86,0,0,1-2.039-.539A3.558,3.558,0,0,1,44.1,59.07a5.391,5.391,0,0,1-.484-2.359,4.716,4.716,0,0,1,1.047-3.262,3.7,3.7,0,0,1,2.906-1.168,3.622,3.622,0,0,1,2.855,1.2A4.7,4.7,0,0,1,51.484,56.711Zm-6.523,0a4.064,4.064,0,0,0,.656,2.5,2.6,2.6,0,0,0,3.863,0,4.043,4.043,0,0,0,.66-2.5,3.978,3.978,0,0,0-.66-2.48,2.32,2.32,0,0,0-1.949-.848,2.283,2.283,0,0,0-1.922.836A4.023,4.023,0,0,0,44.961,56.711Zm20.344,0a4.724,4.724,0,0,1-1.055,3.27,3.714,3.714,0,0,1-2.914,1.176,3.86,3.86,0,0,1-2.039-.539,3.558,3.558,0,0,1-1.375-1.547,5.391,5.391,0,0,1-.484-2.359,4.716,4.716,0,0,1,1.047-3.262,3.7,3.7,0,0,1,2.906-1.168,3.622,3.622,0,0,1,2.855,1.2A4.7,4.7,0,0,1,65.3,56.711Zm-6.523,0a4.064,4.064,0,0,0,.656,2.5,2.6,2.6,0,0,0,3.863,0,4.043,4.043,0,0,0,.66-2.5,3.978,3.978,0,0,0-.66-2.48,2.32,2.32,0,0,0-1.949-.848,2.283,2.283,0,0,0-1.922.836A4.023,4.023,0,0,0,58.781,56.711ZM77.594,61V55.461a2.235,2.235,0,0,0-.477-1.562,1.941,1.941,0,0,0-1.492-.516,2.461,2.461,0,0,0-1.969.727,3.668,3.668,0,0,0-.625,2.4V61h-1.3V52.438h1.055L73,53.609h.063a2.648,2.648,0,0,1,1.117-.98,3.63,3.63,0,0,1,1.6-.348,3.252,3.252,0,0,1,2.328.746,3.175,3.175,0,0,1,.781,2.387V61Zm11.352-4.289a4.724,4.724,0,0,1-1.055,3.27,3.714,3.714,0,0,1-2.914,1.176,3.86,3.86,0,0,1-2.039-.539,3.558,3.558,0,0,1-1.375-1.547,5.391,5.391,0,0,1-.484-2.359,4.716,4.716,0,0,1,1.047-3.262,3.7,3.7,0,0,1,2.906-1.168,3.622,3.622,0,0,1,2.855,1.2A4.7,4.7,0,0,1,88.945,56.711Zm-6.523,0a4.064,4.064,0,0,0,.656,2.5,2.6,2.6,0,0,0,3.863,0,4.043,4.043,0,0,0,.66-2.5,3.978,3.978,0,0,0-.66-2.48,2.32,2.32,0,0,0-1.949-.848,2.283,2.283,0,0,0-1.922.836A4.023,4.023,0,0,0,82.422,56.711Zm12.7-4.43a5.075,5.075,0,0,1,1.023.094l-.18,1.2a4.418,4.418,0,0,0-.937-.117,2.282,2.282,0,0,0-1.777.844,3.077,3.077,0,0,0-.738,2.1V61h-1.3V52.438h1.07l.148,1.586H92.5a3.764,3.764,0,0,1,1.148-1.289A2.585,2.585,0,0,1,95.125,52.281ZM108.664,61V55.43a2.312,2.312,0,0,0-.437-1.535,1.692,1.692,0,0,0-1.359-.512,2.195,2.195,0,0,0-1.789.7,3.3,3.3,0,0,0-.578,2.141V61h-1.3V55.43a2.312,2.312,0,0,0-.437-1.535,1.7,1.7,0,0,0-1.367-.512,2.118,2.118,0,0,0-1.785.73,3.953,3.953,0,0,0-.566,2.395V61h-1.3V52.438H98.8l.211,1.172h.063a2.549,2.549,0,0,1,1.035-.977,3.162,3.162,0,0,1,1.5-.352,2.544,2.544,0,0,1,2.625,1.453h.063a2.73,2.73,0,0,1,1.109-1.062,3.442,3.442,0,0,1,1.656-.391,2.9,2.9,0,0,1,2.176.746,3.338,3.338,0,0,1,.723,2.387V61Zm9.234,0-.258-1.219h-.062a3.6,3.6,0,0,1-1.277,1.09,3.893,3.893,0,0,1-1.59.285,2.86,2.86,0,0,1-2-.656,2.394,2.394,0,0,1-.723-1.867q0-2.594,4.148-2.719l1.453-.047v-.531a2.171,2.171,0,0,0-.434-1.488,1.783,1.783,0,0,0-1.387-.48,5.65,5.65,0,0,0-2.422.656l-.4-.992a6.094,6.094,0,0,1,1.387-.539,6.006,6.006,0,0,1,1.512-.2,3.262,3.262,0,0,1,2.27.68,2.837,2.837,0,0,1,.738,2.18V61Zm-2.93-.914a2.632,2.632,0,0,0,1.9-.664,2.457,2.457,0,0,0,.691-1.859v-.773l-1.3.055a4.717,4.717,0,0,0-2.23.48,1.449,1.449,0,0,0-.684,1.324,1.336,1.336,0,0,0,.426,1.07A1.767,1.767,0,0,0,114.969,60.086Zm7.859.914h-1.3V48.844h1.3Zm2.563-.828a1.164,1.164,0,0,1,.238-.793.864.864,0,0,1,.684-.27.924.924,0,0,1,.707.27,1.116,1.116,0,0,1,.254.793,1.1,1.1,0,0,1-.258.781,1.025,1.025,0,0,1-1.363.027A1.07,1.07,0,0,1,125.391,60.172ZM6.461,72.6a3.735,3.735,0,0,0-2.973,1.254A5.058,5.058,0,0,0,2.4,77.289a5.159,5.159,0,0,0,1.051,3.465,3.735,3.735,0,0,0,3,1.223,10.23,10.23,0,0,0,2.727-.43v1.164a8.4,8.4,0,0,1-2.93.445,4.956,4.956,0,0,1-3.895-1.531A6.306,6.306,0,0,1,.977,77.273a6.868,6.868,0,0,1,.66-3.094,4.739,4.739,0,0,1,1.906-2.047,5.77,5.77,0,0,1,2.934-.719,7.078,7.078,0,0,1,3.141.656l-.562,1.141A6.053,6.053,0,0,0,6.461,72.6Zm12.4,6.109A4.724,4.724,0,0,1,17.8,81.98a3.714,3.714,0,0,1-2.914,1.176,3.86,3.86,0,0,1-2.039-.539,3.558,3.558,0,0,1-1.375-1.547,5.391,5.391,0,0,1-.484-2.359,4.716,4.716,0,0,1,1.047-3.262,3.7,3.7,0,0,1,2.906-1.168,3.622,3.622,0,0,1,2.855,1.2A4.7,4.7,0,0,1,18.859,78.711Zm-6.523,0a4.064,4.064,0,0,0,.656,2.5,2.278,2.278,0,0,0,1.93.859,2.293,2.293,0,0,0,1.934-.855,4.043,4.043,0,0,0,.66-2.5,3.978,3.978,0,0,0-.66-2.48,2.32,2.32,0,0,0-1.949-.848,2.283,2.283,0,0,0-1.922.836A4.023,4.023,0,0,0,12.336,78.711ZM26.992,83V77.461a2.235,2.235,0,0,0-.477-1.562,1.941,1.941,0,0,0-1.492-.516,2.461,2.461,0,0,0-1.969.727,3.668,3.668,0,0,0-.625,2.4V83h-1.3V74.438h1.055l.211,1.172h.063a2.648,2.648,0,0,1,1.117-.98,3.63,3.63,0,0,1,1.6-.348,3.252,3.252,0,0,1,2.328.746,3.175,3.175,0,0,1,.781,2.387V83Zm6.727-.914a4.237,4.237,0,0,0,.664-.051,4.3,4.3,0,0,0,.508-.105v.992a2.371,2.371,0,0,1-.621.168,4.664,4.664,0,0,1-.738.066q-2.484,0-2.484-2.617V75.445H29.82V74.82l1.227-.539.547-1.828h.75v1.984h2.484v1.008H32.344v5.039a1.734,1.734,0,0,0,.367,1.188A1.278,1.278,0,0,0,33.719,82.086Zm6.789-7.8a5.075,5.075,0,0,1,1.023.094l-.18,1.2a4.418,4.418,0,0,0-.937-.117,2.282,2.282,0,0,0-1.777.844,3.077,3.077,0,0,0-.738,2.1V83H36.6V74.438h1.07l.148,1.586h.063a3.764,3.764,0,0,1,1.148-1.289A2.585,2.585,0,0,1,40.508,74.281ZM48.078,83l-.258-1.219h-.062a3.6,3.6,0,0,1-1.277,1.09,3.893,3.893,0,0,1-1.59.285,2.86,2.86,0,0,1-2-.656,2.394,2.394,0,0,1-.723-1.867q0-2.594,4.148-2.719l1.453-.047v-.531a2.171,2.171,0,0,0-.434-1.488,1.783,1.783,0,0,0-1.387-.48,5.65,5.65,0,0,0-2.422.656l-.4-.992a6.094,6.094,0,0,1,1.387-.539,6.006,6.006,0,0,1,1.512-.2,3.262,3.262,0,0,1,2.27.68,2.837,2.837,0,0,1,.738,2.18V83Zm-2.93-.914a2.632,2.632,0,0,0,1.9-.664,2.457,2.457,0,0,0,.691-1.859v-.773l-1.3.055a4.717,4.717,0,0,0-2.23.48,1.449,1.449,0,0,0-.684,1.324,1.336,1.336,0,0,0,.426,1.07A1.767,1.767,0,0,0,45.148,82.086ZM55.7,83.156a3.706,3.706,0,0,1-1.527-.309,2.872,2.872,0,0,1-1.16-.949h-.094a11.485,11.485,0,0,1,.094,1.422v3.523h-1.3V74.438h1.055l.18,1.172h.063a3.012,3.012,0,0,1,1.164-1.016,3.539,3.539,0,0,1,1.523-.312,3.165,3.165,0,0,1,2.629,1.164,6.2,6.2,0,0,1-.016,6.543A3.17,3.17,0,0,1,55.7,83.156Zm-.187-7.773a2.3,2.3,0,0,0-1.9.727,3.739,3.739,0,0,0-.6,2.313v.289a4.285,4.285,0,0,0,.6,2.582,2.288,2.288,0,0,0,1.93.777,2.007,2.007,0,0,0,1.738-.9,4.26,4.26,0,0,0,.629-2.477,4.1,4.1,0,0,0-.629-2.457A2.069,2.069,0,0,0,55.508,75.383ZM62.813,83h-1.3V74.438h1.3ZM61.406,72.117a.861.861,0,0,1,.219-.652.81.81,0,0,1,1.086,0,.846.846,0,0,1,.227.648.859.859,0,0,1-.227.652.794.794,0,0,1-1.086,0A.877.877,0,0,1,61.406,72.117Zm7.578,11.039a3.654,3.654,0,0,1-2.879-1.145,4.707,4.707,0,0,1-1.02-3.238,4.853,4.853,0,0,1,1.035-3.32,3.727,3.727,0,0,1,2.949-1.172,5.853,5.853,0,0,1,1.234.133,4.066,4.066,0,0,1,.969.313l-.4,1.1a6.1,6.1,0,0,0-.937-.285,4.186,4.186,0,0,0-.9-.113q-2.609,0-2.609,3.328a3.963,3.963,0,0,0,.637,2.422,2.215,2.215,0,0,0,1.887.844,5.769,5.769,0,0,0,2.2-.461v1.148A4.679,4.679,0,0,1,68.984,83.156ZM78.445,83l-.258-1.219h-.062a3.6,3.6,0,0,1-1.277,1.09,3.893,3.893,0,0,1-1.59.285,2.86,2.86,0,0,1-2-.656,2.394,2.394,0,0,1-.723-1.867q0-2.594,4.148-2.719l1.453-.047v-.531a2.171,2.171,0,0,0-.434-1.488,1.783,1.783,0,0,0-1.387-.48,5.65,5.65,0,0,0-2.422.656l-.4-.992a6.094,6.094,0,0,1,1.387-.539,6.006,6.006,0,0,1,1.512-.2,3.262,3.262,0,0,1,2.27.68,2.837,2.837,0,0,1,.738,2.18V83Zm-2.93-.914a2.632,2.632,0,0,0,1.9-.664,2.457,2.457,0,0,0,.691-1.859v-.773l-1.3.055a4.717,4.717,0,0,0-2.23.48,1.449,1.449,0,0,0-.684,1.324,1.336,1.336,0,0,0,.426,1.07A1.767,1.767,0,0,0,75.516,82.086Zm12.391-.234h-.07a3.047,3.047,0,0,1-2.687,1.3,3.179,3.179,0,0,1-2.613-1.148,5.055,5.055,0,0,1-.934-3.266,5.14,5.14,0,0,1,.938-3.289,3.155,3.155,0,0,1,2.609-1.172,3.114,3.114,0,0,1,2.672,1.266h.1l-.055-.617-.031-.6V70.844h1.3V83H88.078Zm-2.594.219a2.361,2.361,0,0,0,1.926-.723,3.652,3.652,0,0,0,.6-2.332v-.273a4.3,4.3,0,0,0-.605-2.6,2.3,2.3,0,0,0-1.934-.777,1.985,1.985,0,0,0-1.746.887,4.409,4.409,0,0,0-.605,2.5,4.227,4.227,0,0,0,.6,2.477A2.037,2.037,0,0,0,85.313,82.07Zm13.961-3.359a4.724,4.724,0,0,1-1.055,3.27A3.714,3.714,0,0,1,95.3,83.156a3.86,3.86,0,0,1-2.039-.539,3.558,3.558,0,0,1-1.375-1.547,5.391,5.391,0,0,1-.484-2.359,4.716,4.716,0,0,1,1.047-3.262,3.7,3.7,0,0,1,2.906-1.168,3.622,3.622,0,0,1,2.855,1.2A4.7,4.7,0,0,1,99.273,78.711Zm-6.523,0a4.064,4.064,0,0,0,.656,2.5,2.6,2.6,0,0,0,3.863,0,4.043,4.043,0,0,0,.66-2.5,3.978,3.978,0,0,0-.66-2.48,2.32,2.32,0,0,0-1.949-.848,2.283,2.283,0,0,0-1.922.836A4.023,4.023,0,0,0,92.75,78.711Zm8.609,3.461a1.164,1.164,0,0,1,.238-.793.864.864,0,0,1,.684-.27.924.924,0,0,1,.707.27,1.116,1.116,0,0,1,.254.793,1.1,1.1,0,0,1-.258.781,1.025,1.025,0,0,1-1.363.027A1.07,1.07,0,0,1,101.359,82.172ZM10.492,105H8.977L2.734,95.414H2.672Q2.8,97.1,2.8,98.508V105H1.57V93.578h1.5L9.3,103.125h.063q-.016-.211-.07-1.355t-.039-1.637V93.578h1.242Zm8.211,0-.258-1.219h-.062a3.6,3.6,0,0,1-1.277,1.09,3.893,3.893,0,0,1-1.59.285,2.86,2.86,0,0,1-2-.656,2.394,2.394,0,0,1-.723-1.867q0-2.594,4.148-2.719l1.453-.047v-.531a2.171,2.171,0,0,0-.434-1.488,1.783,1.783,0,0,0-1.387-.48,5.65,5.65,0,0,0-2.422.656l-.4-.992a6.094,6.094,0,0,1,1.387-.539,6.006,6.006,0,0,1,1.512-.2,3.262,3.262,0,0,1,2.27.68,2.837,2.837,0,0,1,.738,2.18V105Zm-2.93-.914a2.632,2.632,0,0,0,1.9-.664,2.457,2.457,0,0,0,.691-1.859v-.773l-1.3.055a4.717,4.717,0,0,0-2.23.48,1.449,1.449,0,0,0-.684,1.324,1.336,1.336,0,0,0,.426,1.07A1.767,1.767,0,0,0,15.773,104.086Zm12.391-.234h-.07a3.047,3.047,0,0,1-2.687,1.3,3.179,3.179,0,0,1-2.613-1.148,5.055,5.055,0,0,1-.934-3.266,5.14,5.14,0,0,1,.938-3.289,3.155,3.155,0,0,1,2.609-1.172,3.114,3.114,0,0,1,2.672,1.266h.1l-.055-.617-.031-.6V92.844h1.3V105H28.336Zm-2.594.219a2.361,2.361,0,0,0,1.926-.723,3.652,3.652,0,0,0,.6-2.332v-.273a4.3,4.3,0,0,0-.605-2.6,2.3,2.3,0,0,0-1.934-.777,1.985,1.985,0,0,0-1.746.887,4.409,4.409,0,0,0-.605,2.5,4.227,4.227,0,0,0,.6,2.477A2.037,2.037,0,0,0,25.57,104.07Zm7.867.93h-1.3V96.438h1.3ZM32.031,94.117a.861.861,0,0,1,.219-.652.81.81,0,0,1,1.086,0,.846.846,0,0,1,.227.648.859.859,0,0,1-.227.652.794.794,0,0,1-1.086,0A.877.877,0,0,1,32.031,94.117Zm8.063,2.164a5.075,5.075,0,0,1,1.023.094l-.18,1.2A4.418,4.418,0,0,0,40,97.461a2.282,2.282,0,0,0-1.777.844,3.077,3.077,0,0,0-.738,2.1V105h-1.3V96.438h1.07l.148,1.586h.063a3.764,3.764,0,0,1,1.148-1.289A2.585,2.585,0,0,1,40.094,96.281Zm3.984,6.859.117.18q-.2.781-.586,1.816t-.8,1.926h-.977q.211-.812.465-2.008t.355-1.914Zm12.242-.477a2.145,2.145,0,0,1-.891,1.844,4.186,4.186,0,0,1-2.5.648,5.436,5.436,0,0,1-2.656-.539v-1.2a6.423,6.423,0,0,0,1.324.492,5.53,5.53,0,0,0,1.363.18,3.092,3.092,0,0,0,1.563-.324,1.116,1.116,0,0,0,.113-1.844,6.82,6.82,0,0,0-1.691-.84,9.172,9.172,0,0,1-1.7-.777,2.321,2.321,0,0,1-.75-.754,1.966,1.966,0,0,1-.246-1.008,1.921,1.921,0,0,1,.852-1.652,3.968,3.968,0,0,1,2.336-.605,6.835,6.835,0,0,1,2.7.563L55.68,97.9a6.2,6.2,0,0,0-2.336-.531,2.687,2.687,0,0,0-1.391.289.894.894,0,0,0-.469.8.971.971,0,0,0,.176.586,1.735,1.735,0,0,0,.566.461,12.657,12.657,0,0,0,1.5.633,5.6,5.6,0,0,1,2.059,1.117A1.97,1.97,0,0,1,56.32,102.664Zm3.328-6.227v5.555a2.235,2.235,0,0,0,.477,1.563,1.941,1.941,0,0,0,1.492.516,2.435,2.435,0,0,0,1.965-.734,3.7,3.7,0,0,0,.621-2.4v-4.5h1.3V105H64.43l-.187-1.148h-.07a2.585,2.585,0,0,1-1.105.969,3.716,3.716,0,0,1-1.613.336,3.273,3.273,0,0,1-2.34-.742,3.159,3.159,0,0,1-.777-2.375v-5.6Zm12.586,8.719a3.706,3.706,0,0,1-1.527-.309,2.872,2.872,0,0,1-1.16-.949h-.094a11.485,11.485,0,0,1,.094,1.422v3.523h-1.3V96.438H69.3l.18,1.172h.063a3.012,3.012,0,0,1,1.164-1.016,3.539,3.539,0,0,1,1.523-.312,3.165,3.165,0,0,1,2.629,1.164,6.2,6.2,0,0,1-.016,6.543A3.17,3.17,0,0,1,72.234,105.156Zm-.187-7.773a2.3,2.3,0,0,0-1.9.727,3.739,3.739,0,0,0-.6,2.313v.289a4.285,4.285,0,0,0,.6,2.582,2.288,2.288,0,0,0,1.93.777,2.007,2.007,0,0,0,1.738-.9,4.26,4.26,0,0,0,.629-2.477,4.1,4.1,0,0,0-.629-2.457A2.069,2.069,0,0,0,72.047,97.383Zm7.3,7.617h-1.3V96.438h1.3ZM77.945,94.117a.861.861,0,0,1,.219-.652.81.81,0,0,1,1.086,0,.846.846,0,0,1,.227.648.859.859,0,0,1-.227.652.794.794,0,0,1-1.086,0A.877.877,0,0,1,77.945,94.117ZM87.961,105V99.461a2.235,2.235,0,0,0-.477-1.562,1.941,1.941,0,0,0-1.492-.516,2.461,2.461,0,0,0-1.969.727,3.668,3.668,0,0,0-.625,2.4V105H82.1V96.438h1.055l.211,1.172h.063a2.648,2.648,0,0,1,1.117-.98,3.63,3.63,0,0,1,1.6-.348,3.252,3.252,0,0,1,2.328.746,3.175,3.175,0,0,1,.781,2.387V105Zm9.227,0-.258-1.219h-.062a3.6,3.6,0,0,1-1.277,1.09,3.893,3.893,0,0,1-1.59.285,2.86,2.86,0,0,1-2-.656,2.394,2.394,0,0,1-.723-1.867q0-2.594,4.148-2.719l1.453-.047v-.531a2.171,2.171,0,0,0-.434-1.488,1.783,1.783,0,0,0-1.387-.48,5.65,5.65,0,0,0-2.422.656l-.4-.992a6.094,6.094,0,0,1,1.387-.539,6.006,6.006,0,0,1,1.512-.2,3.262,3.262,0,0,1,2.27.68,2.837,2.837,0,0,1,.738,2.18V105Zm-2.93-.914a2.632,2.632,0,0,0,1.9-.664,2.457,2.457,0,0,0,.691-1.859v-.773l-1.3.055a4.717,4.717,0,0,0-2.23.48,1.449,1.449,0,0,0-.684,1.324,1.336,1.336,0,0,0,.426,1.07A1.767,1.767,0,0,0,94.258,104.086Zm18.109-3.375a4.724,4.724,0,0,1-1.055,3.27,3.714,3.714,0,0,1-2.914,1.176,3.86,3.86,0,0,1-2.039-.539,3.558,3.558,0,0,1-1.375-1.547,5.391,5.391,0,0,1-.484-2.359,4.716,4.716,0,0,1,1.047-3.262,3.7,3.7,0,0,1,2.906-1.168,3.622,3.622,0,0,1,2.855,1.2A4.7,4.7,0,0,1,112.367,100.711Zm-6.523,0a4.064,4.064,0,0,0,.656,2.5,2.6,2.6,0,0,0,3.863,0,4.043,4.043,0,0,0,.66-2.5,3.978,3.978,0,0,0-.66-2.48,2.32,2.32,0,0,0-1.949-.848,2.283,2.283,0,0,0-1.922.836A4.023,4.023,0,0,0,105.844,100.711ZM125.8,96.438v.82l-1.586.188a2.785,2.785,0,0,1,.563,1.711,2.531,2.531,0,0,1-.859,2.008,3.467,3.467,0,0,1-2.359.75,3.929,3.929,0,0,1-.719-.062,1.276,1.276,0,0,0-.828,1.1.56.56,0,0,0,.289.52,2.112,2.112,0,0,0,.992.168h1.516a3.394,3.394,0,0,1,2.137.586,2.036,2.036,0,0,1,.746,1.7,2.431,2.431,0,0,1-1.141,2.168,6.1,6.1,0,0,1-3.328.746,4.547,4.547,0,0,1-2.59-.625,2.018,2.018,0,0,1-.91-1.766,1.983,1.983,0,0,1,.5-1.352,2.546,2.546,0,0,1,1.406-.773,1.357,1.357,0,0,1-.551-.461,1.22,1.22,0,0,1-.223-.727,1.379,1.379,0,0,1,.25-.82,2.628,2.628,0,0,1,.789-.68,2.313,2.313,0,0,1-1.082-.93,2.732,2.732,0,0,1-.418-1.5,2.771,2.771,0,0,1,.844-2.168,3.445,3.445,0,0,1,2.391-.762,4.347,4.347,0,0,1,1.211.156Zm-6.828,10a1.162,1.162,0,0,0,.586,1.055,3.234,3.234,0,0,0,1.68.359,4.687,4.687,0,0,0,2.418-.488,1.5,1.5,0,0,0,.785-1.324,1.048,1.048,0,0,0-.43-.965,3.337,3.337,0,0,0-1.617-.27h-1.555a2.048,2.048,0,0,0-1.375.422A1.507,1.507,0,0,0,118.977,106.438Zm.7-7.258a1.743,1.743,0,0,0,.508,1.359A2.028,2.028,0,0,0,121.6,101a1.654,1.654,0,0,0,1.9-1.844,1.7,1.7,0,0,0-1.922-1.93,1.9,1.9,0,0,0-1.406.492A1.982,1.982,0,0,0,119.68,99.18Zm9.1-2.742v5.555a2.235,2.235,0,0,0,.477,1.563,1.941,1.941,0,0,0,1.492.516,2.435,2.435,0,0,0,1.965-.734,3.7,3.7,0,0,0,.621-2.4v-4.5h1.3V105h-1.07l-.187-1.148h-.07a2.585,2.585,0,0,1-1.105.969,3.716,3.716,0,0,1-1.613.336,3.273,3.273,0,0,1-2.34-.742,3.159,3.159,0,0,1-.777-2.375v-5.6Zm14.125,6.227a2.145,2.145,0,0,1-.891,1.844,4.186,4.186,0,0,1-2.5.648,5.436,5.436,0,0,1-2.656-.539v-1.2a6.423,6.423,0,0,0,1.324.492,5.53,5.53,0,0,0,1.363.18,3.092,3.092,0,0,0,1.563-.324,1.116,1.116,0,0,0,.113-1.844,6.82,6.82,0,0,0-1.691-.84,9.172,9.172,0,0,1-1.7-.777,2.321,2.321,0,0,1-.75-.754,1.966,1.966,0,0,1-.246-1.008,1.921,1.921,0,0,1,.852-1.652,3.968,3.968,0,0,1,2.336-.605,6.835,6.835,0,0,1,2.7.563l-.461,1.055a6.2,6.2,0,0,0-2.336-.531,2.687,2.687,0,0,0-1.391.289.894.894,0,0,0-.469.8.971.971,0,0,0,.176.586,1.735,1.735,0,0,0,.566.461,12.658,12.658,0,0,0,1.5.633,5.6,5.6,0,0,1,2.059,1.117A1.97,1.97,0,0,1,142.906,102.664ZM150.281,105l-.258-1.219h-.062a3.6,3.6,0,0,1-1.277,1.09,3.893,3.893,0,0,1-1.59.285,2.86,2.86,0,0,1-2-.656,2.394,2.394,0,0,1-.723-1.867q0-2.594,4.148-2.719l1.453-.047v-.531a2.171,2.171,0,0,0-.434-1.488,1.783,1.783,0,0,0-1.387-.48,5.65,5.65,0,0,0-2.422.656l-.4-.992a6.094,6.094,0,0,1,1.387-.539,6.006,6.006,0,0,1,1.512-.2,3.262,3.262,0,0,1,2.27.68,2.837,2.837,0,0,1,.738,2.18V105Zm-2.93-.914a2.632,2.632,0,0,0,1.9-.664,2.457,2.457,0,0,0,.691-1.859v-.773l-1.3.055a4.717,4.717,0,0,0-2.23.48,1.449,1.449,0,0,0-.684,1.324,1.336,1.336,0,0,0,.426,1.07A1.767,1.767,0,0,0,147.352,104.086Zm12.422.914V99.461A2.235,2.235,0,0,0,159.3,97.9a1.941,1.941,0,0,0-1.492-.516,2.461,2.461,0,0,0-1.969.727,3.668,3.668,0,0,0-.625,2.4V105h-1.3V96.438h1.055l.211,1.172h.063a2.648,2.648,0,0,1,1.117-.98,3.63,3.63,0,0,1,1.6-.348,3.252,3.252,0,0,1,2.328.746,3.175,3.175,0,0,1,.781,2.387V105Zm11.352-4.289a4.724,4.724,0,0,1-1.055,3.27,3.714,3.714,0,0,1-2.914,1.176,3.86,3.86,0,0,1-2.039-.539,3.558,3.558,0,0,1-1.375-1.547,5.391,5.391,0,0,1-.484-2.359,4.716,4.716,0,0,1,1.047-3.262,3.7,3.7,0,0,1,2.906-1.168,3.622,3.622,0,0,1,2.855,1.2A4.7,4.7,0,0,1,171.125,100.711Zm-6.523,0a4.064,4.064,0,0,0,.656,2.5,2.6,2.6,0,0,0,3.863,0,4.043,4.043,0,0,0,.66-2.5,3.978,3.978,0,0,0-.66-2.48,2.32,2.32,0,0,0-1.949-.848,2.283,2.283,0,0,0-1.922.836A4.023,4.023,0,0,0,164.6,100.711Zm8.609,3.461a1.164,1.164,0,0,1,.238-.793.864.864,0,0,1,.684-.27.924.924,0,0,1,.707.27,1.116,1.116,0,0,1,.254.793,1.1,1.1,0,0,1-.258.781,1.025,1.025,0,0,1-1.363.027A1.07,1.07,0,0,1,173.211,104.172ZM8.75,127l-1.422-3.633H2.75L1.344,127H0l4.516-11.469H5.633L10.125,127Zm-1.836-4.828-1.328-3.539q-.258-.672-.531-1.648a14.8,14.8,0,0,1-.492,1.648l-1.344,3.539Zm8.57-3.875a3.183,3.183,0,0,1,2.621,1.152,6.17,6.17,0,0,1-.008,6.539,3.17,3.17,0,0,1-2.613,1.168,3.706,3.706,0,0,1-1.527-.309,2.872,2.872,0,0,1-1.16-.949H12.7L12.43,127H11.5V114.844h1.3V117.8q0,.992-.062,1.781H12.8A3.079,3.079,0,0,1,15.484,118.3Zm-.187,1.086a2.264,2.264,0,0,0-1.914.762,5.877,5.877,0,0,0,.016,5.148,2.288,2.288,0,0,0,1.93.777,2,2,0,0,0,1.781-.871,4.477,4.477,0,0,0,.586-2.5,4.3,4.3,0,0,0-.586-2.492A2.076,2.076,0,0,0,15.3,119.383Zm9.625,7.773a3.934,3.934,0,0,1-3-1.156,4.476,4.476,0,0,1-1.1-3.211,4.964,4.964,0,0,1,1.02-3.289,3.387,3.387,0,0,1,2.738-1.219,3.229,3.229,0,0,1,2.547,1.059,4.057,4.057,0,0,1,.938,2.793v.82h-5.9a3.394,3.394,0,0,0,.762,2.289,2.634,2.634,0,0,0,2.035.781,6.9,6.9,0,0,0,2.734-.578V126.6a6.863,6.863,0,0,1-1.3.426A7.31,7.31,0,0,1,24.922,127.156Zm-.352-7.789a2.118,2.118,0,0,0-1.645.672A3.1,3.1,0,0,0,22.2,121.9H26.68a2.851,2.851,0,0,0-.547-1.879A1.925,1.925,0,0,0,24.57,119.367Zm9.617-1.086a5.075,5.075,0,0,1,1.023.094l-.18,1.2a4.418,4.418,0,0,0-.937-.117,2.282,2.282,0,0,0-1.777.844,3.077,3.077,0,0,0-.738,2.1V127h-1.3v-8.562h1.07l.148,1.586h.063a3.764,3.764,0,0,1,1.148-1.289A2.585,2.585,0,0,1,34.188,118.281Zm6.531,0a5.075,5.075,0,0,1,1.023.094l-.18,1.2a4.418,4.418,0,0,0-.937-.117,2.282,2.282,0,0,0-1.777.844,3.077,3.077,0,0,0-.738,2.1V127h-1.3v-8.562h1.07l.148,1.586h.063a3.764,3.764,0,0,1,1.148-1.289A2.585,2.585,0,0,1,40.719,118.281ZM48.289,127l-.258-1.219h-.062a3.6,3.6,0,0,1-1.277,1.09,3.893,3.893,0,0,1-1.59.285,2.86,2.86,0,0,1-2-.656,2.394,2.394,0,0,1-.723-1.867q0-2.594,4.148-2.719l1.453-.047v-.531a2.171,2.171,0,0,0-.434-1.488,1.783,1.783,0,0,0-1.387-.48,5.65,5.65,0,0,0-2.422.656l-.4-.992a6.094,6.094,0,0,1,1.387-.539,6.006,6.006,0,0,1,1.512-.2,3.262,3.262,0,0,1,2.27.68,2.837,2.837,0,0,1,.738,2.18V127Zm-2.93-.914a2.632,2.632,0,0,0,1.9-.664,2.457,2.457,0,0,0,.691-1.859v-.773l-1.3.055a4.717,4.717,0,0,0-2.23.48,1.449,1.449,0,0,0-.684,1.324,1.336,1.336,0,0,0,.426,1.07A1.767,1.767,0,0,0,45.359,126.086ZM57.781,127v-5.539A2.235,2.235,0,0,0,57.3,119.9a1.941,1.941,0,0,0-1.492-.516,2.461,2.461,0,0,0-1.969.727,3.668,3.668,0,0,0-.625,2.4V127h-1.3v-8.562h1.055l.211,1.172h.063a2.648,2.648,0,0,1,1.117-.98,3.63,3.63,0,0,1,1.6-.348,3.252,3.252,0,0,1,2.328.746,3.175,3.175,0,0,1,.781,2.387V127Zm6.727-.914a4.237,4.237,0,0,0,.664-.051,4.3,4.3,0,0,0,.508-.105v.992a2.371,2.371,0,0,1-.621.168,4.664,4.664,0,0,1-.738.066q-2.484,0-2.484-2.617v-5.094H60.609v-.625l1.227-.539.547-1.828h.75v1.984h2.484v1.008H63.133v5.039a1.734,1.734,0,0,0,.367,1.188A1.278,1.278,0,0,0,64.508,126.086Zm6.5,1.07a3.934,3.934,0,0,1-3-1.156,4.476,4.476,0,0,1-1.1-3.211,4.964,4.964,0,0,1,1.02-3.289,3.387,3.387,0,0,1,2.738-1.219,3.229,3.229,0,0,1,2.547,1.059,4.057,4.057,0,0,1,.938,2.793v.82h-5.9a3.394,3.394,0,0,0,.762,2.289,2.634,2.634,0,0,0,2.035.781,6.9,6.9,0,0,0,2.734-.578V126.6a6.863,6.863,0,0,1-1.3.426A7.31,7.31,0,0,1,71.008,127.156Zm-.352-7.789a2.118,2.118,0,0,0-1.645.672,3.1,3.1,0,0,0-.723,1.859h4.477a2.851,2.851,0,0,0-.547-1.879A1.925,1.925,0,0,0,70.656,119.367Zm11.086-.93v5.555a2.235,2.235,0,0,0,.477,1.563,1.941,1.941,0,0,0,1.492.516,2.435,2.435,0,0,0,1.965-.734,3.7,3.7,0,0,0,.621-2.4v-4.5h1.3V127h-1.07l-.187-1.148h-.07a2.585,2.585,0,0,1-1.105.969,3.716,3.716,0,0,1-1.613.336,3.273,3.273,0,0,1-2.34-.742,3.159,3.159,0,0,1-.777-2.375v-5.6ZM100.359,127v-5.539a2.235,2.235,0,0,0-.477-1.562,1.941,1.941,0,0,0-1.492-.516,2.445,2.445,0,0,0-1.973.734,3.72,3.72,0,0,0-.621,2.406V127H94.5V114.844h1.3v3.68a8.018,8.018,0,0,1-.062,1.1h.078a2.645,2.645,0,0,1,1.09-.973,3.543,3.543,0,0,1,1.613-.355,3.3,3.3,0,0,1,2.355.746,3.142,3.142,0,0,1,.785,2.371V127Zm11.352-4.289a4.724,4.724,0,0,1-1.055,3.27,3.714,3.714,0,0,1-2.914,1.176,3.86,3.86,0,0,1-2.039-.539,3.558,3.558,0,0,1-1.375-1.547,5.391,5.391,0,0,1-.484-2.359,4.716,4.716,0,0,1,1.047-3.262,3.7,3.7,0,0,1,2.906-1.168,3.622,3.622,0,0,1,2.855,1.2A4.7,4.7,0,0,1,111.711,122.711Zm-6.523,0a4.064,4.064,0,0,0,.656,2.5,2.6,2.6,0,0,0,3.863,0,4.043,4.043,0,0,0,.66-2.5,3.978,3.978,0,0,0-.66-2.48,2.32,2.32,0,0,0-1.949-.848,2.283,2.283,0,0,0-1.922.836A4.023,4.023,0,0,0,105.188,122.711ZM115.281,127h-1.3V114.844h1.3Zm8.016,0-.258-1.219h-.062a3.6,3.6,0,0,1-1.277,1.09,3.893,3.893,0,0,1-1.59.285,2.86,2.86,0,0,1-2-.656,2.394,2.394,0,0,1-.723-1.867q0-2.594,4.148-2.719l1.453-.047v-.531a2.171,2.171,0,0,0-.434-1.488,1.783,1.783,0,0,0-1.387-.48,5.65,5.65,0,0,0-2.422.656l-.4-.992a6.094,6.094,0,0,1,1.387-.539,6.006,6.006,0,0,1,1.512-.2,3.262,3.262,0,0,1,2.27.68,2.837,2.837,0,0,1,.738,2.18V127Zm-2.93-.914a2.632,2.632,0,0,0,1.9-.664,2.457,2.457,0,0,0,.691-1.859v-.773l-1.3.055a4.717,4.717,0,0,0-2.23.48,1.449,1.449,0,0,0-.684,1.324,1.336,1.336,0,0,0,.426,1.07A1.767,1.767,0,0,0,120.367,126.086Zm12.422.914v-5.539a2.235,2.235,0,0,0-.477-1.562,1.941,1.941,0,0,0-1.492-.516,2.461,2.461,0,0,0-1.969.727,3.668,3.668,0,0,0-.625,2.4V127h-1.3v-8.562h1.055l.211,1.172h.063a2.648,2.648,0,0,1,1.117-.98,3.63,3.63,0,0,1,1.6-.348,3.252,3.252,0,0,1,2.328.746,3.175,3.175,0,0,1,.781,2.387V127Zm9.789-1.148h-.07a3.047,3.047,0,0,1-2.687,1.3,3.179,3.179,0,0,1-2.613-1.148,5.055,5.055,0,0,1-.934-3.266,5.14,5.14,0,0,1,.938-3.289,3.155,3.155,0,0,1,2.609-1.172,3.114,3.114,0,0,1,2.672,1.266h.1l-.055-.617-.031-.6v-3.484h1.3V127H142.75Zm-2.594.219a2.361,2.361,0,0,0,1.926-.723,3.652,3.652,0,0,0,.6-2.332v-.273a4.3,4.3,0,0,0-.605-2.6,2.3,2.3,0,0,0-1.934-.777,1.985,1.985,0,0,0-1.746.887,4.409,4.409,0,0,0-.605,2.5,4.227,4.227,0,0,0,.6,2.477A2.037,2.037,0,0,0,139.984,126.07Zm10.188,1.086a3.934,3.934,0,0,1-3-1.156,4.476,4.476,0,0,1-1.1-3.211,4.964,4.964,0,0,1,1.02-3.289,3.387,3.387,0,0,1,2.738-1.219,3.229,3.229,0,0,1,2.547,1.059,4.057,4.057,0,0,1,.938,2.793v.82h-5.9a3.394,3.394,0,0,0,.762,2.289,2.634,2.634,0,0,0,2.035.781,6.9,6.9,0,0,0,2.734-.578V126.6a6.863,6.863,0,0,1-1.3.426A7.31,7.31,0,0,1,150.172,127.156Zm-.352-7.789a2.118,2.118,0,0,0-1.645.672,3.1,3.1,0,0,0-.723,1.859h4.477a2.851,2.851,0,0,0-.547-1.879A1.925,1.925,0,0,0,149.82,119.367Zm-.961-2.258q.375-.484.809-1.172a13.413,13.413,0,0,0,.684-1.2h1.578v.164a14.473,14.473,0,0,1-2.2,2.4h-.867Zm12.2,7.555a2.145,2.145,0,0,1-.891,1.844,4.186,4.186,0,0,1-2.5.648,5.436,5.436,0,0,1-2.656-.539v-1.2a6.423,6.423,0,0,0,1.324.492,5.53,5.53,0,0,0,1.363.18,3.092,3.092,0,0,0,1.563-.324,1.116,1.116,0,0,0,.113-1.844,6.82,6.82,0,0,0-1.691-.84,9.172,9.172,0,0,1-1.7-.777,2.321,2.321,0,0,1-.75-.754,1.966,1.966,0,0,1-.246-1.008,1.921,1.921,0,0,1,.852-1.652,3.968,3.968,0,0,1,2.336-.605,6.835,6.835,0,0,1,2.7.563l-.461,1.055a6.2,6.2,0,0,0-2.336-.531,2.687,2.687,0,0,0-1.391.289.894.894,0,0,0-.469.8.971.971,0,0,0,.176.586,1.735,1.735,0,0,0,.566.461,12.658,12.658,0,0,0,1.5.633,5.6,5.6,0,0,1,2.059,1.117A1.97,1.97,0,0,1,161.055,124.664Zm1.922,1.508a1.164,1.164,0,0,1,.238-.793.864.864,0,0,1,.684-.27.924.924,0,0,1,.707.27,1.116,1.116,0,0,1,.254.793,1.1,1.1,0,0,1-.258.781,1.025,1.025,0,0,1-1.363.027A1.07,1.07,0,0,1,162.977,126.172ZM8.75,149l-1.422-3.633H2.75L1.344,149H0l4.516-11.469H5.633L10.125,149Zm-1.836-4.828-1.328-3.539q-.258-.672-.531-1.648a14.8,14.8,0,0,1-.492,1.648l-1.344,3.539Zm8.2,4.984a3.934,3.934,0,0,1-3-1.156,4.476,4.476,0,0,1-1.1-3.211,4.964,4.964,0,0,1,1.02-3.289,3.387,3.387,0,0,1,2.738-1.219,3.229,3.229,0,0,1,2.547,1.059,4.057,4.057,0,0,1,.938,2.793v.82h-5.9a3.394,3.394,0,0,0,.762,2.289,2.635,2.635,0,0,0,2.035.781,6.9,6.9,0,0,0,2.734-.578V148.6a6.863,6.863,0,0,1-1.3.426A7.31,7.31,0,0,1,15.117,149.156Zm-.352-7.789a2.118,2.118,0,0,0-1.645.672A3.1,3.1,0,0,0,12.4,143.9h4.477a2.851,2.851,0,0,0-.547-1.879A1.925,1.925,0,0,0,14.766,141.367Zm-.961-2.258q.375-.484.809-1.172a13.41,13.41,0,0,0,.684-1.2h1.578v.164a11.549,11.549,0,0,1-1.023,1.25,11.618,11.618,0,0,1-1.18,1.148H13.8Zm10.578,1.172a5.075,5.075,0,0,1,1.023.094l-.18,1.2a4.418,4.418,0,0,0-.937-.117,2.282,2.282,0,0,0-1.777.844,3.077,3.077,0,0,0-.738,2.1V149h-1.3v-8.562h1.07l.148,1.586h.063a3.764,3.764,0,0,1,1.148-1.289A2.585,2.585,0,0,1,24.383,140.281Zm5.922,8.875a3.934,3.934,0,0,1-3-1.156,4.476,4.476,0,0,1-1.1-3.211,4.964,4.964,0,0,1,1.02-3.289,3.387,3.387,0,0,1,2.738-1.219,3.229,3.229,0,0,1,2.547,1.059,4.057,4.057,0,0,1,.938,2.793v.82h-5.9a3.394,3.394,0,0,0,.762,2.289,2.635,2.635,0,0,0,2.035.781,6.9,6.9,0,0,0,2.734-.578V148.6a6.863,6.863,0,0,1-1.3.426A7.31,7.31,0,0,1,30.3,149.156Zm-.352-7.789a2.118,2.118,0,0,0-1.645.672,3.1,3.1,0,0,0-.723,1.859h4.477a2.851,2.851,0,0,0-.547-1.879A1.925,1.925,0,0,0,29.953,141.367Zm13.1,3.344A4.724,4.724,0,0,1,42,147.98a3.714,3.714,0,0,1-2.914,1.176,3.86,3.86,0,0,1-2.039-.539,3.558,3.558,0,0,1-1.375-1.547,5.391,5.391,0,0,1-.484-2.359,4.716,4.716,0,0,1,1.047-3.262,3.7,3.7,0,0,1,2.906-1.168,3.622,3.622,0,0,1,2.855,1.2A4.7,4.7,0,0,1,43.055,144.711Zm-6.523,0a4.064,4.064,0,0,0,.656,2.5,2.6,2.6,0,0,0,3.863,0,4.043,4.043,0,0,0,.66-2.5,3.978,3.978,0,0,0-.66-2.48,2.32,2.32,0,0,0-1.949-.848,2.283,2.283,0,0,0-1.922.836A4.023,4.023,0,0,0,36.531,144.711Zm20.344,0a4.724,4.724,0,0,1-1.055,3.27,3.714,3.714,0,0,1-2.914,1.176,3.86,3.86,0,0,1-2.039-.539,3.558,3.558,0,0,1-1.375-1.547,5.391,5.391,0,0,1-.484-2.359,4.716,4.716,0,0,1,1.047-3.262,3.7,3.7,0,0,1,2.906-1.168,3.622,3.622,0,0,1,2.855,1.2A4.7,4.7,0,0,1,56.875,144.711Zm-6.523,0a4.064,4.064,0,0,0,.656,2.5,2.6,2.6,0,0,0,3.863,0,4.043,4.043,0,0,0,.66-2.5,3.978,3.978,0,0,0-.66-2.48,2.32,2.32,0,0,0-1.949-.848,2.283,2.283,0,0,0-1.922.836A4.023,4.023,0,0,0,50.352,144.711ZM68.57,149l-.258-1.219H68.25a3.6,3.6,0,0,1-1.277,1.09,3.893,3.893,0,0,1-1.59.285,2.86,2.86,0,0,1-2-.656,2.394,2.394,0,0,1-.723-1.867q0-2.594,4.148-2.719l1.453-.047v-.531a2.171,2.171,0,0,0-.434-1.488,1.783,1.783,0,0,0-1.387-.48,5.65,5.65,0,0,0-2.422.656l-.4-.992a6.094,6.094,0,0,1,1.387-.539,6.006,6.006,0,0,1,1.512-.2,3.262,3.262,0,0,1,2.27.68,2.837,2.837,0,0,1,.738,2.18V149Zm-2.93-.914a2.632,2.632,0,0,0,1.9-.664,2.457,2.457,0,0,0,.691-1.859v-.773l-1.3.055a4.717,4.717,0,0,0-2.23.48,1.449,1.449,0,0,0-.684,1.324,1.336,1.336,0,0,0,.426,1.07A1.767,1.767,0,0,0,65.641,148.086ZM78.234,149l-3.25-8.562h1.391l1.844,5.078a24.035,24.035,0,0,1,.734,2.313h.063a17.466,17.466,0,0,1,.543-1.715q.457-1.3,2.051-5.676H83L79.75,149Zm7.438,0h-1.3v-8.562h1.3Zm-1.406-10.883a.861.861,0,0,1,.219-.652.81.81,0,0,1,1.086,0,.846.846,0,0,1,.227.648.859.859,0,0,1-.227.652.794.794,0,0,1-1.086,0A.877.877,0,0,1,84.266,138.117Zm9.68,8.547a2.145,2.145,0,0,1-.891,1.844,4.186,4.186,0,0,1-2.5.648,5.436,5.436,0,0,1-2.656-.539v-1.2a6.424,6.424,0,0,0,1.324.492,5.529,5.529,0,0,0,1.363.18,3.092,3.092,0,0,0,1.563-.324,1.116,1.116,0,0,0,.113-1.844,6.82,6.82,0,0,0-1.691-.84,9.171,9.171,0,0,1-1.7-.777,2.321,2.321,0,0,1-.75-.754,1.966,1.966,0,0,1-.246-1.008,1.921,1.921,0,0,1,.852-1.652,3.968,3.968,0,0,1,2.336-.605,6.835,6.835,0,0,1,2.7.563L93.3,141.9a6.2,6.2,0,0,0-2.336-.531,2.688,2.688,0,0,0-1.391.289.894.894,0,0,0-.469.8.971.971,0,0,0,.176.586,1.735,1.735,0,0,0,.566.461,12.659,12.659,0,0,0,1.5.633,5.6,5.6,0,0,1,2.059,1.117A1.97,1.97,0,0,1,93.945,146.664Zm4.875,1.422a4.236,4.236,0,0,0,.664-.051,4.3,4.3,0,0,0,.508-.105v.992a2.371,2.371,0,0,1-.621.168,4.665,4.665,0,0,1-.738.066q-2.484,0-2.484-2.617v-5.094H94.922v-.625l1.227-.539.547-1.828h.75v1.984H99.93v1.008H97.445v5.039a1.734,1.734,0,0,0,.367,1.188A1.278,1.278,0,0,0,98.82,148.086Zm8.148.914-.258-1.219h-.062a3.6,3.6,0,0,1-1.277,1.09,3.893,3.893,0,0,1-1.59.285,2.86,2.86,0,0,1-2-.656,2.394,2.394,0,0,1-.723-1.867q0-2.594,4.148-2.719l1.453-.047v-.531a2.171,2.171,0,0,0-.434-1.488,1.783,1.783,0,0,0-1.387-.48,5.65,5.65,0,0,0-2.422.656l-.4-.992a6.094,6.094,0,0,1,1.387-.539,6.006,6.006,0,0,1,1.512-.2,3.262,3.262,0,0,1,2.27.68,2.837,2.837,0,0,1,.738,2.18V149Zm-2.93-.914a2.632,2.632,0,0,0,1.9-.664,2.457,2.457,0,0,0,.691-1.859v-.773l-1.3.055a4.717,4.717,0,0,0-2.23.48,1.449,1.449,0,0,0-.684,1.324,1.336,1.336,0,0,0,.426,1.07A1.767,1.767,0,0,0,104.039,148.086Zm16.547-.234h-.07a3.047,3.047,0,0,1-2.687,1.3,3.179,3.179,0,0,1-2.613-1.148,5.055,5.055,0,0,1-.934-3.266,5.141,5.141,0,0,1,.938-3.289,3.155,3.155,0,0,1,2.609-1.172,3.114,3.114,0,0,1,2.672,1.266h.1l-.055-.617-.031-.6v-3.484h1.3V149h-1.055Zm-2.594.219a2.361,2.361,0,0,0,1.926-.723,3.652,3.652,0,0,0,.6-2.332v-.273a4.3,4.3,0,0,0-.605-2.6,2.3,2.3,0,0,0-1.934-.777,1.985,1.985,0,0,0-1.746.887,4.409,4.409,0,0,0-.605,2.5,4.227,4.227,0,0,0,.6,2.477A2.037,2.037,0,0,0,117.992,148.07Zm10.188,1.086a3.934,3.934,0,0,1-3-1.156,4.476,4.476,0,0,1-1.1-3.211,4.964,4.964,0,0,1,1.02-3.289,3.387,3.387,0,0,1,2.738-1.219,3.229,3.229,0,0,1,2.547,1.059,4.057,4.057,0,0,1,.938,2.793v.82h-5.9a3.394,3.394,0,0,0,.762,2.289,2.635,2.635,0,0,0,2.035.781,6.9,6.9,0,0,0,2.734-.578V148.6a6.862,6.862,0,0,1-1.3.426A7.31,7.31,0,0,1,128.18,149.156Zm-.352-7.789a2.118,2.118,0,0,0-1.645.672,3.1,3.1,0,0,0-.723,1.859h4.477a2.851,2.851,0,0,0-.547-1.879A1.925,1.925,0,0,0,127.828,141.367Zm13.852,7.789a3.705,3.705,0,0,1-1.527-.309,2.872,2.872,0,0,1-1.16-.949H138.9a11.485,11.485,0,0,1,.094,1.422v3.523h-1.3V140.438h1.055l.18,1.172h.063a3.012,3.012,0,0,1,1.164-1.016,3.539,3.539,0,0,1,1.523-.312,3.165,3.165,0,0,1,2.629,1.164,6.2,6.2,0,0,1-.016,6.543A3.17,3.17,0,0,1,141.68,149.156Zm-.187-7.773a2.3,2.3,0,0,0-1.9.727,3.739,3.739,0,0,0-.6,2.313v.289a4.285,4.285,0,0,0,.6,2.582,2.288,2.288,0,0,0,1.93.777,2.007,2.007,0,0,0,1.738-.9,4.26,4.26,0,0,0,.629-2.477,4.1,4.1,0,0,0-.629-2.457A2.069,2.069,0,0,0,141.492,141.383ZM152.766,149l-.258-1.219h-.062a3.6,3.6,0,0,1-1.277,1.09,3.893,3.893,0,0,1-1.59.285,2.86,2.86,0,0,1-2-.656,2.394,2.394,0,0,1-.723-1.867q0-2.594,4.148-2.719l1.453-.047v-.531a2.171,2.171,0,0,0-.434-1.488,1.783,1.783,0,0,0-1.387-.48,5.65,5.65,0,0,0-2.422.656l-.4-.992a6.094,6.094,0,0,1,1.387-.539,6.006,6.006,0,0,1,1.512-.2,3.262,3.262,0,0,1,2.27.68,2.837,2.837,0,0,1,.738,2.18V149Zm-2.93-.914a2.632,2.632,0,0,0,1.9-.664,2.457,2.457,0,0,0,.691-1.859v-.773l-1.3.055a4.717,4.717,0,0,0-2.23.48,1.449,1.449,0,0,0-.684,1.324,1.336,1.336,0,0,0,.426,1.07A1.767,1.767,0,0,0,149.836,148.086Zm-.3-8.977q.375-.484.809-1.172a13.411,13.411,0,0,0,.684-1.2H152.6v.164a14.473,14.473,0,0,1-2.2,2.4h-.867Zm5.828,13.734a3.122,3.122,0,0,1-1.2-.2v-1.055a3.8,3.8,0,0,0,1.063.156,1.117,1.117,0,0,0,.895-.332,1.523,1.523,0,0,0,.285-1.012v-9.969h1.3v9.875Q157.7,152.844,155.359,152.844Zm.93-14.727a.861.861,0,0,1,.219-.652.81.81,0,0,1,1.086,0,.846.846,0,0,1,.227.648.859.859,0,0,1-.227.652.794.794,0,0,1-1.086,0A.877.877,0,0,1,156.289,138.117ZM165.711,149l-.258-1.219h-.062a3.6,3.6,0,0,1-1.277,1.09,3.893,3.893,0,0,1-1.59.285,2.86,2.86,0,0,1-2-.656,2.394,2.394,0,0,1-.723-1.867q0-2.594,4.148-2.719l1.453-.047v-.531a2.171,2.171,0,0,0-.434-1.488,1.783,1.783,0,0,0-1.387-.48,5.65,5.65,0,0,0-2.422.656l-.4-.992a6.094,6.094,0,0,1,1.387-.539,6.006,6.006,0,0,1,1.512-.2,3.262,3.262,0,0,1,2.27.68,2.837,2.837,0,0,1,.738,2.18V149Zm-2.93-.914a2.632,2.632,0,0,0,1.9-.664,2.457,2.457,0,0,0,.691-1.859v-.773l-1.3.055a4.717,4.717,0,0,0-2.23.48,1.449,1.449,0,0,0-.684,1.324,1.336,1.336,0,0,0,.426,1.07A1.767,1.767,0,0,0,162.781,148.086Zm10.469-7.8a5.075,5.075,0,0,1,1.023.094l-.18,1.2a4.418,4.418,0,0,0-.937-.117,2.282,2.282,0,0,0-1.777.844,3.077,3.077,0,0,0-.738,2.1V149h-1.3v-8.562h1.07l.148,1.586h.063a3.764,3.764,0,0,1,1.148-1.289A2.585,2.585,0,0,1,173.25,140.281Zm9.7,4.43a4.724,4.724,0,0,1-1.055,3.27,3.714,3.714,0,0,1-2.914,1.176,3.86,3.86,0,0,1-2.039-.539,3.558,3.558,0,0,1-1.375-1.547,5.391,5.391,0,0,1-.484-2.359,4.716,4.716,0,0,1,1.047-3.262,3.7,3.7,0,0,1,2.906-1.168,3.622,3.622,0,0,1,2.855,1.2A4.7,4.7,0,0,1,182.945,144.711Zm-6.523,0a4.064,4.064,0,0,0,.656,2.5,2.6,2.6,0,0,0,3.863,0,4.043,4.043,0,0,0,.66-2.5,3.978,3.978,0,0,0-.66-2.48,2.32,2.32,0,0,0-1.949-.848,2.283,2.283,0,0,0-1.922.836A4.023,4.023,0,0,0,176.422,144.711Zm8.609,3.461a1.164,1.164,0,0,1,.238-.793.864.864,0,0,1,.684-.27.924.924,0,0,1,.707.27,1.116,1.116,0,0,1,.254.793,1.1,1.1,0,0,1-.258.781,1.025,1.025,0,0,1-1.363.027A1.07,1.07,0,0,1,185.031,148.172Z" transform="translate(-418.39 6823.65)" fill="#444242"/>
    <path id="Trazado_6438" data-name="Trazado 6438" d="M862.89,6984.622l-4.951-4.951a1.628,1.628,0,0,0-2.3,0l-.616.616a1.629,1.629,0,0,0,0,2.3l2.413,2.413a8.333,8.333,0,0,1,.03,1.589l-2.443,2.443a1.629,1.629,0,0,0,0,2.3l.616.615a1.628,1.628,0,0,0,2.3,0L862.89,6987a1.723,1.723,0,0,0,0-2.378Z" transform="translate(-1289 -151)" fill="#dd474d"/>
    <path id="Trazado_6439" data-name="Trazado 6439" d="M862.89,7005.06l-4.951-4.951a1.629,1.629,0,0,0-2.3,0l-.616.616a1.629,1.629,0,0,0,0,2.3l2.413,2.413a8.333,8.333,0,0,1,.03,1.589l-2.443,2.443a1.629,1.629,0,0,0,0,2.3l.616.616a1.628,1.628,0,0,0,2.3,0l4.951-4.951a1.724,1.724,0,0,0,0-2.379Z" transform="translate(-1289 -151)" fill="#dd474d"/>
    <path id="Trazado_6440" data-name="Trazado 6440" d="M862.89,7072.446l-4.951-4.951a1.627,1.627,0,0,0-2.3,0l-.616.616a1.629,1.629,0,0,0,0,2.3l2.413,2.413a8.333,8.333,0,0,1,.03,1.589l-2.443,2.443a1.629,1.629,0,0,0,0,2.3l.616.615a1.627,1.627,0,0,0,2.3,0l4.951-4.951a1.723,1.723,0,0,0,0-2.378Z" transform="translate(-1289 -151)" fill="#dd474d"/>
    <path id="Trazado_6441" data-name="Trazado 6441" d="M862.89,7027.927l-4.951-4.951a1.627,1.627,0,0,0-2.3,0l-.616.616a1.629,1.629,0,0,0,0,2.3l2.413,2.413a8.333,8.333,0,0,1,.03,1.589l-2.443,2.442a1.63,1.63,0,0,0,0,2.3l.616.615a1.627,1.627,0,0,0,2.3,0l4.951-4.951a1.723,1.723,0,0,0,0-2.378Z" transform="translate(-1289 -151)" fill="#dd474d"/>
    <path id="Trazado_6442" data-name="Trazado 6442" d="M862.89,7050.794l-4.951-4.951a1.628,1.628,0,0,0-2.3,0l-.616.615a1.63,1.63,0,0,0,0,2.3l2.413,2.413a8.329,8.329,0,0,1,.03,1.588l-2.443,2.443a1.63,1.63,0,0,0,0,2.3l.616.615a1.628,1.628,0,0,0,2.3,0l4.951-4.951a1.723,1.723,0,0,0,0-2.378Z" transform="translate(-1289 -151)" fill="#dd474d"/>
    <path id="Trazado_6443" data-name="Trazado 6443" d="M862.89,7094.1l-4.951-4.951a1.628,1.628,0,0,0-2.3,0l-.616.615a1.63,1.63,0,0,0,0,2.3l2.413,2.413a8.319,8.319,0,0,1,.03,1.588l-2.443,2.443a1.629,1.629,0,0,0,0,2.3l.616.616a1.628,1.628,0,0,0,2.3,0l4.951-4.951a1.723,1.723,0,0,0,0-2.378Z" transform="translate(-1289 -151)" fill="#dd474d"/>
    <path id="Trazado_6452" data-name="Trazado 6452" d="M58.122,0A58.122,58.122,0,1,1,0,58.122,58.122,58.122,0,0,1,58.122,0Z" transform="translate(-702.544 6892.573) rotate(-45)" fill="#dd474d" opacity="0.5"/>
    <path id="Trazado_6444" data-name="Trazado 6444" d="M690.529,7023.088l-26.515,9.037,1.2,22.827,1.817,19.127,24.8,21.956c18.1-6.1,31.546-24.936,33.661-44.528Z" transform="translate(-1289 -151)" fill="#dd474d" opacity="0.8"/>
    <g id="Grupo_3818" data-name="Grupo 3818" transform="translate(-1289 -151)">
      <g id="Grupo_3699" data-name="Grupo 3699" clip-path="url(#clip-path)">
        <path id="Trazado_6112" data-name="Trazado 6112" d="M669.846,7093.936c-6.63-2.855-14.824-7.777-15.933-18.29,3.778-1.439,5.885-5.371,6.96-9.839a75.1,75.1,0,0,1,17.948,0c1.074,4.468,3.18,8.4,6.959,9.839C684.671,7086.159,676.476,7091.081,669.846,7093.936Z" fill="#e7bb89" fill-rule="evenodd"/>
        <path id="Trazado_6113" data-name="Trazado 6113" d="M689.826,7040.615c4.6,3.714,2.984,15.22-2.662,16.143-3.221,7.179-9.141,12.561-17.258,12.561s-14.036-5.382-17.257-12.561c-5.646-.923-7.265-12.429-2.662-16.143.941-10.522,7.194-19.908,19.919-19.908S688.883,7030.092,689.826,7040.615Z" fill="#fcd7a8" fill-rule="evenodd"/>
        <path id="Trazado_6114" data-name="Trazado 6114" d="M653.929,7042.045c.227,6.2-.3,4.583-1.23,1.3-.5-1.748-1.257-3.472-2.4-3.477-.811,0-2.352,3.627-2.606,4.278a58.964,58.964,0,0,1,2.247-16.083c5.407-20.624,34.371-21.407,40.166-.77,2.1,7.485,1.662,11.257,1.8,15.959-.415-1.2-1.55-3.387-2.359-3.384-1.15.005-1.909,1.729-2.407,3.477-.933,3.287-1.372,4.9-1.145-1.3C687.258,7007.574,652.655,7007.429,653.929,7042.045Z" fill="#3f2b1d" fill-rule="evenodd"/>
        <path id="Trazado_6115" data-name="Trazado 6115" d="M653.851,7041.144c-.06-4.417.463-8.24,1.98-11.03,1.47-2.7,2.981-4.044,7.249-2.7a26.013,26.013,0,0,0,14.574-.009c3.72-1.182,4.681-.041,6.183,2.381,1.788,2.883,2.5,6.827,2.359,11.3,8.535-12.439-.426-28.9-16.248-28.9S650.506,7028.224,653.851,7041.144Z" fill="#3f2b1d" fill-rule="evenodd"/>
        <path id="Trazado_6116" data-name="Trazado 6116" d="M701.666,7073.6l-31.64-1.9-31.753,1.9a3.1,3.1,0,0,0-3.094,3.095v16.44c8.959,8.356,20.98,6.858,34.2,6.858,13.809,0,26.314,1.767,35.384-7.262v-16.036A3.1,3.1,0,0,0,701.666,7073.6Z" fill="#36474f"/>
        <path id="Trazado_6117" data-name="Trazado 6117" d="M656.895,7072.211l12.337,6.183,12.627-6.189-12.41-.747Z" fill="#e7bb89"/>
        <path id="Trazado_6118" data-name="Trazado 6118" d="M669.232,7078.394l-11.836-5.932-.507.03,3.015,29.783c3.068.587,6.234-1.06,9.473-1.06,3.111,0,6.155,1.672,9.109,1.13l3.379-29.859-.515-.031Z" fill="#e8eff2"/>
        <path id="Trazado_6119" data-name="Trazado 6119" d="M669.232,7078.394l-11.2-5.615-1.134.11,12.337,10.021,12.627-10.03-1.149-.112Z" fill="#cde5f6"/>
        <path id="Trazado_6120" data-name="Trazado 6120" d="M673.244,7100.069l-3.656,5.718-3.657-5.823,2.937-18.144-2.142-4.617,2.652.476,2.439-.476-2.142,4.728Z" fill="#1a6483"/>
        <path id="Trazado_6121" data-name="Trazado 6121" d="M674.129,7029.9c1.35-.817,2.9-.362,4.341-3.122,1.632-3.124,5.63,2.9,6.894,7.3,1.111-2.008,3.617-4.633,3.617-7.515,0-6.3-3.673-11.4-7.641-11.4a3.063,3.063,0,0,0-1.185.242c-1.671-2.818-5.664-4.8-10.328-4.8-6.166,0-9.287,6.616-16.9,6.512-7.118-.1-10.043.122-10.043.122s2.621,8.273,9.87,12.385c2.318,1.315,10.908,2.378,14.52,2.17A18.507,18.507,0,0,0,674.129,7029.9Z" fill="#3f2b1d"/>
      </g>
    </g>
    <path id="Trazado_6453" data-name="Trazado 6453" d="M138.862,0A138.862,138.862,0,1,1,0,138.862,138.862,138.862,0,0,1,138.862,0Z" transform="translate(-816.727 6892.573) rotate(-45)" fill="none" stroke="#fff" stroke-width="3"/>
    <path id="Trazado_6454" data-name="Trazado 6454" d="M0,0V51.888" transform="translate(-624.943 6777.737)" fill="none" stroke="#dd474d" stroke-width="2" stroke-dasharray="4"/>
    <path id="Trazado_6455" data-name="Trazado 6455" d="M51.888,0H0" transform="translate(-737.399 6892.573)" fill="none" stroke="#dd474d" stroke-width="2" stroke-dasharray="4"/>
    <path id="Trazado_6456" data-name="Trazado 6456" d="M42.062,30.383,0,0" transform="translate(-709.969 6812.067)" fill="none" stroke="#dd474d" stroke-width="2" stroke-dasharray="4"/>
    <path id="Trazado_6457" data-name="Trazado 6457" d="M40.575,0,0,32.342" transform="translate(-713.469 6928.864)" fill="none" stroke="#dd474d" stroke-width="2" stroke-dasharray="4"/>
    <path id="Trazado_6458" data-name="Trazado 6458" d="M4.038,0,0,51.73" transform="translate(-630.887 6959.887)" fill="none" stroke="#dd474d" stroke-width="2" stroke-dasharray="4"/>
    <g id="Grupo_3819" data-name="Grupo 3819" transform="translate(-1289 -151)" opacity="0.9">
      <path id="Trazado_6122" data-name="Trazado 6122" d="M546.4,7028.912a1.754,1.754,0,0,0-1.7-.085l-11.717,5.762v-1.856a6.43,6.43,0,0,0-4.138-6,12.251,12.251,0,1,0-18.622-15.48,12.251,12.251,0,1,0-18.621,15.48,6.43,6.43,0,0,0-4.138,6v18.675a6.426,6.426,0,0,0,6.419,6.419h32.681a6.426,6.426,0,0,0,6.419-6.419v-1.857l11.717,5.762a1.75,1.75,0,0,0,2.523-1.571V7030.4a1.752,1.752,0,0,0-.825-1.486Zm-25.67-20.106a8.753,8.753,0,1,1-8.754,8.753A8.763,8.763,0,0,1,520.731,7008.806Zm-8.567,17.507h-3.875a12.273,12.273,0,0,0,1.937-2.447A12.313,12.313,0,0,0,512.164,7026.313Zm-21.2-8.754a8.754,8.754,0,1,1,8.754,8.754A8.763,8.763,0,0,1,490.968,7017.559Zm38.517,33.849a2.921,2.921,0,0,1-2.918,2.918H493.886a2.921,2.921,0,0,1-2.918-2.918v-18.675a2.921,2.921,0,0,1,2.918-2.918h32.681a2.921,2.921,0,0,1,2.918,2.918v18.675Zm14.239-.478-10.738-5.281v-7.157l10.738-5.281Z" fill="#160c0f"/>
      <path id="Trazado_6123" data-name="Trazado 6123" d="M499.722,7022.812a5.252,5.252,0,1,0-5.252-5.253A5.258,5.258,0,0,0,499.722,7022.812Zm0-7a1.75,1.75,0,1,1-1.751,1.75A1.753,1.753,0,0,1,499.722,7015.809Z" fill="#160c0f"/>
      <path id="Trazado_6124" data-name="Trazado 6124" d="M520.731,7022.812a5.252,5.252,0,1,0-5.252-5.253A5.258,5.258,0,0,0,520.731,7022.812Zm0-7a1.75,1.75,0,1,1-1.751,1.75A1.753,1.753,0,0,1,520.731,7015.809Z" fill="#160c0f"/>
      <path id="Trazado_6125" data-name="Trazado 6125" d="M524.233,7033.316H511.394a1.751,1.751,0,0,0-1.751,1.751v10.5a1.751,1.751,0,0,0,1.751,1.751h12.839a1.751,1.751,0,0,0,1.75-1.751v-10.5A1.751,1.751,0,0,0,524.233,7033.316Zm-1.751,10.5h-9.338v-7h9.338Z" fill="#160c0f"/>
      <path id="Trazado_6126" data-name="Trazado 6126" d="M504.391,7047.323H496.22a1.75,1.75,0,0,0,0,3.5h8.171a1.75,1.75,0,0,0,0-3.5Z" fill="#160c0f"/>
      <path id="Trazado_6127" data-name="Trazado 6127" d="M504.391,7040.319H496.22a1.751,1.751,0,0,0,0,3.5h8.171a1.751,1.751,0,0,0,0-3.5Z" fill="#160c0f"/>
    </g>
    <g id="Grupo_3820" data-name="Grupo 3820" transform="translate(-1289 -151)" opacity="0.9">
      <path id="Trazado_6128" data-name="Trazado 6128" d="M561.945,7105.14a1.755,1.755,0,0,0-1.424.93l-6.089,11.549-1.092-1.5a6.428,6.428,0,0,0-6.875-2.42,12.251,12.251,0,1,0-24.164-1.574,12.252,12.252,0,1,0-5.962,23.47,6.428,6.428,0,0,0,.18,7.286l10.979,15.107a6.427,6.427,0,0,0,8.967,1.418l26.436-19.214a6.426,6.426,0,0,0,1.419-8.967l-1.092-1.5,12.865-2.227a1.751,1.751,0,0,0,1.118-2.755l-13.725-18.883a1.751,1.751,0,0,0-1.541-.717Zm-32.586-1.172a8.754,8.754,0,1,1-1.934,12.228A8.765,8.765,0,0,1,529.359,7103.968Zm3.363,19.2-3.134,2.278a12.327,12.327,0,0,0,.128-3.119A12.312,12.312,0,0,0,532.722,7123.167Zm-22.292,5.381a8.754,8.754,0,1,1,12.228,1.934A8.764,8.764,0,0,1,510.43,7128.548Zm51.057,4.734a2.921,2.921,0,0,1-.644,4.076l-26.436,19.215a2.922,2.922,0,0,1-4.076-.645l-10.98-15.106a2.92,2.92,0,0,1,.645-4.076l26.436-19.215a2.922,2.922,0,0,1,4.076.645l2.745,3.777,5.489,7.553Zm11.238-8.758-11.791,2.042-4.208-5.79,5.581-10.585Z" fill="#160c0f"/>
      <path id="Trazado_6129" data-name="Trazado 6129" d="M520.6,7127.65a5.253,5.253,0,1,0-7.336-1.161A5.258,5.258,0,0,0,520.6,7127.65Zm-4.117-5.665a1.751,1.751,0,1,1-.387,2.445A1.753,1.753,0,0,1,516.482,7121.985Z" fill="#160c0f"/>
      <path id="Trazado_6130" data-name="Trazado 6130" d="M537.594,7115.3a5.253,5.253,0,1,0-7.337-1.161A5.258,5.258,0,0,0,537.594,7115.3Zm-4.118-5.665a1.751,1.751,0,1,1-.386,2.445A1.753,1.753,0,0,1,533.476,7109.633Z" fill="#160c0f"/>
      <path id="Trazado_6131" data-name="Trazado 6131" d="M546.6,7121.736l-10.385,7.549a1.75,1.75,0,0,0-.387,2.445l6.176,8.5a1.749,1.749,0,0,0,2.445.386l10.386-7.548a1.751,1.751,0,0,0,.387-2.446l-6.176-8.5A1.752,1.752,0,0,0,546.6,7121.736Zm4.76,9.527-7.553,5.49-4.117-5.665,7.553-5.49Z" fill="#160c0f"/>
      <path id="Trazado_6132" data-name="Trazado 6132" d="M538.787,7144.732l-6.609,4.8a1.751,1.751,0,0,0,2.058,2.833l6.609-4.8a1.75,1.75,0,0,0-2.058-2.832Z" fill="#160c0f"/>
      <path id="Trazado_6133" data-name="Trazado 6133" d="M534.669,7139.067l-6.609,4.8a1.751,1.751,0,1,0,2.059,2.832l6.609-4.8a1.751,1.751,0,0,0-2.059-2.832Z" fill="#160c0f"/>
    </g>
    <g id="Grupo_3821" data-name="Grupo 3821" transform="translate(-1289 -151)" opacity="0.9">
      <path id="Trazado_6134" data-name="Trazado 6134" d="M642.672,7163.146a1.752,1.752,0,0,0-.516,1.62l2.579,12.8-1.795-.474a6.43,6.43,0,0,0-6.858,2.47,23.25,23.25,0,1,0-9.511,36.007,6.43,6.43,0,0,0,4.744,5.534l18.055,4.769a6.427,6.427,0,0,0,7.846-4.567l8.346-31.6a6.426,6.426,0,0,0-4.567-7.846l-1.795-.475,8.563-9.856a1.751,1.751,0,0,0,.352-1.663,1.754,1.754,0,0,0-1.226-1.178l-22.57-5.961a1.75,1.75,0,0,0-1.647.418Zm-26,19.684a8.754,8.754,0,1,1,6.228,10.7A8.764,8.764,0,0,1,616.676,7182.83Zm14.739,12.754-.989,3.746a1.99,1.99,0,1,1,.989-3.746Zm-13.876,18.257a8.754,8.754,0,1,1,10.7-6.228A8.763,8.763,0,0,1,617.539,7213.841Zm42.562-28.595a2.921,2.921,0,0,1,2.076,3.566l-8.346,31.6a2.923,2.923,0,0,1-3.567,2.076l-18.055-4.77a2.92,2.92,0,0,1-2.076-3.566l8.346-31.6a2.921,2.921,0,0,1,3.566-2.076l4.514,1.192,9.028,2.385Zm3.175-13.889-7.848,9.033-6.92-1.828-2.364-11.731Z" fill="#160c0f"/>
      <path id="Trazado_6135" data-name="Trazado 6135" d="M624.852,7206.719a5.252,5.252,0,1,0-6.419,3.737A5.257,5.257,0,0,0,624.852,7206.719Zm-6.77-1.788a1.751,1.751,0,1,1,1.245,2.139A1.751,1.751,0,0,1,618.082,7204.931Z" fill="#160c0f"/>
      <path id="Trazado_6136" data-name="Trazado 6136" d="M630.218,7186.407a5.252,5.252,0,1,0-6.42,3.736A5.26,5.26,0,0,0,630.218,7186.407Zm-6.771-1.789a1.751,1.751,0,1,1,1.246,2.14A1.754,1.754,0,0,1,623.447,7184.618Z" fill="#160c0f"/>
      <path id="Trazado_6137" data-name="Trazado 6137" d="M641.268,7185.7l-3.279,12.413a1.752,1.752,0,0,0,1.246,2.14l10.156,2.683a1.751,1.751,0,0,0,2.14-1.246l3.279-12.413a1.751,1.751,0,0,0-1.246-2.14l-10.156-2.683A1.751,1.751,0,0,0,641.268,7185.7Zm9.709,4.375-2.384,9.028-6.771-1.788,2.385-9.028Z" fill="#160c0f"/>
      <path id="Trazado_6138" data-name="Trazado 6138" d="M649.743,7208.465l-2.087,7.9a1.751,1.751,0,1,0,3.386.894l2.086-7.9a1.751,1.751,0,0,0-3.385-.894Z" fill="#160c0f"/>
      <path id="Trazado_6139" data-name="Trazado 6139" d="M642.972,7206.676l-2.087,7.9a1.751,1.751,0,0,0,3.386.894l2.086-7.9a1.751,1.751,0,0,0-3.385-.9Z" fill="#160c0f"/>
    </g>
    <g id="Grupo_3822" data-name="Grupo 3822" transform="translate(-1289 -151)" opacity="0.9">
      <path id="Trazado_6140" data-name="Trazado 6140" d="M585.617,6950.777a1.749,1.749,0,0,0-1.222-1.182l-12.611-3.382,1.223-1.4a6.43,6.43,0,0,0,.838-7.241,12.251,12.251,0,1,0-3.814-23.912,12.252,12.252,0,1,0-24.208-.619,6.43,6.43,0,0,0-7.066,1.788l-12.3,14.051a6.428,6.428,0,0,0,.6,9.059l24.59,21.527a6.428,6.428,0,0,0,9.058-.6l1.223-1.4,5.02,12.053a1.763,1.763,0,0,0,.463.644,1.752,1.752,0,0,0,2.471-.164l15.376-17.564a1.754,1.754,0,0,0,.358-1.662Zm-6.07-32.037a8.754,8.754,0,1,1-12.353.821A8.765,8.765,0,0,1,579.547,6918.74Zm-17.979,7.53-2.915-2.552a12.309,12.309,0,0,0,3.07-.566A12.352,12.352,0,0,0,561.568,6926.27Zm-10.182-20.548a8.754,8.754,0,1,1,.821,12.353A8.764,8.764,0,0,1,551.386,6905.722Zm6.686,50.838a2.921,2.921,0,0,1-4.118.274l-24.59-21.527a2.921,2.921,0,0,1-.273-4.117l12.3-14.051a2.92,2.92,0,0,1,4.117-.274l24.59,21.527a2.921,2.921,0,0,1,.274,4.117l-3.076,3.513-6.15,7.026Zm11.028,9.021-4.6-11.047,4.715-5.385,11.558,3.1Z" fill="#160c0f"/>
      <path id="Trazado_6141" data-name="Trazado 6141" d="M554.513,6915.44a5.253,5.253,0,1,0-.492-7.412A5.259,5.259,0,0,0,554.513,6915.44Zm4.613-5.269a1.75,1.75,0,1,1-2.47.164A1.752,1.752,0,0,1,559.126,6910.171Z" fill="#160c0f"/>
      <path id="Trazado_6142" data-name="Trazado 6142" d="M570.321,6929.279a5.252,5.252,0,1,0-.492-7.412A5.258,5.258,0,0,0,570.321,6929.279Zm4.613-5.27a1.751,1.751,0,1,1-2.471.164A1.754,1.754,0,0,1,574.934,6924.009Z" fill="#160c0f"/>
      <path id="Trazado_6143" data-name="Trazado 6143" d="M566.036,6939.489l-9.66-8.457a1.749,1.749,0,0,0-2.47.164l-6.92,7.9a1.75,1.75,0,0,0,.164,2.47l9.661,8.457a1.749,1.749,0,0,0,2.47-.164l6.919-7.9A1.75,1.75,0,0,0,566.036,6939.489Zm-8.236,6.75-7.026-6.15,4.613-5.269,7.026,6.15Z" fill="#160c0f"/>
      <path id="Trazado_6144" data-name="Trazado 6144" d="M541.881,6936.957l-6.147-5.381a1.751,1.751,0,1,0-2.307,2.634l6.148,5.382a1.751,1.751,0,1,0,2.306-2.635Z" fill="#160c0f"/>
      <path id="Trazado_6145" data-name="Trazado 6145" d="M546.494,6931.688l-6.147-5.382a1.751,1.751,0,0,0-2.307,2.635l6.148,5.382a1.751,1.751,0,0,0,2.306-2.635Z" fill="#160c0f"/>
    </g>
    <g id="Grupo_3823" data-name="Grupo 3823" transform="translate(-1289 -151)" opacity="0.9">
      <path id="Trazado_6146" data-name="Trazado 6146" d="M675.969,6921.224a1.748,1.748,0,0,0,.055-1.7l-5.969-11.612,1.857-.033a6.429,6.429,0,0,0,5.925-4.244,23.25,23.25,0,1,0-.661-37.237,6.429,6.429,0,0,0-6.072-4.032l-18.672.331a6.427,6.427,0,0,0-6.3,6.533l.579,32.676a6.427,6.427,0,0,0,6.533,6.3l1.856-.033L649.543,6920a1.751,1.751,0,0,0,1.615,2.5l23.34-.414a1.75,1.75,0,0,0,1.471-.852Zm19.649-26.022a8.754,8.754,0,1,1-8.908-8.6A8.765,8.765,0,0,1,695.618,6895.2Zm-17.657-8.255-.069-3.874a1.99,1.99,0,1,1,.069,3.874Zm8.376-21.348a8.754,8.754,0,1,1-8.6,8.908A8.765,8.765,0,0,1,686.337,6865.6Zm-33.159,39.111a2.921,2.921,0,0,1-2.97-2.865l-.579-32.676a2.921,2.921,0,0,1,2.866-2.97l18.671-.331a2.922,2.922,0,0,1,2.97,2.866l.579,32.676a2.92,2.92,0,0,1-2.866,2.969l-4.668.083-9.335.165Zm.73,14.229,5.089-10.83,7.157-.127,5.47,10.643Z" fill="#160c0f"/>
      <path id="Trazado_6147" data-name="Trazado 6147" d="M681.241,6874.445a5.252,5.252,0,1,0,5.158-5.345A5.259,5.259,0,0,0,681.241,6874.445Zm7-.124a1.751,1.751,0,1,1-1.781-1.72A1.752,1.752,0,0,1,688.243,6874.321Z" fill="#160c0f"/>
      <path id="Trazado_6148" data-name="Trazado 6148" d="M681.614,6895.451a5.252,5.252,0,1,0,5.158-5.345A5.258,5.258,0,0,0,681.614,6895.451Zm7-.125a1.751,1.751,0,1,1-1.782-1.719A1.753,1.753,0,0,1,688.616,6895.326Z" fill="#160c0f"/>
      <path id="Trazado_6149" data-name="Trazado 6149" d="M671.173,6899.138l-.228-12.837a1.75,1.75,0,0,0-1.781-1.719l-10.5.186a1.751,1.751,0,0,0-1.72,1.781l.228,12.837a1.751,1.751,0,0,0,1.781,1.72l10.5-.187A1.75,1.75,0,0,0,671.173,6899.138Zm-10.534-1.564-.166-9.336,7-.124.166,9.336Z" fill="#160c0f"/>
      <path id="Trazado_6150" data-name="Trazado 6150" d="M656.817,6879.547l-.145-8.169a1.751,1.751,0,0,0-3.5.063l.145,8.169a1.751,1.751,0,1,0,3.5-.063Z" fill="#160c0f"/>
      <path id="Trazado_6151" data-name="Trazado 6151" d="M663.819,6879.423l-.145-8.169a1.751,1.751,0,0,0-3.5.062l.145,8.169a1.751,1.751,0,1,0,3.5-.062Z" fill="#160c0f"/>
    </g>
    <g id="Grupo_3824" data-name="Grupo 3824" transform="translate(-1289 -151)">
      <path id="Trazado_6155" data-name="Trazado 6155" d="M527.244,6911.489a6.513,6.513,0,1,1-6.512-6.514A6.511,6.511,0,0,1,527.244,6911.489Z" fill="#4d4d4d"/>
      <path id="Trazado_6156" data-name="Trazado 6156" d="M525.36,6911.49a4.632,4.632,0,1,1-4.626-4.63A4.627,4.627,0,0,1,525.36,6911.49Z" fill="#fff"/>
      <path id="Trazado_6157" data-name="Trazado 6157" d="M524.347,6911.489a3.619,3.619,0,1,1-3.615-3.617A3.615,3.615,0,0,1,524.347,6911.489Z" fill="#a01127"/>
    </g>
    <g id="Grupo_3825" data-name="Grupo 3825" transform="translate(-1289 -151)">
      <path id="Trazado_6158" data-name="Trazado 6158" d="M478.594,7042.072a6.512,6.512,0,1,1-6.511-6.515A6.51,6.51,0,0,1,478.594,7042.072Z" fill="#4d4d4d"/>
      <path id="Trazado_6159" data-name="Trazado 6159" d="M476.711,7042.072a4.632,4.632,0,1,1-4.627-4.63A4.628,4.628,0,0,1,476.711,7042.072Z" fill="#fff"/>
      <path id="Trazado_6160" data-name="Trazado 6160" d="M475.7,7042.072a3.618,3.618,0,1,1-3.615-3.618A3.615,3.615,0,0,1,475.7,7042.072Z" fill="#a01127"/>
    </g>
    <g id="Grupo_3826" data-name="Grupo 3826" transform="translate(-1289 -151)">
      <path id="Trazado_6161" data-name="Trazado 6161" d="M640.407,7241.969a6.512,6.512,0,1,1-6.511-6.514A6.51,6.51,0,0,1,640.407,7241.969Z" fill="#4d4d4d"/>
      <path id="Trazado_6162" data-name="Trazado 6162" d="M638.524,7241.97a4.632,4.632,0,1,1-4.627-4.631A4.627,4.627,0,0,1,638.524,7241.97Z" fill="#fff"/>
      <path id="Trazado_6163" data-name="Trazado 6163" d="M637.511,7241.969a3.618,3.618,0,1,1-3.615-3.617A3.615,3.615,0,0,1,637.511,7241.969Z" fill="#a01127"/>
    </g>
    <g id="Grupo_3827" data-name="Grupo 3827" transform="translate(-1289 -151)">
      <path id="Trazado_6164" data-name="Trazado 6164" d="M512.654,7160.631a6.512,6.512,0,1,1-6.511-6.514A6.51,6.51,0,0,1,512.654,7160.631Z" fill="#4d4d4d"/>
      <path id="Trazado_6165" data-name="Trazado 6165" d="M510.771,7160.631a4.632,4.632,0,1,1-4.627-4.63A4.627,4.627,0,0,1,510.771,7160.631Z" fill="#fff"/>
      <path id="Trazado_6166" data-name="Trazado 6166" d="M509.758,7160.631a3.618,3.618,0,1,1-3.615-3.618A3.616,3.616,0,0,1,509.758,7160.631Z" fill="#a01127"/>
    </g>
    <path id="Trazado_6445" data-name="Trazado 6445" d="M862.89,7094.1l-4.951-4.951a1.628,1.628,0,0,0-2.3,0l-.616.615a1.63,1.63,0,0,0,0,2.3l2.413,2.413a8.319,8.319,0,0,1,.03,1.588l-2.443,2.443a1.629,1.629,0,0,0,0,2.3l.616.616a1.628,1.628,0,0,0,2.3,0l4.951-4.951a1.723,1.723,0,0,0,0-2.378Z" transform="translate(-1289 -125)" fill="#dd474d"/>
  </g>
</svg>
