<svg xmlns="http://www.w3.org/2000/svg" width="401.515" height="333.684" viewBox="0 0 401.515 333.684">
  <g id="Grupo_612" data-name="Grupo 612" transform="translate(-2612.105 -56.467)">
    <path id="Trazado_1128" data-name="Trazado 1128" d="M2673.926,254l.846-4.936-3.586-3.5,4.956-.719,2.216-4.492,2.218,4.492,4.956.719-3.586,3.5.846,4.936-4.434-2.33Zm275.465-8.433-4.957-.719-2.217-4.492L2940,244.847l-4.956.719,3.586,3.5-.846,4.936,4.432-2.33,4.433,2.33-.846-4.936Zm-272.584-27.093,4.885-1.1,3.679,3.4.46-4.987,4.369-2.449-4.6-1.978-.979-4.912-3.3,3.765-4.975-.588,2.56,4.3Zm22.638-43.169-4.165,2.782-4.653-1.855,1.358,4.821-3.2,3.852,5,.2,2.674,4.235,1.736-4.7,4.853-1.234-3.932-3.1Zm22.379-26.24-4.743,1.61-4.014-3,.063,5.008-4.089,2.892,4.783,1.486,1.487,4.784,2.892-4.089,5.008.064-3-4.015Zm23.41-19.226-3.1-3.933-1.234,4.855-4.7,1.735,4.235,2.673.2,5.005,3.852-3.2,4.821,1.358-1.855-4.653,2.781-4.166Zm25.466-4.047,4.549-2.1,4.306,2.559-.588-4.974,3.765-3.3L2777.82,117l-1.979-4.6-2.448,4.37-4.988.46,3.4,3.678Zm75.411,249.947-1.978-4.6-2.449,4.369-4.987.46,3.4,3.678-1.1,4.886,4.549-2.1,4.3,2.559-.587-4.974,3.765-3.3ZM2811.9,108.075l-3.5,3.586-4.936-.846,2.331,4.432-2.331,4.434,4.936-.847,3.5,3.587.72-4.957,4.491-2.217-4.491-2.216Zm0,267.729-3.5,3.587-4.936-.847,2.331,4.433-2.331,4.434,4.936-.847,3.5,3.587.72-4.957,4.491-2.217-4.491-2.216Zm35.947-262.573-4.3,2.559-4.549-2.094,1.1,4.884-3.4,3.679,4.987.46,2.449,4.37,1.978-4.6,4.913-.979-3.765-3.3ZM2779.555,371.97l-4.306,2.56-4.549-2.1,1.1,4.885-3.4,3.68,4.988.46,2.448,4.369,1.979-4.6,4.912-.979-3.765-3.3Zm101.679-244.454-4.821,1.358-3.852-3.2-.2,5.005-4.235,2.674,4.7,1.735,1.235,4.854,3.1-3.933,5,.326-2.782-4.164Zm20.653,18.414-1.486,4.783-4.784,1.486,4.089,2.892-.063,5.009,4.014-3,4.744,1.609-1.609-4.743,3-4.014-5.008.063Zm17.248,40.264,4.653-1.855,4.166,2.781-.327-5,3.933-3.1-4.855-1.234-1.734-4.7-2.674,4.234-5.005.2,3.2,3.852Zm12.075,30.249,4.975-.587,3.3,3.765.978-4.913,4.6-1.978-4.369-2.449-.461-4.987-3.678,3.4-4.885-1.1,2.094,4.549Z" fill="#db9600" opacity="0.8"/>
    <g id="Grupo_555" data-name="Grupo 555" opacity="0.7">
      <path id="Trazado_1129" data-name="Trazado 1129" d="M2891.457,165.917a114.923,114.923,0,1,0,0,162.52A114.932,114.932,0,0,0,2891.457,165.917Zm-81.265,190.749A109.489,109.489,0,1,1,2919.68,247.177,109.614,109.614,0,0,1,2810.192,356.666Z" fill="#f2e7cb"/>
      <path id="Trazado_1130" data-name="Trazado 1130" d="M2810.192,140.49a106.687,106.687,0,1,0,106.686,106.687A106.807,106.807,0,0,0,2810.192,140.49Zm41.838,31.848c3.778-5.76,10.458-6.314,15.951-.813l17.858,17.858c3.536,3.536,4.57,7.558,3.327,10.983-.045.124-.111.242-.162.364-.1.252-.2.507-.335.752a12.006,12.006,0,0,1-6.422,5.284l-35.632,16.665c-8.255,3.274-15.351-3.821-12.076-12.077l16.059-36.228A15.446,15.446,0,0,1,2852.03,172.338Zm-63.99-15.161c1.768-2.687,5.088-4.355,9.532-4.355h25.252c8.886,0,13.27,6.669,9.747,14.831l-13.414,36.969a12.1,12.1,0,0,1-.735,1.436c-4.017,6.7-13.039,6.22-16.34-1.433l-14.268-36.969C2786.052,163.574,2786.27,159.865,2788.04,157.177ZM2732.558,191.8a15.4,15.4,0,0,1,1.99-2.419l17.858-17.858c6.277-6.277,14.106-4.665,17.381,3.6l16.655,35.623a9.825,9.825,0,0,1-.2,8.317c-2,3.807-6.709,5.809-11.869,3.761l-36.237-16.058C2730.913,203.9,2728.77,197.554,2732.558,191.8Zm-16.722,68V234.551a12.721,12.721,0,0,1,1.8-6.912c2.52-3.949,7.43-5.266,13.041-2.839l36.97,13.407c5.606,2.422,7.357,7.924,5.254,12.271a10.135,10.135,0,0,1-5.255,4.814l-36.97,14.259C2722.513,273.073,2715.836,268.69,2715.836,259.8Zm53.284,60.9c-3.581,6.963-10.823,8.012-16.715,2.119l-17.859-17.85c-3.536-3.536-4.57-7.558-3.326-10.984.965-2.663,3.307-4.966,6.919-6.4l35.63-16.664c8.264-3.275,15.351,3.812,12.077,12.076l-16.059,36.228Q2769.479,320,2769.12,320.7Zm63.229,16.472c-1.767,2.688-5.084,4.358-9.528,4.358H2797.57c-8.887,0-13.279-6.678-9.756-14.83l9.716-26.777,3.7-10.2c3.523-8.162,13.551-8.162,17.074-.009l14.267,36.978C2834.333,330.773,2834.117,334.482,2832.349,337.171Zm56.74-37.109c-.007.019-.019.039-.026.058a10.936,10.936,0,0,1-.515,1.189,14.419,14.419,0,0,1-2.712,3.659l-17.857,17.85c-6.278,6.286-14.1,4.674-17.381-3.59L2833.943,283.6a9.831,9.831,0,0,1,.2-8.313c2-3.808,6.709-5.813,11.874-3.766l36.228,16.058C2888.441,290.039,2890.9,295.056,2889.089,300.062Zm10.423-15.338a1.706,1.706,0,0,1-1.574,1.044,1.681,1.681,0,0,1-.66-.133l-67.557-28.4c-.014-.007-.026-.016-.039-.022a22.015,22.015,0,0,1-9.656,9.554.335.335,0,0,1,.02.04l27.689,67.853a1.7,1.7,0,0,1-.935,2.223,1.685,1.685,0,0,1-.643.127,1.7,1.7,0,0,1-1.58-1.061L2816.888,268.1c0-.015-.006-.029-.012-.043a22.022,22.022,0,0,1-13.585-.072.428.428,0,0,1-.013.044l-28.4,67.557a1.705,1.705,0,1,1-3.144-1.321l28.4-67.557c.007-.015.015-.027.021-.04a22.007,22.007,0,0,1-9.553-9.656c-.016.007-.027.015-.041.021l-67.852,27.689a1.683,1.683,0,0,1-.644.127,1.706,1.706,0,0,1-.645-3.285l67.852-27.689c.014-.006.028-.007.042-.013a22.005,22.005,0,0,1,.073-13.583c-.015-.006-.03-.008-.045-.013l-67.557-28.4a1.705,1.705,0,1,1,1.322-3.144l67.558,28.4c.015.006.027.016.04.022a22.03,22.03,0,0,1,9.659-9.554c-.007-.015-.018-.027-.025-.042l-27.688-67.851a1.706,1.706,0,1,1,3.158-1.289l27.688,67.851c.007.015.008.031.015.047a22.023,22.023,0,0,1,13.582.071c0-.016.007-.032.013-.046l28.4-67.558a1.705,1.705,0,1,1,3.144,1.322l-28.4,67.556c-.007.016-.018.027-.025.042a22.025,22.025,0,0,1,9.558,9.656.428.428,0,0,1,.041-.021l67.851-27.689a1.705,1.705,0,1,1,1.289,3.158l-67.85,27.688c-.014.005-.03.008-.043.014a22.032,22.032,0,0,1-.073,13.584.189.189,0,0,1,.044.013l67.558,28.4A1.707,1.707,0,0,1,2899.512,284.724Zm2.5-17.005c-2.673,3.146-7.193,4.034-12.289,1.832l-36.98-13.415c-5.6-2.422-7.356-7.921-5.252-12.265a10.127,10.127,0,0,1,5.255-4.811l36.978-14.26c8.153-3.53,14.831.862,14.831,9.748V259.8A12.008,12.008,0,0,1,2902.007,267.719Z" fill="#f2e7cb"/>
      <path id="Trazado_1131" data-name="Trazado 1131" d="M2810.192,228.674a18.507,18.507,0,1,0,13.086,5.421A18.38,18.38,0,0,0,2810.192,228.674Zm5.27,23.769a7.45,7.45,0,1,1,0-10.532A7.457,7.457,0,0,1,2815.462,252.443Z" fill="#f2e7cb"/>
    </g>
    <g id="Grupo_602" data-name="Grupo 602">
      <path id="Trazado_1132" data-name="Trazado 1132" d="M3013.62,56.467c-12.551,24.662-53.444,29.112-64.767,36.481-13.114,8.541-18.1,18.359-16.589,35.918s-5.431,36.118-54.031,33.963-36.163,30.137-36.163,30.137l-25.679-8.308c-7.1-17.9-13.726-28.284-42.249-24.993s-44.623-7.071-46.277-30.8-14.48-18.967-68.4-29.116c-35.182-6.622-41.766-28.721-42.088-43.283Z" fill="#fff" opacity="0.2"/>
      <path id="Trazado_1133" data-name="Trazado 1133" d="M2977.1,56.467c-10.237,23.355-43.594,27.569-52.83,34.547-10.7,8.087-14.768,17.385-13.531,34.013s-4.43,34.2-44.073,32.162-29.5,28.539-29.5,28.539l-20.947-7.868c-5.787-16.948-11.2-26.784-34.462-23.668s-36.4-6.7-37.748-29.165-11.811-17.962-55.8-27.572c-28.7-6.271-34.068-27.2-34.331-40.988Z" fill="#dda6ab"/>
      <g id="Grupo_557" data-name="Grupo 557">
        <path id="Trazado_1134" data-name="Trazado 1134" d="M2822.8,121.5a20.709,20.709,0,0,1-41.411.506c0-.168-.006-.337-.006-.506a20.709,20.709,0,0,1,41.323-1.974Q2822.8,120.5,2822.8,121.5Z" fill="#fec0bf"/>
        <g id="Grupo_556" data-name="Grupo 556">
          <path id="Trazado_1135" data-name="Trazado 1135" d="M2804.137,116.805l-.765,1.122-1.479,1.275a10.73,10.73,0,0,1-.412,2.295c-.2.153.769,1.275.769,1.275l.546,1.377,1.648.2,1.938-.51,2.142.153.867.357-.816,1.531,1.377,2.091-.765,2.3.561,2.142.714,1.887s-.306.918,0,.918h1.53l3.01-2.244v-2.55s1.785-2.142,1.887-2.295.714-2.449.714-2.449l1.632-1.887-.765-1.224-1.275-.357L2815.1,119.2l-.715-1.785-1.938-.612-1.479.816-.816-.816-.816-.765-.408-.663-2.295.714-1.53-.1Z" fill="#ffa5a1"/>
          <path id="Trazado_1136" data-name="Trazado 1136" d="M2788.989,123.435l-1.377,1.862.688,3.392,1.352,1.071,1.836,1.479.714,2.652,2.194,3.162a12.247,12.247,0,0,0,1.173,2.3,14.074,14.074,0,0,1,1.428,1.122l2.04-.2V139.6s-1.581-1.632-1.683-1.836a14.2,14.2,0,0,1,0-2.551c.051-.255,1.326-2.448,1.326-2.448l-.357-1.581a10.88,10.88,0,0,0,1.122-1.785,13.827,13.827,0,0,0-.255-1.377l-.306-1.924-2.6-.805-1.938.229-.817-1.224-2.142-.255Z" fill="#ffa5a1"/>
          <path id="Trazado_1137" data-name="Trazado 1137" d="M2820.1,118.488l-.867.408,1.479,1.428-1.479,1.377h-1.326l-1.071-2.193-1.377-1.224-1.072-.867,1.734-1.581-1.734-.459-.867-.664a4.74,4.74,0,0,0-1.887.358c-.561.357-1.291-.561-1.291-.561l-1.719-.766-.918.2-1.172,1.174h-1.479l-.612.714-1.327-.97,1.123-1.122h1.836l.357-.561-.663-.2-.052-.561.868-.306-.918-.816-.715.2h-.969v-.51l1.531-.918,1.377,1.428h.509l.715-.663.714.2,1.275.459,1.224-.254a14.2,14.2,0,0,0,1.48-1.53c0-.153-.715-.511-.715-.511h-.867c-.153,0,.408-1.275.408-1.275l-1.291.663a3.521,3.521,0,0,1,0,1.123,3.068,3.068,0,0,1-.7.56s-1.174-.866-1.327-.713-.713,0-.713,0l-.459-.868,1.224-.306.612-.918,2.193-1.377a6.025,6.025,0,0,1,1.377.356,3.894,3.894,0,0,0,1.071.306l-.765.817.715.816h1.275l2.039-.816.306-.244a20.627,20.627,0,0,1,5.513,12.195l-.616-.221Z" fill="#ffa5a1"/>
          <path id="Trazado_1138" data-name="Trazado 1138" d="M2792.458,114.51c0,.306-.817,1.326-.817,1.326l-1.275.612-1.479,1.428-.255,2.5-.358,1.326h-1.121l-.562-1.02-1.071-.306-1.019.97.153,1.019a7.59,7.59,0,0,1,1.325,1.071c.052.205.306.817.306.817l1.327.662v.715l-2.7-1.429-2.855-.765L2781.39,122c0-.168-.006-.337-.006-.506a20.61,20.61,0,0,1,3.893-12.088l.142-.1,1.2.969v.97l-.688.612-1.224.407v.459l1.326-.153,1.019-.51,1.071-.815h.868l-.715.662-1.224,1.327-.815,1.122.382.815.739-.356.052.561.51.663.714-1.377.307-1.378,1.121-.662.663.306H2792A10.416,10.416,0,0,1,2792.458,114.51Z" fill="#ffa5a1"/>
          <path id="Trazado_1139" data-name="Trazado 1139" d="M2791.386,107.93h1.071v.969l.561.408.2,2.4h.969l.714-1.428,1.53-1.836,1.122-.765,1.887-1.377.255-1.785,1.224-1.428-1.122-.408-.969.357-2.678,1.275-1.556.459-1.683.867-2.754.765-1.377.791v1.2l-1.173.918,1.377.2.918-.765.816-.918Z" fill="#ffa5a1"/>
        </g>
      </g>
      <path id="Trazado_1140" data-name="Trazado 1140" d="M2774.184,146.4l0-.012.009-.025.036-.1.008-.024c.012-.035.023-.068.034-.1l.008-.024v0l.009-.027.019-.063,0-.012,0-.011.018-.064.008-.027v0l.007-.024c.01-.035.019-.069.027-.1l.007-.025c.008-.035.016-.069.024-.1l.006-.026,0-.013.656-.057.492-.042a3.856,3.856,0,0,0,.09-.565,3.949,3.949,0,0,0,.007-.573l-.478-.125-.637-.166v-.034c0-.035-.005-.071-.007-.107l0-.026c0-.035-.006-.071-.009-.107l0-.023-.005-.047,0-.048,0-.022c0-.036-.009-.071-.014-.107l0-.025c-.005-.036-.011-.071-.016-.107l0-.025,0-.008.588-.295.441-.223a3.793,3.793,0,0,0-.126-.558,3.957,3.957,0,0,0-.206-.535l-.491.062-.652.082-.006-.012-.011-.024c-.015-.032-.03-.065-.046-.1l-.011-.023c-.016-.032-.032-.064-.049-.1l-.012-.023v0l-.013-.025-.031-.058-.005-.011-.007-.01-.013-.025-.018-.033-.014-.025h0l-.013-.023-.054-.093-.014-.022-.056-.091-.014-.022-.007-.012.424-.5.318-.377a4.024,4.024,0,0,0-.337-.463,3.69,3.69,0,0,0-.4-.41l-.425.249-.569.333-.005,0-.02-.018-.08-.071-.02-.016-.082-.07-.018-.014-.036-.031-.038-.03-.017-.013-.086-.067-.02-.015-.087-.064-.021-.015-.006-.005.207-.624.154-.469a3.9,3.9,0,0,0-1.008-.538l-.3.391-.4.519-.013,0-.024-.008-.1-.037-.024-.007-.1-.035-.024-.007h0l-.027-.009-.064-.019-.011,0-.011,0-.064-.019-.028-.007h0l-.024-.007-.1-.027-.026-.006-.1-.025-.025-.006-.013,0-.057-.656-.042-.491a3.93,3.93,0,0,0-1.138-.1l-.125.477-.166.637h-.034l-.107.007h-.026l-.108.01-.022,0-.047,0-.048.005-.022,0-.108.013-.024,0-.108.017-.024,0h-.008l-.3-.587-.223-.442a3.9,3.9,0,0,0-1.093.333l.062.49.082.652-.013.007-.023.01-.1.046-.023.011-.1.049-.022.012h0l-.025.013-.059.031-.009.006h0l-.011.006-.057.031-.025.015h0l-.022.012-.093.055-.022.013c-.031.018-.061.037-.091.056l-.022.014-.012.007-.5-.424-.377-.317a3.808,3.808,0,0,0-.464.336,3.76,3.76,0,0,0-.409.4l.248.425.333.569,0,.006-.016.018q-.037.041-.072.081l-.017.019-.07.084-.014.017-.03.037-.03.037-.013.017-.067.086-.015.02-.065.087-.014.021,0,.006-.624-.207-.47-.154a3.95,3.95,0,0,0-.537,1.008l.39.3.52.4-.005.013-.009.025-.036.1-.008.025c-.012.034-.023.068-.034.1l-.008.025h0l-.009.028-.019.063,0,.011,0,.012-.018.063-.008.028v0l-.007.024q-.015.052-.027.1l-.007.024-.024.1-.006.025,0,.014-.657.056-.491.042a3.931,3.931,0,0,0-.1,1.139l.478.124.637.167v.007l0,.026.006.108,0,.025.009.108,0,.022,0,.048.005.047,0,.022c0,.036.009.072.014.108l0,.024c0,.036.011.072.016.108l0,.025v.007l-.587.3-.442.222a3.841,3.841,0,0,0,.127.559,3.912,3.912,0,0,0,.206.534l.491-.062.652-.082.006.013.011.023c.015.033.03.065.046.1l.011.023c.016.033.032.065.049.1l.011.022v0l.014.026.031.058,0,.01.006.011.014.025.018.033.014.024v0l.012.021c.019.031.037.063.055.094l.013.021.057.092.013.021.008.012-.424.5-.318.377a3.809,3.809,0,0,0,.336.464,3.968,3.968,0,0,0,.4.41l.426-.249.569-.333.005.005.019.017.081.071.019.017.083.07.017.014.037.03.038.03.017.014.086.067.02.014c.028.022.057.044.087.065l.02.015.006,0-.206.624-.155.47a3.745,3.745,0,0,0,.485.3,3.838,3.838,0,0,0,.523.232l.3-.39.4-.519.013,0,.025.01.1.035.025.009.1.033.025.008h0l.028.008.063.019.011,0,.012,0,.063.019.028.007h0l.024.006.1.028.024.006.1.025.025,0,.014,0,.056.656.042.491a3.939,3.939,0,0,0,1.138.1l.125-.477.167-.638h.033l.107-.007.026,0c.036,0,.072-.005.108-.009l.022,0,.047,0,.048-.005.022,0,.108-.013.025,0,.106-.016.026,0h.007l.3.587.222.442a3.958,3.958,0,0,0,1.093-.333l-.062-.491-.082-.652.012-.006.025-.011.1-.045.024-.012.1-.048.024-.013h0l.027-.014.057-.03.011-.006.01-.006.058-.032.025-.014h0l.022-.013c.031-.017.063-.036.093-.054l.022-.013.092-.057.021-.013.012-.008.5.424.377.318a3.824,3.824,0,0,0,.464-.336,3.988,3.988,0,0,0,.41-.4l-.249-.426-.333-.568,0-.006.018-.019.071-.081.017-.019c.024-.028.047-.055.069-.083l.015-.017.03-.037.03-.037.014-.018.066-.085.016-.021c.021-.028.043-.057.063-.086l.016-.021,0-.006.624.206.47.155a3.929,3.929,0,0,0,.537-1.008l-.39-.3Zm-2.679-.558a3.174,3.174,0,1,1-.023-3.028A3.172,3.172,0,0,1,2771.5,145.844Z" fill="#716e8f"/>
      <path id="Trazado_1141" data-name="Trazado 1141" d="M2781.15,67.084l.005-.012.009-.025.036-.1.008-.024c.012-.034.023-.068.034-.1l.008-.024v0l.009-.027.019-.063,0-.012,0-.011.018-.063.008-.028v0l.007-.025.027-.1.006-.025c.009-.035.017-.069.025-.1l.006-.025,0-.014.656-.057.491-.042a3.992,3.992,0,0,0,.091-.565,3.78,3.78,0,0,0,.006-.573l-.477-.125-.637-.166v-.007l0-.027c0-.035,0-.071-.007-.107V64.6c0-.035-.006-.071-.01-.107l0-.022,0-.048-.006-.048,0-.022c0-.036-.009-.071-.014-.107l0-.025c-.005-.036-.011-.071-.016-.107l0-.025,0-.008.588-.295.441-.223a3.9,3.9,0,0,0-.333-1.093l-.49.062-.652.082-.006-.012-.011-.024-.046-.1-.012-.023c-.015-.032-.031-.064-.048-.1l-.012-.023v0l-.013-.025-.031-.058-.006-.01-.006-.011-.013-.025-.018-.033-.014-.025h0l-.012-.023c-.018-.031-.036-.062-.055-.092l-.013-.023-.056-.091-.014-.022-.007-.012.424-.5.317-.377a3.877,3.877,0,0,0-.336-.463,3.777,3.777,0,0,0-.4-.41l-.425.249-.569.333-.005-.005-.02-.018-.08-.071-.02-.016-.082-.07-.018-.014-.036-.031-.038-.03-.017-.013-.086-.067-.02-.015-.087-.064-.021-.015-.006,0,.206-.624.155-.469a3.906,3.906,0,0,0-1.008-.538l-.3.391-.4.519-.013,0-.024-.009-.1-.036-.023-.008c-.034-.012-.069-.024-.1-.034l-.024-.008h0l-.028-.008-.063-.02-.012,0-.011,0-.063-.019-.028-.007h0l-.024-.007-.1-.027-.025-.006-.1-.025-.025-.006-.014,0-.056-.656-.042-.491a3.942,3.942,0,0,0-1.138-.1l-.125.477-.167.637h-.033l-.107.007h-.026l-.108.01-.022,0-.047.005-.048.005-.022,0-.108.013-.025,0-.107.017-.025,0h-.007l-.3-.587-.222-.442a3.87,3.87,0,0,0-1.093.333l.062.49.082.652-.013.007-.023.01-.1.046-.023.012-.1.048-.022.012h0l-.026.013-.058.031-.009.006h0l-.011.006-.057.032-.025.014h0l-.022.012-.093.055-.022.013c-.031.018-.061.037-.091.056l-.022.014-.012.007-.5-.424-.377-.317a3.823,3.823,0,0,0-.464.336,3.886,3.886,0,0,0-.41.4l.249.425.333.569,0,.006-.017.018c-.024.027-.048.054-.071.082l-.017.018-.07.084-.014.017-.03.037-.03.037-.014.017-.066.086-.015.02-.065.087-.014.021,0,.006-.624-.206-.47-.155a3.736,3.736,0,0,0-.305.484,3.875,3.875,0,0,0-.232.524l.39.3.519.4,0,.013-.009.025c-.013.033-.024.067-.036.1l-.008.025c-.012.034-.023.068-.034.1l-.008.025h0l-.008.028-.019.063,0,.011,0,.012-.018.063-.008.028v0l-.006.024c-.01.035-.019.07-.028.1l-.006.024c-.008.035-.017.07-.025.1l-.005.025,0,.014-.657.056-.491.042a3.891,3.891,0,0,0-.09.566,3.945,3.945,0,0,0-.007.573l.478.124.637.167v.033c0,.036,0,.072.007.108l0,.025c0,.036.006.072.009.108l0,.022.005.048,0,.048,0,.021c0,.036.009.072.013.108l0,.024c.005.036.01.072.016.108l0,.025v.007l-.587.3-.442.222a3.966,3.966,0,0,0,.333,1.093l.491-.062.652-.082.006.013.011.023c.015.033.03.065.046.1l.011.023.048.1.012.022v0l.014.026.031.058.005.01.006.011.014.025.018.033.014.024v0l.012.021c.019.031.037.063.055.094l.013.021c.019.031.037.061.057.092l.013.021.008.012-.424.5-.318.377a3.832,3.832,0,0,0,.336.464,3.97,3.97,0,0,0,.4.41l.426-.249.568-.333.006,0,.019.017c.027.024.053.048.081.071l.019.017.083.07.017.014.037.031.038.029.016.014.087.067.019.014c.029.023.058.044.088.065l.02.015.006,0-.206.624-.155.47a3.918,3.918,0,0,0,.484.306,4.03,4.03,0,0,0,.524.231l.3-.39.4-.519.013,0,.025.01.1.035.025.009.1.033.025.008h0l.028.008.063.019.01,0,.012,0,.064.019.027.007h0l.023.006.106.028.023.006.106.025.024.005.014,0,.057.656.042.491a3.941,3.941,0,0,0,1.138.1l.125-.477.166-.638h.034l.107-.007.026,0c.036,0,.072,0,.107-.009l.023,0,.047-.005.048,0,.022,0,.107-.013.026,0,.106-.016.026,0h.007l.3.587.222.442a3.958,3.958,0,0,0,1.093-.333l-.062-.491-.082-.652.012-.006.025-.011.1-.045.024-.012.095-.048.023-.012h0l.026-.013.058-.031.011-.006.01-.006.058-.032.025-.014h0l.022-.013.093-.054.022-.013.091-.057.022-.013.012-.008.5.424.377.318a3.822,3.822,0,0,0,.464-.336,3.96,3.96,0,0,0,.41-.4l-.25-.426-.333-.568,0-.006.018-.019.071-.081.017-.019.069-.082.014-.018.031-.037.03-.037.013-.018c.023-.028.045-.057.067-.085l.015-.021c.022-.028.043-.057.064-.086l.016-.021,0-.006.624.206.47.155a3.949,3.949,0,0,0,.537-1.008l-.391-.3Zm-2.679-.558a3.173,3.173,0,1,1-.023-3.028A3.173,3.173,0,0,1,2778.471,66.526Z" fill="#716e8f"/>
      <path id="Trazado_1142" data-name="Trazado 1142" d="M2941.349,72.452l0-.013.009-.025c.013-.033.025-.067.036-.1l.009-.024c.011-.034.023-.068.033-.1l.008-.025h0l.008-.028.019-.063,0-.012,0-.011.019-.063.007-.028v0l.006-.024c.01-.035.019-.07.028-.105l.006-.025c.009-.034.017-.069.025-.1l.005-.025,0-.014.656-.056.491-.042a3.928,3.928,0,0,0,.1-1.138l-.477-.125-.638-.167V70.1c0-.036,0-.072-.007-.107l0-.026q0-.054-.009-.108l0-.022,0-.047-.005-.048,0-.022c0-.036-.008-.072-.013-.108l0-.025c-.005-.036-.01-.071-.016-.107l0-.025v-.007l.587-.3.442-.223a3.829,3.829,0,0,0-.127-.558,3.789,3.789,0,0,0-.206-.534l-.491.061-.652.083-.006-.013-.011-.024c-.015-.032-.03-.064-.046-.1l-.011-.024-.048-.1-.012-.023h0l-.013-.025-.031-.059-.006-.01L2941,67.6l-.014-.025-.018-.032-.014-.026h0l-.013-.022c-.017-.031-.035-.063-.054-.093l-.013-.022-.056-.091-.014-.023-.008-.011.424-.5.318-.378a3.9,3.9,0,0,0-.336-.463,3.969,3.969,0,0,0-.4-.41l-.426.249-.568.333-.006,0-.019-.017-.081-.071-.019-.017-.083-.07-.017-.014-.037-.03-.037-.03-.018-.014-.086-.066-.02-.016-.086-.064-.021-.015-.006,0,.206-.624.155-.47a3.742,3.742,0,0,0-.485-.305,3.825,3.825,0,0,0-.523-.232l-.3.39-.4.519-.013,0-.024-.009c-.033-.012-.067-.025-.1-.036l-.024-.008-.1-.034-.024-.008h0l-.027-.008-.063-.019-.012,0-.011,0-.064-.018-.027-.008h0l-.025-.007c-.035-.01-.069-.019-.1-.027l-.025-.007c-.035-.008-.069-.017-.1-.024l-.026-.006-.013,0-.056-.657-.043-.491a3.871,3.871,0,0,0-.565-.09,3.92,3.92,0,0,0-.573-.007l-.125.478-.166.637h-.008l-.025,0c-.036,0-.072,0-.108.006l-.025,0-.108.009-.022,0-.048,0-.048,0-.021,0-.108.014-.025,0-.107.016-.025,0h-.007l-.3-.587-.223-.442a3.838,3.838,0,0,0-.558.127,3.8,3.8,0,0,0-.534.206l.062.491.081.652-.012.006-.024.011-.1.046-.023.011-.1.049-.022.011h0l-.025.014-.058.031-.01.005h0l-.011.006-.058.032-.025.014h0l-.021.012-.094.055-.021.013-.092.057-.022.013-.012.008-.5-.424-.378-.318a3.89,3.89,0,0,0-.463.336,3.986,3.986,0,0,0-.41.4l.249.426.333.568,0,.006-.017.019-.072.081-.016.019c-.024.027-.047.055-.07.083l-.014.017-.031.037-.03.038-.013.016c-.023.029-.045.058-.067.087l-.015.019c-.022.029-.043.058-.064.088l-.015.02,0,.006-.624-.206-.469-.155a3.893,3.893,0,0,0-.538,1.008l.391.3.519.4,0,.012-.01.025c-.012.034-.024.067-.035.1l-.009.025c-.012.033-.023.067-.033.1l-.008.025v0l-.009.027-.019.064,0,.01,0,.012-.018.064-.007.027v0l-.007.024-.027.1-.006.025c-.009.034-.017.07-.025.105l-.005.024,0,.014-.656.056-.491.043a3.856,3.856,0,0,0-.09.565,3.945,3.945,0,0,0-.007.573l.477.125.637.166v.034c0,.035,0,.071.007.107l0,.025c0,.036.005.072.009.108l0,.022,0,.048.006.048,0,.021c0,.036.009.073.014.108l0,.025c.005.036.011.072.017.108l0,.024,0,.007-.588.3-.441.223a3.956,3.956,0,0,0,.126.558,3.916,3.916,0,0,0,.207.534l.49-.061.652-.082.006.013.011.023c.015.032.03.065.046.1l.012.023c.015.032.032.064.048.1l.012.023h0l.013.026.031.058.006.01.005.011.015.026.018.032.013.025,0,0,.012.021c.018.032.036.063.055.094l.013.021c.018.031.037.062.056.092l.014.022.007.012-.424.5-.317.378a3.9,3.9,0,0,0,.336.463,3.779,3.779,0,0,0,.4.41l.425-.249.569-.333.005.005.019.017.081.072.019.016.084.07.017.014.037.031.037.03.017.013.087.067.019.015.087.064.021.015.006,0-.207.624-.154.469a3.9,3.9,0,0,0,1.008.538l.3-.391.4-.519.013.005.025.009.1.036.025.008.1.034.025.008h0l.028.009.063.019.011,0,.012,0,.063.018.028.008h0l.024.006.1.028.024.006.1.025.025.006.014,0,.056.656.043.491a3.871,3.871,0,0,0,.565.09,3.66,3.66,0,0,0,.573.007l.125-.477.166-.637h.007l.027,0,.107-.007.026,0,.107-.009.022,0,.048,0,.047-.006.022,0,.108-.014.025,0,.107-.016.025-.005h.008l.3.587.223.442a3.876,3.876,0,0,0,1.092-.333l-.061-.49-.083-.653.013,0,.024-.012.1-.045.024-.012.095-.048.024-.012h0l.026-.014.058-.031.01-.006.011-.006.058-.032.024-.013,0,0,.021-.012.094-.055.021-.013.092-.056.022-.014.012-.008.5.425.378.317a3.943,3.943,0,0,0,.873-.736l-.249-.425-.333-.569,0-.005.017-.02.071-.08.018-.02.069-.082.014-.018.031-.037.029-.037.014-.017.066-.086.016-.02.064-.087.015-.021,0-.006.625.206.469.155a3.85,3.85,0,0,0,.537-1.008l-.39-.3Zm-2.679-.559a3.173,3.173,0,1,1-.023-3.028A3.173,3.173,0,0,1,2938.67,71.893Z" fill="#716e8f"/>
      <path id="Trazado_1143" data-name="Trazado 1143" d="M2766.4,132.926l.006-.017.012-.034c.017-.045.033-.09.049-.135l.011-.033c.015-.046.031-.092.045-.138l.011-.033v0l.011-.037c.009-.029.018-.057.026-.086l0-.015,0-.015.025-.086.01-.037v0l.009-.033c.013-.046.025-.093.036-.14l.009-.034c.012-.046.023-.093.033-.14l.008-.034,0-.019.884-.076.662-.057a5.31,5.31,0,0,0,.122-.761,5.373,5.373,0,0,0,.009-.772l-.643-.168-.859-.225v-.009l0-.036c0-.048-.005-.1-.009-.144l0-.035c0-.048-.007-.1-.012-.145l0-.03-.006-.064-.007-.064,0-.03c-.005-.048-.012-.1-.018-.144l-.005-.034c-.006-.048-.014-.1-.021-.144l-.006-.034,0-.01.792-.4.595-.3a5.165,5.165,0,0,0-.171-.753,5.086,5.086,0,0,0-.278-.72l-.661.083-.879.111-.007-.017-.015-.032c-.02-.043-.041-.087-.062-.13l-.016-.032c-.021-.043-.042-.086-.065-.129l-.016-.031v0l-.017-.034-.042-.078-.008-.014-.008-.015-.019-.034-.024-.043-.019-.034v0l-.017-.03c-.024-.042-.049-.084-.074-.125l-.018-.03c-.024-.042-.05-.082-.075-.123l-.019-.03-.01-.016.571-.679.428-.508a5.173,5.173,0,0,0-.453-.625,5.307,5.307,0,0,0-.538-.552l-.574.336-.766.448-.007-.006-.026-.024c-.036-.032-.072-.064-.109-.1l-.026-.023-.111-.094-.024-.019-.049-.041-.051-.04-.023-.019-.116-.089-.027-.021c-.039-.029-.077-.058-.117-.086l-.028-.021-.008-.005.278-.841.209-.633a5.174,5.174,0,0,0-.653-.412,5.3,5.3,0,0,0-.706-.312l-.409.526-.543.7-.017-.007-.032-.011c-.046-.017-.091-.034-.137-.049l-.032-.011-.139-.046-.032-.01h0l-.037-.012-.085-.025-.015-.005-.016,0-.085-.024-.038-.01h0l-.033-.009-.141-.037-.033-.008-.141-.034-.034-.008-.018,0-.076-.884-.057-.662a5.285,5.285,0,0,0-.762-.121,5.1,5.1,0,0,0-.771-.009l-.168.643-.225.858h-.01l-.034,0-.146.008-.034,0-.145.012-.03,0-.064.007-.065.007-.028,0-.146.019-.033,0-.145.022-.033.005-.01,0-.4-.791-.3-.6a5.308,5.308,0,0,0-.753.171,5.234,5.234,0,0,0-.72.278l.084.661.11.879-.017.008-.032.014-.13.062-.031.015-.13.066-.03.016h0l-.033.018-.079.042-.013.007h0l-.014.007-.078.043-.034.019,0,0-.029.016-.126.074-.029.018c-.042.024-.083.05-.123.076l-.03.018-.016.01-.679-.571-.508-.428a5.279,5.279,0,0,0-1.177.992l.335.573.449.766-.007.008-.022.025c-.033.036-.065.072-.1.109l-.022.026c-.032.037-.064.074-.095.112l-.018.023-.041.05-.041.05-.018.023-.09.116-.02.027c-.03.039-.058.078-.087.117l-.02.028-.006.008-.841-.278-.633-.209a5.283,5.283,0,0,0-.411.653,5.116,5.116,0,0,0-.312.706l.526.409.7.543-.006.017-.012.034c-.017.045-.033.089-.049.135l-.011.033c-.016.046-.031.091-.045.138l-.011.033v0l-.012.037c-.008.029-.017.057-.025.085l0,.015,0,.016-.025.085-.01.037v0l-.009.032c-.013.047-.025.094-.037.141l-.008.033q-.018.07-.033.141l-.008.034,0,.018-.885.076-.661.057a5.3,5.3,0,0,0-.122.762,5.371,5.371,0,0,0-.009.772l.643.168.858.224v.01l0,.035c0,.048.005.1.009.145l0,.034c0,.048.007.1.012.146l0,.029.007.065c0,.021.005.042.007.064l0,.029c0,.048.011.1.018.146l.005.032c.006.049.014.1.021.145l.006.034v.01l-.791.4-.595.3a5.309,5.309,0,0,0,.17.752,5.367,5.367,0,0,0,.278.72l.662-.083.878-.111.008.018.015.031c.02.044.041.087.062.131l.015.031.065.13.016.03v0l.018.035.042.078.008.014.007.014.019.035.025.043.019.034v0l.017.028c.024.043.049.085.074.127l.017.028c.025.042.05.083.076.124l.018.029.011.016-.572.679-.428.508a5.282,5.282,0,0,0,.992,1.177l.573-.335.767-.449.007.007.026.023c.036.032.072.065.109.1l.025.022.112.1.023.019.05.041.051.04.023.018c.038.031.077.06.116.09l.026.02c.039.03.078.059.118.087l.027.02.008.006-.277.841-.209.633a5.37,5.37,0,0,0,1.358.724l.409-.526.543-.7.018.006.033.013.135.048.034.011.137.046.034.011h0l.038.011.085.026.015.005.016.005.085.024.037.011h0l.032.009.142.037.032.008.142.034.033.007.019.005.076.884.057.662a5.289,5.289,0,0,0,.762.121,5.1,5.1,0,0,0,.771.009l.169-.643.224-.858h.01l.036,0,.143-.009.036,0,.144-.012.03,0,.064-.007.064-.007.03,0c.048-.005.1-.011.145-.018l.034,0,.143-.022.035-.005.01,0,.4.791.3.6a5.282,5.282,0,0,0,1.472-.448l-.083-.661-.111-.879.017-.008.033-.015.129-.061.032-.016.129-.065.031-.016h0l.035-.018.077-.042.015-.008.014-.007.078-.044.033-.018,0,0,.03-.017.125-.073.03-.018.123-.076.029-.018.016-.011.679.572.508.428a5.279,5.279,0,0,0,1.177-.992l-.335-.573-.449-.767.006-.007.024-.026.1-.108.023-.027c.031-.037.063-.074.093-.111l.019-.023.041-.05.041-.051.018-.023.09-.115.02-.028c.03-.038.058-.077.087-.116l.02-.029.006-.007.841.277.633.209a5.281,5.281,0,0,0,.411-.653,5.157,5.157,0,0,0,.312-.7l-.526-.409Zm-3.61-.753a4.274,4.274,0,1,1-.031-4.08A4.276,4.276,0,0,1,2762.794,132.173Z" fill="#5e6175"/>
      <path id="Trazado_1144" data-name="Trazado 1144" d="M2766.4,71.11l.006-.017.012-.034c.017-.045.033-.09.049-.135l.011-.033c.015-.046.031-.092.045-.138l.011-.033v0l.011-.037c.009-.029.018-.057.026-.086l0-.015,0-.015.025-.086.01-.037v0l.009-.033c.013-.046.025-.093.036-.14l.009-.034c.012-.046.023-.093.033-.14l.008-.034,0-.019.884-.076.662-.057a5.31,5.31,0,0,0,.122-.761,5.373,5.373,0,0,0,.009-.772l-.643-.168-.859-.225v-.009l0-.036c0-.048-.005-.1-.009-.144l0-.035c0-.048-.007-.1-.012-.145l0-.03-.006-.063-.007-.065,0-.03c-.005-.048-.012-.1-.018-.144l-.005-.034c-.006-.048-.014-.1-.021-.144l-.006-.034,0-.01.792-.4.595-.3a5.165,5.165,0,0,0-.171-.753,5.086,5.086,0,0,0-.278-.72l-.661.084-.879.11-.007-.017-.015-.032c-.02-.043-.041-.087-.062-.13l-.016-.031c-.021-.044-.042-.087-.065-.13l-.016-.031v0l-.017-.034-.042-.078-.008-.014-.008-.015-.019-.034-.024-.043-.019-.034v0l-.017-.03c-.024-.042-.049-.084-.074-.125l-.018-.03c-.024-.041-.05-.082-.075-.123l-.019-.03-.01-.016.571-.679.428-.508a5.173,5.173,0,0,0-.453-.625,5.408,5.408,0,0,0-.538-.552l-.574.336-.766.449-.007-.007-.026-.024c-.036-.032-.072-.064-.109-.095l-.026-.023-.111-.094-.024-.019-.049-.041-.051-.04-.023-.019-.116-.089-.027-.021c-.039-.029-.077-.058-.117-.086l-.028-.021-.008-.005.278-.841.209-.633a5.174,5.174,0,0,0-.653-.412,5.3,5.3,0,0,0-.706-.312l-.409.526-.543.7-.017-.007-.032-.011-.137-.049-.032-.011-.139-.046-.032-.01h0l-.037-.012-.085-.025-.015-.005-.016,0-.085-.024-.038-.01h0l-.033-.009-.141-.037-.033-.008-.141-.034-.034-.008-.018,0-.076-.884-.057-.662a5.285,5.285,0,0,0-.762-.121,5.1,5.1,0,0,0-.771-.009l-.168.643-.225.858h-.01l-.034,0c-.049,0-.1.005-.146.009l-.034,0-.145.012-.03,0-.064.007-.065.007-.028,0-.146.019-.033,0-.145.022-.033.005-.01,0-.4-.791-.3-.6a5.308,5.308,0,0,0-.753.171,5.233,5.233,0,0,0-.72.278l.084.661.11.879-.017.008-.032.015-.13.061-.031.015-.13.066-.03.016h0l-.033.018-.079.042-.013.007h0l-.014.007-.078.043-.034.02h0l-.029.016-.126.074-.029.018c-.042.024-.083.05-.123.076l-.03.018-.016.01-.679-.571-.508-.428a5.279,5.279,0,0,0-1.177.992l.335.573.449.766-.007.008-.022.025c-.033.036-.065.072-.1.109l-.022.026c-.032.037-.064.074-.095.112l-.018.023-.041.05-.041.05-.018.023-.09.116-.02.027c-.03.039-.058.078-.087.117l-.02.028-.006.008-.841-.278-.633-.208a5.27,5.27,0,0,0-.411.652,5.169,5.169,0,0,0-.312.706l.526.409.7.543-.006.017-.012.034c-.017.045-.033.089-.049.135l-.011.033c-.016.046-.031.092-.045.138l-.011.033v0l-.012.037c-.008.029-.017.057-.025.085l0,.015,0,.016-.025.085-.01.037v0l-.009.032c-.013.047-.025.094-.037.141l-.008.033q-.018.071-.033.141l-.008.034,0,.018-.885.076-.661.057a5.3,5.3,0,0,0-.122.762,5.371,5.371,0,0,0-.009.772l.643.168.858.224v.01l0,.035c0,.048.005.1.009.145l0,.034c0,.049.007.1.012.146l0,.029.007.065c0,.021.005.042.007.064l0,.029c0,.048.011.1.018.146l.005.032c.006.049.014.1.021.145l.006.034v.01l-.791.4-.595.3a5.31,5.31,0,0,0,.17.752,5.367,5.367,0,0,0,.278.72l.662-.083.878-.111.008.018.015.031c.02.044.041.087.062.131l.015.031.065.13.016.03v0l.018.035.042.078.008.014.007.014.019.035.025.043.019.034v0l.017.028c.024.043.049.085.074.127l.017.028c.025.042.05.083.076.124l.018.029.011.016-.572.679-.428.508a5.282,5.282,0,0,0,.992,1.177l.573-.335.767-.449.007.007.026.023c.036.032.072.065.109.1l.025.022.112.1.023.019.05.041.051.04.023.018c.038.031.077.06.116.09l.026.02c.039.03.078.059.118.087l.027.02.008.006-.277.841-.209.633a5.1,5.1,0,0,0,.653.411,5.17,5.17,0,0,0,.7.313l.409-.526.543-.7.018.006.033.013.135.048.034.011.137.046.034.011h0l.038.011.085.026.015,0,.016.005.085.024.037.011h0l.032.009.142.037.032.008.142.034.033.007.019,0,.076.884.057.662a5.287,5.287,0,0,0,.762.121,5.1,5.1,0,0,0,.771.009l.169-.643.224-.858h.01l.036,0,.143-.009.036,0,.144-.012.03,0,.064-.007.064-.007.03,0c.048-.005.1-.011.145-.018l.034,0,.143-.022.035,0,.01,0,.4.791.3.6a5.283,5.283,0,0,0,1.472-.448l-.083-.661-.111-.879.017-.008.033-.015.129-.061.032-.016.129-.065.031-.016h0l.035-.018.077-.042.015-.008.014-.007.078-.044.033-.018,0,0,.03-.017.125-.073.03-.018.123-.076.029-.018.016-.011.679.572.508.428a5.28,5.28,0,0,0,1.177-.992l-.335-.573-.449-.767.006-.007.024-.026.1-.108.023-.027c.031-.036.063-.074.093-.111l.019-.023.041-.05.041-.05.018-.024.09-.115.02-.028c.03-.038.058-.077.087-.116l.02-.028.006-.008.841.277.633.209a5.324,5.324,0,0,0,.723-1.358l-.526-.409Zm-3.61-.753a4.276,4.276,0,1,1-.031-4.079A4.276,4.276,0,0,1,2762.794,70.357Z" fill="#5e6175"/>
      <path id="Trazado_1145" data-name="Trazado 1145" d="M2926.979,82.549l.011-.015.021-.028c.029-.039.058-.077.086-.116l.02-.028c.029-.04.057-.079.084-.119l.02-.028v0l.022-.032c.017-.025.033-.049.049-.074l.01-.013.009-.014.048-.074.021-.033v0l.018-.029c.026-.041.052-.082.077-.124l.018-.029c.024-.042.049-.083.073-.125l.017-.03.009-.017.868.186.65.139a5.356,5.356,0,0,0,.339-.693,5.253,5.253,0,0,0,.234-.735l-.566-.349-.755-.465,0-.01.009-.034c.011-.047.023-.094.033-.141l.008-.034c.011-.047.021-.094.031-.142l.006-.03.012-.062.012-.064.006-.03.024-.143.006-.034q.011-.072.021-.144l.005-.034v-.01l.873-.15.657-.112a5.33,5.33,0,0,0,0-1.54l-.657-.113-.873-.151,0-.019-.005-.035c-.006-.047-.014-.1-.021-.142l-.006-.035c-.007-.048-.015-.095-.024-.143l-.006-.034v0l-.007-.037-.017-.088,0-.015,0-.016-.008-.038-.01-.049-.008-.038v0l-.007-.034c-.011-.047-.022-.094-.034-.141l-.008-.034c-.012-.047-.024-.093-.037-.139l-.009-.034,0-.018.745-.483.558-.361a5.253,5.253,0,0,0-.25-.729,5.433,5.433,0,0,0-.354-.686l-.647.153-.864.2,0-.008-.019-.03c-.025-.041-.05-.083-.076-.123l-.018-.03c-.026-.041-.052-.082-.079-.122l-.017-.025-.035-.054-.037-.053-.017-.025-.084-.119-.02-.028c-.028-.039-.057-.078-.086-.116l-.021-.028-.006-.008.511-.723.385-.544a5.235,5.235,0,0,0-.5-.585,5.306,5.306,0,0,0-.583-.505l-.545.384-.724.51-.015-.011-.027-.021-.117-.086-.027-.02c-.039-.029-.079-.057-.119-.084l-.028-.02h0l-.032-.022-.074-.05-.013-.009-.013-.009-.075-.048-.033-.021h0l-.029-.019L2924.8,71l-.03-.018c-.041-.025-.083-.049-.125-.072l-.03-.018-.016-.009.186-.868.139-.65a5.364,5.364,0,0,0-.693-.339,5.259,5.259,0,0,0-.735-.234l-.349.566-.466.755-.01,0-.033-.008c-.047-.013-.094-.024-.142-.034l-.033-.008-.143-.031-.029-.006-.063-.012-.064-.013-.028-.005-.145-.025-.033-.005-.145-.021-.033-.005h-.01l-.15-.874-.113-.656a5.134,5.134,0,0,0-.769-.057,5.294,5.294,0,0,0-.77.055l-.114.657-.151.872-.019,0-.034.005c-.048.006-.1.013-.143.021l-.034,0-.144.025-.033.006h0l-.038.008-.087.017-.015,0h0l-.016,0-.087.018-.038.009h0l-.033.008-.142.034-.033.008c-.047.011-.094.024-.14.036l-.034.01-.018,0-.482-.744-.361-.558a5.25,5.25,0,0,0-.73.25,5.134,5.134,0,0,0-.685.354l.153.646.205.864-.009.006-.029.017-.124.076-.029.018-.123.08-.025.016-.054.036-.053.037-.024.016c-.041.028-.08.056-.12.085l-.027.019-.118.087-.026.021-.009.006-.723-.512-.544-.384a5.231,5.231,0,0,0-.584.5,5.324,5.324,0,0,0-.5.584l.383.545.51.724-.01.014-.022.029-.086.115-.02.029c-.029.039-.056.078-.084.118l-.02.028v0l-.022.033-.05.073-.008.013-.009.014-.049.074-.02.033,0,0-.018.028-.077.124-.017.029c-.025.042-.05.084-.074.126l-.016.029-.01.017-.868-.186-.65-.139a5.229,5.229,0,0,0-.338.693,5.289,5.289,0,0,0-.235.735l.566.349.755.465,0,.01-.009.034c-.011.047-.023.094-.033.141l-.008.034c-.01.047-.021.1-.031.143l-.006.028-.013.064c0,.021-.007.042-.011.064l-.005.028c-.009.048-.018.1-.025.145l-.006.033c-.008.048-.014.1-.021.145l0,.033v.01l-.874.15-.656.112a5.149,5.149,0,0,0-.057.77,5.258,5.258,0,0,0,.055.769l.657.114.872.152,0,.019,0,.034c.006.047.013.1.021.143l.005.034c.008.048.016.1.025.143l.006.034v0l.007.039.017.087,0,.015,0,.016.008.039.011.049.008.037v0l.007.032c.011.048.022.1.034.143l.008.032c.011.048.024.094.037.141l.009.033,0,.019-.744.481-.558.362a5.25,5.25,0,0,0,.6,1.415l.646-.153.864-.205.006.008.017.03c.025.042.05.083.076.124l.018.029.08.123.016.024.036.055.037.053.016.024.085.12.019.027.087.117.021.027.006.008-.512.723-.384.544a5.2,5.2,0,0,0,.5.585,5.316,5.316,0,0,0,.584.5l.545-.384.724-.51.015.011.028.022.115.085.029.021.118.084.029.02h0l.033.022c.024.017.049.033.074.049l.012.009.014.009.075.049.032.02,0,0,.028.017c.041.027.083.052.125.078l.028.017.126.073.03.017.016.01-.185.868-.14.649a5.178,5.178,0,0,0,.694.339,5.261,5.261,0,0,0,.734.235l.35-.566.465-.756.009,0,.035.009.14.033.035.008c.047.01.094.021.142.03l.029.006.063.013.064.012.029,0,.144.025.034.006.143.021.035,0h.01l.15.873.112.657a5.269,5.269,0,0,0,1.539,0l.114-.656.151-.873.018,0,.036,0,.142-.021.035-.006.142-.024.035-.007h0l.039-.007.087-.017.016,0,.016,0,.087-.018.037-.008h0l.033-.008c.048-.01.095-.022.142-.033l.033-.008.141-.037.033-.009.018-.005.482.745.361.558a5.322,5.322,0,0,0,1.416-.6l-.154-.646-.2-.864.009,0,.03-.018.123-.076.03-.018.122-.079.025-.017.054-.036.053-.036.024-.017c.04-.027.08-.056.12-.084l.028-.02.116-.087.028-.021.008-.006.723.512.544.385a5.3,5.3,0,0,0,.584-.5,5.136,5.136,0,0,0,.505-.584l-.383-.544Zm-3.232-1.776a4.275,4.275,0,1,1,1.163-3.91A4.276,4.276,0,0,1,2923.747,80.773Z" fill="#5e6175"/>
      <path id="Trazado_1146" data-name="Trazado 1146" d="M2773.5,120.335l0-.01.007-.019.029-.08.006-.019.027-.081.006-.019h0l.007-.022.015-.05,0-.009,0-.009.014-.05.006-.022h0l.005-.019.021-.083,0-.019c.007-.028.014-.055.02-.083l0-.02,0-.01.517-.045.388-.033a2.986,2.986,0,0,0,.071-.446,3.111,3.111,0,0,0,.006-.452l-.377-.1-.5-.131v-.026c0-.029,0-.057-.005-.085l0-.02c0-.028,0-.057-.007-.085l0-.018,0-.037,0-.038,0-.017c0-.029-.007-.057-.01-.085l0-.02c0-.028-.008-.056-.013-.084l0-.02v-.006l.463-.233.349-.176a3.138,3.138,0,0,0-.1-.44,3.093,3.093,0,0,0-.163-.422l-.387.049-.514.065-.005-.01-.009-.019-.036-.076-.009-.018c-.012-.026-.025-.051-.038-.076l-.009-.018v0l-.01-.019-.025-.046-.005-.009,0-.008-.011-.02-.014-.025-.011-.02h0l-.01-.018c-.014-.025-.029-.049-.043-.073l-.011-.018c-.014-.024-.029-.048-.044-.072l-.011-.017-.006-.009.335-.4.25-.3a2.971,2.971,0,0,0-.265-.365,3.1,3.1,0,0,0-.315-.324l-.336.2-.449.263,0,0-.015-.014c-.021-.019-.042-.038-.064-.056l-.015-.013-.065-.055-.014-.012-.029-.023-.03-.024-.013-.011-.068-.052-.016-.013-.068-.05-.017-.012,0,0,.162-.493.122-.37a2.962,2.962,0,0,0-.382-.241,3.029,3.029,0,0,0-.413-.183l-.239.308-.318.41-.01,0-.019-.007-.08-.029-.019-.006-.081-.027-.019-.006h0l-.021-.007-.051-.015-.009,0-.008,0-.05-.014-.022-.006h0l-.019-.006-.082-.021-.02,0-.082-.02-.021,0-.01,0-.044-.517-.034-.388a2.961,2.961,0,0,0-.446-.071,3.105,3.105,0,0,0-.452-.005l-.1.376-.131.5h-.027l-.085,0-.02,0-.085.007-.017,0-.038,0-.037,0-.017,0-.086.011-.019,0-.085.013-.019,0h-.006l-.233-.463-.176-.349a3.044,3.044,0,0,0-.441.1,3.123,3.123,0,0,0-.421.163l.049.387.064.514-.01.005-.018.009-.077.036-.018.009-.076.038-.017.009h0l-.02.011-.046.024-.008,0h0l-.009,0-.045.025-.02.012h0l-.018.01-.073.043-.017.011c-.025.014-.049.029-.072.044l-.018.011-.009.006-.4-.335-.3-.25a2.978,2.978,0,0,0-.366.265,3.1,3.1,0,0,0-.323.315l.2.336.263.449,0,0-.013.015c-.02.021-.038.042-.057.064l-.013.015-.055.065-.011.014-.024.029-.024.03-.011.013-.052.068-.012.016-.051.068-.011.017,0,0-.492-.162-.371-.123a3.137,3.137,0,0,0-.424.8l.308.239.41.318,0,.01-.007.02c-.01.026-.019.053-.028.079l-.007.02c-.009.026-.018.053-.026.08l-.007.02h0l-.007.022-.015.05,0,.008,0,.009-.015.05-.006.022v0l0,.019c-.008.027-.015.055-.022.083l0,.019c-.007.027-.013.055-.02.083l0,.019,0,.011-.518.044-.388.034a3.2,3.2,0,0,0-.071.446,3.11,3.11,0,0,0-.005.452l.376.1.5.131v.027c0,.028,0,.056.006.085v.02l.007.085,0,.017,0,.038,0,.038,0,.016c0,.029.007.057.011.086l0,.019c0,.028.009.057.013.085l0,.019v.006l-.463.233-.349.176a3.1,3.1,0,0,0,.263.862l.387-.049.515-.064,0,.01.009.018.036.077.009.018.038.076.01.018h0l.011.02.024.046,0,.008,0,.009.011.02.015.025.011.02v0l.009.016c.015.025.029.05.044.074l.01.017c.014.025.029.049.044.073l.011.016.006.01-.335.4-.25.3a2.979,2.979,0,0,0,.265.366,3.122,3.122,0,0,0,.316.323l.335-.2.449-.263,0,0,.015.013.064.057.015.013.066.055.013.011.03.024.029.024.013.01.069.053.015.012.069.051.016.011,0,0-.162.492-.122.371a2.965,2.965,0,0,0,.382.241,3.028,3.028,0,0,0,.413.183l.239-.308.318-.41.011,0,.019.007.079.028.02.007.081.026.019.007h0l.022.007.05.015.008,0,.01,0,.05.015.022.006h0l.019,0,.083.022.019,0,.083.019.019,0,.011,0,.045.518.033.388a3.26,3.26,0,0,0,.446.071,3.109,3.109,0,0,0,.452,0l.1-.376.131-.5h.027l.084-.006h.021l.084-.007.018,0,.037,0,.038,0,.017,0,.085-.011.02,0,.084-.013.02,0h.006l.233.463.176.348a3.072,3.072,0,0,0,.862-.262l-.049-.387-.065-.515.01,0,.019-.009.076-.036.019-.009.075-.038.018-.01h0l.021-.011.045-.024.009,0,.008,0,.046-.026.019-.011h0l.017-.01.074-.043.017-.01.072-.044.017-.011.009-.006.4.334.3.251a2.969,2.969,0,0,0,.365-.265,3.025,3.025,0,0,0,.324-.316l-.2-.335-.263-.449,0,0,.014-.016.056-.063.014-.016.054-.064.012-.014.024-.03.023-.029.011-.014c.018-.022.035-.045.052-.067l.013-.016.05-.068.012-.017,0,0,.493.163.37.122a3.062,3.062,0,0,0,.241-.382,3.023,3.023,0,0,0,.183-.413l-.308-.24Zm-2.114-.44a2.5,2.5,0,1,1-.018-2.389A2.5,2.5,0,0,1,2771.389,119.895Z" fill="#cbcad9"/>
      <path id="Trazado_1147" data-name="Trazado 1147" d="M2793.238,68.538l0-.01.007-.02c.01-.026.019-.053.028-.079l.007-.02.027-.08.006-.02h0l.007-.021.015-.051,0-.009,0-.009.015-.049.006-.022v0l.005-.019c.008-.028.015-.055.022-.083l0-.019c.007-.028.013-.055.02-.083l0-.019,0-.011.517-.045.388-.033a3.237,3.237,0,0,0,.071-.446,3.11,3.11,0,0,0,.005-.452l-.376-.1-.5-.132v-.026c0-.028,0-.056-.006-.085v-.02c0-.028-.005-.057-.007-.085l0-.017,0-.038,0-.038,0-.017c0-.028-.007-.056-.011-.084l0-.021-.013-.084,0-.02v-.006l.463-.233.349-.175a3.3,3.3,0,0,0-.1-.441,3.079,3.079,0,0,0-.163-.421l-.387.048-.515.065,0-.01-.009-.019-.036-.076-.009-.018-.038-.076-.01-.018h0l-.011-.02-.024-.046-.005-.008,0-.009-.01-.02-.014-.025-.012-.02h0l-.01-.018-.042-.073-.011-.018c-.015-.024-.029-.048-.044-.071l-.011-.018-.006-.009.335-.4.25-.3a2.88,2.88,0,0,0-.265-.366,3.047,3.047,0,0,0-.316-.323l-.335.2-.449.263,0,0L2792,63.49l-.063-.056-.016-.013c-.021-.019-.043-.037-.065-.055l-.013-.011-.029-.024-.03-.024-.014-.011-.067-.052-.016-.012-.068-.051-.017-.012,0,0,.163-.493.122-.37a3.107,3.107,0,0,0-.795-.424l-.24.308-.318.41-.01,0-.019-.007-.08-.028-.018-.007-.082-.026-.019-.006h0l-.022-.007-.05-.015-.009,0-.009,0-.05-.015-.022-.006h0l-.019-.005-.083-.022-.02-.005-.082-.019-.02,0-.01,0-.045-.518-.033-.388a3.244,3.244,0,0,0-.446-.071,3.108,3.108,0,0,0-.452-.005l-.1.377-.132.5h-.006l-.02,0-.085.005h-.02l-.085.007-.017,0-.038,0-.038,0-.017,0-.085.011-.019,0-.085.013-.02,0h-.005l-.234-.463-.175-.349a3.092,3.092,0,0,0-.862.263l.048.387.065.515-.01,0-.018.009-.077.036-.018.009-.076.038-.018.01h0l-.019.01-.046.024-.008.005h0l-.009,0-.045.026-.02.011h0l-.017.009-.073.043-.018.011-.072.044-.017.011-.009.006-.4-.335-.3-.25a3,3,0,0,0-.366.265,2.926,2.926,0,0,0-.323.316l.2.335.263.449,0,0-.013.015c-.019.021-.038.042-.056.064l-.013.015-.056.066-.01.013-.024.029-.024.03-.011.013-.052.068-.012.016c-.018.023-.034.046-.051.069l-.012.016,0,0-.493-.162-.37-.122a2.962,2.962,0,0,0-.241.382,3,3,0,0,0-.183.413l.308.239.41.318,0,.01-.007.02c-.01.027-.019.053-.029.079l-.006.02-.027.08-.006.02h0l-.007.022-.015.05,0,.008,0,.01-.014.05-.006.021v0l-.005.019-.021.083,0,.019c-.007.028-.014.055-.02.083l0,.019,0,.011-.518.045-.387.033a2.966,2.966,0,0,0-.071.446,3.256,3.256,0,0,0-.006.452l.377.1.5.132v.026c0,.028,0,.057.005.085l0,.02.007.085,0,.017,0,.038.005.038,0,.017c0,.028.007.057.01.085l0,.019c0,.029.008.057.013.085l0,.02v.005l-.463.234-.349.175a3.019,3.019,0,0,0,.1.441,3.131,3.131,0,0,0,.163.421l.387-.048.514-.065,0,.01.009.018c.011.026.023.052.036.077l.009.018c.012.025.025.051.038.076l.009.018h0l.011.02.024.046.005.008,0,.009.011.02.014.025.011.02v0l.01.016.043.075.01.016.045.073.011.017.006.009-.335.4-.25.3a2.982,2.982,0,0,0,.265.366,3.087,3.087,0,0,0,.315.323l.336-.2.449-.263,0,0,.015.014c.021.019.042.038.064.056l.015.013.065.055.014.011.029.025.03.023.013.011.068.052.016.012.068.051.016.012,0,0-.162.493-.123.37a3.06,3.06,0,0,0,.383.241,3.029,3.029,0,0,0,.413.183l.239-.308.318-.41.01,0,.02.007.079.028.02.007.08.027.02.006h0l.022.007.05.015.008,0,.01,0,.049.014.022.006h0l.019,0,.083.022.019,0,.083.02.019,0,.011,0,.045.517.033.388a2.961,2.961,0,0,0,.446.071,3.1,3.1,0,0,0,.452,0l.1-.376.132-.5h.026l.085,0,.02,0,.085-.007.017,0,.038,0,.037-.005.018,0,.085-.011.02,0,.084-.013.02,0h.006l.233.463.175.349a3.155,3.155,0,0,0,.441-.1,3.073,3.073,0,0,0,.421-.163l-.048-.387-.065-.515.01,0,.019-.009.076-.036.019-.009.075-.038.018-.01h0l.021-.011.045-.024.008,0,.009,0,.045-.026.02-.01,0,0,.017-.009.073-.043.018-.01.072-.045.017-.011.009-.006.4.335.3.25a2.906,2.906,0,0,0,.366-.265,3.1,3.1,0,0,0,.323-.315l-.2-.336-.263-.449,0,0,.014-.015c.019-.021.038-.042.056-.064l.013-.015.055-.065.011-.014.024-.029.024-.03.011-.013.052-.068.012-.016.051-.068.012-.017,0,0,.493.162.37.122a2.962,2.962,0,0,0,.241-.382,3.025,3.025,0,0,0,.183-.413l-.308-.239Zm-2.113-.441a2.5,2.5,0,1,1-.018-2.389A2.5,2.5,0,0,1,2791.125,68.1Z" fill="#cbcad9"/>
      <path id="Trazado_1148" data-name="Trazado 1148" d="M2952.654,74.523l0-.01.007-.02c.01-.026.02-.053.029-.079l.006-.02.027-.08.006-.02h0l.007-.021.015-.05,0-.009,0-.009.014-.05.006-.022v0l0-.019.021-.083.005-.019c.007-.027.014-.055.02-.082l0-.02,0-.011.518-.045.387-.033a2.935,2.935,0,0,0,.071-.446,2.979,2.979,0,0,0,.006-.452l-.377-.1-.5-.132v-.026c0-.028,0-.056,0-.084l0-.021c0-.028,0-.056-.007-.085l0-.017,0-.038,0-.037,0-.018c0-.028-.007-.056-.01-.084l0-.02-.013-.084,0-.021v0l.463-.234.349-.175a3.153,3.153,0,0,0-.1-.441,3,3,0,0,0-.163-.421l-.387.049-.514.064,0-.01-.009-.018-.036-.076-.009-.019-.038-.076-.009-.018h0l-.01-.02-.025-.046,0-.008,0-.009-.011-.019-.014-.026-.011-.02h0l-.01-.018-.043-.073-.011-.017c-.014-.025-.029-.048-.044-.072l-.011-.018-.006-.009.335-.4.25-.3a2.979,2.979,0,0,0-.265-.366,3.24,3.24,0,0,0-.315-.323l-.336.2-.449.263,0,0-.015-.014-.064-.056-.015-.013-.065-.055-.014-.011-.029-.024-.03-.024-.013-.01-.068-.053-.016-.012-.068-.051-.017-.012,0,0,.162-.492.122-.371a2.965,2.965,0,0,0-.382-.241,3.155,3.155,0,0,0-.413-.183l-.239.308-.318.41-.01,0-.019-.007-.08-.028-.019-.006c-.027-.01-.054-.019-.081-.027l-.019-.006h0l-.021-.007-.05-.015-.009,0-.009,0-.05-.015-.022,0h0l-.019-.005-.082-.022-.02-.005-.082-.019-.021,0-.01,0-.044-.518-.034-.387a3.031,3.031,0,0,0-.9-.077l-.1.377-.131.5h-.006l-.021,0L2948,68.3h-.019l-.086.008h-.017l-.038,0-.037,0-.017,0-.086.011-.019,0-.085.013-.019,0h-.006l-.233-.463-.176-.348a3.176,3.176,0,0,0-.441.1,3.138,3.138,0,0,0-.421.163l.049.387.064.515-.01,0-.018.008-.077.036-.018.009-.076.039-.017.009h0l-.02.01-.046.025-.008,0h0l-.009.005-.045.025-.02.011h0l-.018.01-.073.043-.017.01c-.025.014-.049.029-.072.044l-.018.011-.009.006-.4-.334-.3-.251a2.979,2.979,0,0,0-.366.265,3.108,3.108,0,0,0-.323.316l.2.335.263.449,0,.005-.013.014-.057.064-.013.015-.055.066-.011.013-.024.03-.024.029-.01.013-.053.068-.012.016-.051.069-.011.016,0,.005-.492-.163-.371-.122a3.062,3.062,0,0,0-.241.382,3.024,3.024,0,0,0-.183.413l.308.24.41.318,0,.01-.007.019c-.01.027-.019.053-.028.08l-.007.019c-.009.027-.018.054-.026.081l-.007.019h0l-.007.022-.015.05,0,.009,0,.009-.015.05-.006.021v0l-.005.018c-.008.028-.015.056-.022.083l0,.019c-.007.028-.013.055-.019.083l-.005.02,0,.01-.518.045-.388.033a3.261,3.261,0,0,0-.071.446,3.11,3.11,0,0,0,0,.452l.377.1.5.131v.026l.006.085v.02l.007.085,0,.018,0,.037,0,.038,0,.017c0,.028.007.057.011.085l0,.019c0,.029.009.057.013.085l0,.02v.006l-.463.233-.349.175a3.12,3.12,0,0,0,.1.441,3.03,3.03,0,0,0,.163.421l.387-.048.515-.065,0,.01.009.019.036.076.009.018c.013.026.025.051.038.076l.01.018h0l.011.021.024.046,0,.008,0,.008.012.02.014.026.011.019v0l.009.017.044.074.01.017c.014.024.029.048.044.072l.011.017.006.009-.335.4-.25.3a2.907,2.907,0,0,0,.265.366,3.011,3.011,0,0,0,.316.324l.335-.2.449-.262,0,0,.015.014.064.056.015.013.066.056.013.011.03.024.029.023.013.011.069.053.015.011c.023.018.046.035.069.051l.016.012.005,0-.163.493-.122.37a2.962,2.962,0,0,0,.382.241,3.029,3.029,0,0,0,.413.183l.239-.308.318-.409.011,0,.019.008.079.028.02.006.081.027.019.006h0l.022.007.05.015.008,0,.01,0,.05.014.022.006h0l.019,0c.028.007.055.015.083.021l.019.005.083.02.019,0,.012,0,.044.518.033.387a3.136,3.136,0,0,0,.9.077l.1-.377.131-.5h.027l.084,0,.021,0,.084-.007.018,0,.037,0,.038,0,.017,0,.085-.01.02,0,.084-.013.02,0h.006l.233.463.176.349a3.006,3.006,0,0,0,.44-.1,2.962,2.962,0,0,0,.422-.163l-.049-.387-.065-.514.01-.005.019-.009.076-.036.019-.009.075-.038.019-.01h0l.021-.011.045-.024.009,0,.008,0,.046-.025.019-.011h0l.017-.01.074-.043.017-.01.072-.045.017-.011.01-.006.4.335.3.25a2.968,2.968,0,0,0,.365-.265,2.923,2.923,0,0,0,.324-.315l-.2-.336-.262-.449,0,0,.014-.015c.019-.021.038-.042.056-.064l.014-.015c.018-.022.037-.043.054-.065l.012-.014.024-.029.023-.03.011-.013c.018-.022.035-.045.052-.068l.013-.016c.017-.022.034-.045.05-.068l.012-.017,0,0,.493.162.37.123a3.043,3.043,0,0,0,.241-.383,2.91,2.91,0,0,0,.183-.413l-.308-.239Zm-2.114-.441a2.5,2.5,0,1,1-.018-2.389A2.5,2.5,0,0,1,2950.54,74.082Z" fill="#cbcad9"/>
      <g id="Grupo_558" data-name="Grupo 558">
        <circle id="Elipse_85" data-name="Elipse 85" cx="2.881" cy="2.881" r="2.881" transform="translate(2748.82 110.341)" fill="#fff"/>
        <circle id="Elipse_86" data-name="Elipse 86" cx="2.881" cy="2.881" r="2.881" transform="matrix(0.998, -0.055, 0.055, 0.998, 2763.64, 103.852)" fill="#fff"/>
        <circle id="Elipse_87" data-name="Elipse 87" cx="2.881" cy="2.881" r="2.881" transform="translate(2743.874 89.579)" fill="#fff"/>
        <circle id="Elipse_88" data-name="Elipse 88" cx="2.881" cy="2.881" r="2.881" transform="translate(2735.889 95.886)" fill="#fff"/>
        <circle id="Elipse_89" data-name="Elipse 89" cx="5.622" cy="5.622" r="5.622" transform="translate(2752.531 92.459)" fill="#fff"/>
        <line id="Línea_13" data-name="Línea 13" x1="6.452" y2="15.141" transform="translate(2751.701 98.081)" fill="none" stroke="#fff" stroke-miterlimit="10" stroke-width="9"/>
        <line id="Línea_14" data-name="Línea 14" y1="0.686" x2="19.383" transform="translate(2738.77 98.081)" fill="none" stroke="#fff" stroke-miterlimit="10" stroke-width="9"/>
        <line id="Línea_15" data-name="Línea 15" x2="8.523" y2="8.488" transform="translate(2758.152 98.081)" fill="none" stroke="#fff" stroke-miterlimit="10" stroke-width="9"/>
        <line id="Línea_16" data-name="Línea 16" x1="10.94" y1="5.622" transform="translate(2747.213 92.46)" fill="none" stroke="#fff" stroke-miterlimit="10" stroke-width="9"/>
      </g>
      <g id="Grupo_560" data-name="Grupo 560">
        <path id="Trazado_1149" data-name="Trazado 1149" d="M2845.712,119.127a17.2,17.2,0,0,1,2.388-9.531" fill="none" stroke="#454863" stroke-linecap="round" stroke-linejoin="round" stroke-width="7.294"/>
        <path id="Trazado_1150" data-name="Trazado 1150" d="M2844.061,136.966v2.24l.827-.827.883.883.831-.831.76.76v-2.225Z" fill="#454863"/>
        <path id="Trazado_1151" data-name="Trazado 1151" d="M2859.627,126.484c0,6.016-5.55,11.929-10.484,11.929a5.636,5.636,0,0,0-6.863,0c-4.406,0-9.3-4.714-10.3-10.009a10.407,10.407,0,0,1-.183-1.92c0-6.016,4-10.894,8.933-10.894a7.635,7.635,0,0,0,9.965,0,7.653,7.653,0,0,1,4.222,1.292A11.41,11.41,0,0,1,2859.627,126.484Z" fill="#f56d69"/>
        <path id="Trazado_1152" data-name="Trazado 1152" d="M2854.929,117.455a14.087,14.087,0,0,1-22.95,10.949,10.407,10.407,0,0,1-.183-1.92c0-6.016,4-10.894,8.933-10.894a7.635,7.635,0,0,0,9.965,0,7.653,7.653,0,0,1,4.222,1.292C2854.927,117.073,2854.929,117.264,2854.929,117.455Z" fill="#fe7d7a"/>
        <g id="Grupo_559" data-name="Grupo 559">
          <path id="Trazado_1153" data-name="Trazado 1153" d="M2839.578,110.395c2.646,2.646,7.426,2.157,7.426,2.157l-9.583-9.583S2836.931,107.748,2839.578,110.395Z" fill="#8683a6"/>
          <path id="Trazado_1154" data-name="Trazado 1154" d="M2837.421,102.969l9.583,9.583s.489-4.78-2.157-7.426S2837.421,102.969,2837.421,102.969Z" fill="#9a97bf"/>
        </g>
      </g>
      <g id="Grupo_562" data-name="Grupo 562">
        <g id="Grupo_561" data-name="Grupo 561">
          <path id="Trazado_1155" data-name="Trazado 1155" d="M2897.892,123.469,2881.3,140.4l3.768,3.693,16.6-16.936,1-3.623-1.166-1.142Z" fill="#fff"/>
          <path id="Trazado_1156" data-name="Trazado 1156" d="M2901.494,122.4l1.166,1.142.448-1.622Z" fill="#292b3b"/>
        </g>
        <rect id="Rectángulo_728" data-name="Rectángulo 728" width="32.076" height="5.276" transform="translate(2875.441 146.378) rotate(-45.58)" fill="#fe9a98"/>
        <rect id="Rectángulo_729" data-name="Rectángulo 729" width="32.076" height="1.895" transform="translate(2876.649 147.561) rotate(-45.58)" fill="#ffb9b8"/>
      </g>
      <path id="Trazado_1157" data-name="Trazado 1157" d="M2820.571,151.8a3.6,3.6,0,0,1-6.587,0,5.545,5.545,0,0,0-5.8,2.345,7.912,7.912,0,0,1,5.434-.659,8.457,8.457,0,0,1,3.124,1.373q.282.2.539.425c.17-.148.35-.29.538-.425a8.461,8.461,0,0,1,3.124-1.373,7.912,7.912,0,0,1,5.434.659A5.545,5.545,0,0,0,2820.571,151.8Z" fill="#fff"/>
      <path id="Trazado_1158" data-name="Trazado 1158" d="M2832.393,144.036a5.518,5.518,0,0,0-3.9.537,5.543,5.543,0,0,0-8.307-3.712,7.911,7.911,0,0,1,5.194,1.727,8.448,8.448,0,0,1,2.238,2.577c.112.2.214.407.3.614.218-.061.442-.113.669-.154a8.453,8.453,0,0,1,3.411.094,7.9,7.9,0,0,1,4.631,2.917A5.546,5.546,0,0,0,2832.393,144.036Z" fill="#fff"/>
      <g id="Grupo_563" data-name="Grupo 563">
        <path id="Trazado_1159" data-name="Trazado 1159" d="M2878.556,102.581l-7.546,13.07H2886.1Z" fill="#fee5e5"/>
        <path id="Trazado_1160" data-name="Trazado 1160" d="M2878.556,102.581l-2.518,13.07h5.036Z" fill="#fff"/>
        <path id="Trazado_1161" data-name="Trazado 1161" d="M2886.353,119.924h-15.594l-3.022-5.316h21.639Z" fill="#fff"/>
        <path id="Trazado_1162" data-name="Trazado 1162" d="M2887.193,102.581h-8.637V98.908h8.637l-1.7,1.836Z" fill="#5e6175"/>
      </g>
      <g id="Grupo_565" data-name="Grupo 565">
        <g id="Grupo_564" data-name="Grupo 564">
          <path id="Trazado_1163" data-name="Trazado 1163" d="M2900.477,85.842s-.381-10.076,4.987-13.73S2900.285,82.7,2900.477,85.842Z" fill="#4a4e66"/>
          <path id="Trazado_1164" data-name="Trazado 1164" d="M2898.847,85.842s.381-10.076-4.987-13.73S2899.039,82.7,2898.847,85.842Z" fill="#4a4e66"/>
        </g>
        <path id="Trazado_1165" data-name="Trazado 1165" d="M2899.662,86.25s-2.144-15.134,0-15.14S2899.662,86.25,2899.662,86.25Z" fill="#4a4e66"/>
      </g>
      <path id="Trazado_1166" data-name="Trazado 1166" d="M2910.275,92.121c0-4.357-4.78-7.889-10.677-7.889s-10.677,3.532-10.677,7.889c0,3.741,3.526,6.872,8.256,7.683a1.99,1.99,0,0,1,1.615,1.757,3.937,3.937,0,0,0,.921,2.111c1.788,2.107-.3,5.064-.322,5.093a.431.431,0,1,0,.7.506c.1-.143,2.509-3.532.281-6.157l-.044-.053a1.986,1.986,0,0,1,1.312-3.2C2906.56,99.16,2910.275,95.962,2910.275,92.121Z" fill="#fec0bf"/>
      <g id="Grupo_566" data-name="Grupo 566">
        <path id="Trazado_1167" data-name="Trazado 1167" d="M2862.838,139.065v11.267s3.108-2.522,3.108-5.633S2862.838,139.065,2862.838,139.065Z" fill="#757391"/>
        <path id="Trazado_1168" data-name="Trazado 1168" d="M2859.729,144.7c0,3.111,3.109,5.633,3.109,5.633V139.065S2859.729,141.588,2859.729,144.7Z" fill="#8683a6"/>
      </g>
      <g id="Grupo_567" data-name="Grupo 567">
        <path id="Trazado_1169" data-name="Trazado 1169" d="M2877.971,135.319l-9.416,6.188s3.815,1.212,6.415-.5S2877.971,135.319,2877.971,135.319Z" fill="#757391"/>
        <path id="Trazado_1170" data-name="Trazado 1170" d="M2871.556,135.815c-2.6,1.709-3,5.692-3,5.692l9.416-6.188S2874.156,134.107,2871.556,135.815Z" fill="#8683a6"/>
      </g>
      <g id="Grupo_568" data-name="Grupo 568">
        <path id="Trazado_1171" data-name="Trazado 1171" d="M2965.084,61.742l-9.415,6.187s3.815,1.213,6.415-.5S2965.084,61.742,2965.084,61.742Z" fill="#757391"/>
        <path id="Trazado_1172" data-name="Trazado 1172" d="M2958.669,62.238c-2.6,1.708-3,5.691-3,5.691l9.415-6.187S2961.27,60.529,2958.669,62.238Z" fill="#8683a6"/>
      </g>
      <g id="Grupo_569" data-name="Grupo 569">
        <path id="Trazado_1173" data-name="Trazado 1173" d="M2868.881,135.678l-2.288-11.031s-2.532,3.1-1.9,6.147S2868.881,135.678,2868.881,135.678Z" fill="#757391"/>
        <path id="Trazado_1174" data-name="Trazado 1174" d="M2870.781,129.531c-.632-3.046-4.188-4.884-4.188-4.884l2.288,11.031S2871.412,132.578,2870.781,129.531Z" fill="#8683a6"/>
      </g>
      <g id="Grupo_570" data-name="Grupo 570">
        <path id="Trazado_1175" data-name="Trazado 1175" d="M2802.6,97.393l-2.288-11.032s-2.532,3.1-1.9,6.147S2802.6,97.393,2802.6,97.393Z" fill="#757391"/>
        <path id="Trazado_1176" data-name="Trazado 1176" d="M2804.5,91.246c-.631-3.047-4.187-4.885-4.187-4.885l2.288,11.032S2805.129,94.292,2804.5,91.246Z" fill="#8683a6"/>
      </g>
      <g id="Grupo_571" data-name="Grupo 571">
        <path id="Trazado_1177" data-name="Trazado 1177" d="M2951.043,64.05l-10.277-4.616s1.027,3.869,3.865,5.143S2951.043,64.05,2951.043,64.05Z" fill="#757391"/>
        <path id="Trazado_1178" data-name="Trazado 1178" d="M2947.178,58.906c-2.838-1.274-6.412.528-6.412.528l10.277,4.616S2950.016,60.181,2947.178,58.906Z" fill="#8683a6"/>
      </g>
      <g id="Grupo_572" data-name="Grupo 572">
        <path id="Trazado_1179" data-name="Trazado 1179" d="M2724.412,100.786l-2.287-11.031s-2.532,3.1-1.9,6.147S2724.412,100.786,2724.412,100.786Z" fill="#757391"/>
        <path id="Trazado_1180" data-name="Trazado 1180" d="M2726.312,94.639c-.632-3.046-4.187-4.884-4.187-4.884l2.287,11.031S2726.944,97.686,2726.312,94.639Z" fill="#8683a6"/>
      </g>
      <g id="Grupo_573" data-name="Grupo 573">
        <path id="Trazado_1181" data-name="Trazado 1181" d="M2701.916,95.938l-2.287-11.032s-2.532,3.1-1.9,6.147S2701.916,95.938,2701.916,95.938Z" fill="#757391"/>
        <path id="Trazado_1182" data-name="Trazado 1182" d="M2703.816,89.791c-.632-3.047-4.187-4.885-4.187-4.885l2.287,11.032S2704.448,92.837,2703.816,89.791Z" fill="#8683a6"/>
      </g>
      <g id="Grupo_574" data-name="Grupo 574">
        <path id="Trazado_1183" data-name="Trazado 1183" d="M2705.419,80.67l11.264.244s-2.455-3.163-5.565-3.23S2705.419,80.67,2705.419,80.67Z" fill="#757391"/>
        <path id="Trazado_1184" data-name="Trazado 1184" d="M2710.984,83.9c3.11.067,5.7-2.986,5.7-2.986l-11.264-.244S2707.873,83.833,2710.984,83.9Z" fill="#8683a6"/>
      </g>
      <g id="Grupo_575" data-name="Grupo 575">
        <rect id="Rectángulo_730" data-name="Rectángulo 730" width="34.317" height="0.673" transform="translate(2708.074 89.622) rotate(-17.75)" fill="#292b3b"/>
        <path id="Trazado_1185" data-name="Trazado 1185" d="M2730.188,91.877l-5.215-16.292,20.708-3.208,3.229,10.086Z" fill="#ffa5a1"/>
        <path id="Trazado_1186" data-name="Trazado 1186" d="M2729.373,89.333l-3.586-11.2,20.4-4.177,2.22,6.936Z" fill="#fec0bf"/>
        <path id="Trazado_1187" data-name="Trazado 1187" d="M2728.618,86.973l-2.076-6.484,20.11-5.076,1.285,4.014Z" fill="#ffa5a1"/>
        <path id="Trazado_1188" data-name="Trazado 1188" d="M2727.87,84.637l-.58-1.811,19.825-5.966.359,1.121Z" fill="#fec0bf"/>
        <path id="Trazado_1189" data-name="Trazado 1189" d="M2709.679,94.639l-3.007-9.393.943-.3a.829.829,0,0,1,1.042.537l2.5,7.815a.827.827,0,0,1-.536,1.041Z" fill="#292b3b"/>
        <rect id="Rectángulo_731" data-name="Rectángulo 731" width="0.969" height="0.526" transform="matrix(0.952, -0.305, 0.305, 0.952, 2710.227, 91.832)" fill="#292b3b"/>
      </g>
      <g id="Grupo_576" data-name="Grupo 576">
        <path id="Trazado_1190" data-name="Trazado 1190" d="M2790.241,88.442c1.913-3.389,1.541-7.48.1-9.326a2.314,2.314,0,0,0-2.545-.929c-2.907.8-2.415,4.973-2.41,5.015l-.095.012,4.295,7.246A4.642,4.642,0,0,1,2790.241,88.442Z" fill="none"/>
        <path id="Trazado_1191" data-name="Trazado 1191" d="M2792.753,93.774l.186-1.024a3.306,3.306,0,0,1-2.17-1.411,2.626,2.626,0,0,1,.378-2.387c2.152-3.812,1.7-8.32.014-10.476a3.31,3.31,0,0,0-3.642-1.292c-2.206.609-2.994,2.678-3.173,4.435l-1.62-2.733-1.061.457a4.8,4.8,0,0,0-5.4-1.923l-.25-.58a1.1,1.1,0,1,0-.939.4l.249.58A4.8,4.8,0,0,0,2773,83.068l-1.062.456.166.583a2.831,2.831,0,0,1,1.827,1.251c.73,1.21.687,2.711.828,4.119s.625,2.97,1.9,3.578c1.168.557,2.591.11,3.82.513,1.117.367,1.886,1.364,2.807,2.1,2.215,1.762,5.365,1.951,8.09,1.185a15.07,15.07,0,0,0,1.65-.582l-1.825-3.079A5.408,5.408,0,0,0,2792.753,93.774Zm-7.462-10.56.095-.012c0-.042-.5-4.219,2.41-5.015a2.314,2.314,0,0,1,2.545.929c1.441,1.846,1.813,5.937-.1,9.326a4.642,4.642,0,0,0-.655,2.018Z" fill="#8c89ad"/>
        <path id="Trazado_1192" data-name="Trazado 1192" d="M2783.289,95.665c-.921-.733-1.69-1.73-2.807-2.1-1.229-.4-2.652.044-3.82-.513-1.277-.608-1.76-2.171-1.9-3.578s-.1-2.909-.828-4.119a2.831,2.831,0,0,0-1.827-1.251l2.321,8.165-9.846-8.427-1.371.589,13.114,14.511,1.467,5.159,15.846-6.812-.607-1.024a15.07,15.07,0,0,1-1.65.582C2788.654,97.616,2785.5,97.427,2783.289,95.665Z" fill="#78759c"/>
      </g>
      <g id="Grupo_577" data-name="Grupo 577">
        <path id="Trazado_1193" data-name="Trazado 1193" d="M2812.715,116.615a1.9,1.9,0,0,0-2.692,2.692l2.889,2.889v-5.384Z" fill="#3b3e54"/>
        <path id="Trazado_1194" data-name="Trazado 1194" d="M2813.109,116.615a1.9,1.9,0,0,1,2.692,2.692l-2.889,2.889v-5.384Z" fill="#292b3b"/>
      </g>
      <g id="Grupo_578" data-name="Grupo 578">
        <path id="Trazado_1195" data-name="Trazado 1195" d="M2872.408,90.783a1.9,1.9,0,0,0-2.692,2.692l2.889,2.889V90.98Z" fill="#3b3e54"/>
        <path id="Trazado_1196" data-name="Trazado 1196" d="M2872.8,90.783a1.9,1.9,0,0,1,2.692,2.692l-2.889,2.889V90.98Z" fill="#292b3b"/>
      </g>
      <g id="Grupo_579" data-name="Grupo 579">
        <path id="Trazado_1197" data-name="Trazado 1197" d="M2866.4,98.411a1.9,1.9,0,1,0-2.692,2.691l2.889,2.889V98.608Z" fill="#3b3e54"/>
        <path id="Trazado_1198" data-name="Trazado 1198" d="M2866.79,98.411a1.9,1.9,0,1,1,2.692,2.691l-2.889,2.889V98.608Z" fill="#292b3b"/>
      </g>
      <g id="Grupo_580" data-name="Grupo 580">
        <path id="Trazado_1199" data-name="Trazado 1199" d="M2843.165,149.833a1.9,1.9,0,0,0-2.691,2.691l2.888,2.889V150.03Z" fill="#3b3e54"/>
        <path id="Trazado_1200" data-name="Trazado 1200" d="M2843.56,149.833a1.9,1.9,0,0,1,2.691,2.691l-2.889,2.889V150.03Z" fill="#292b3b"/>
      </g>
      <g id="Grupo_581" data-name="Grupo 581">
        <path id="Trazado_1201" data-name="Trazado 1201" d="M2662.892,62.522a1.9,1.9,0,0,0-2.692,2.692l2.889,2.888V62.719Z" fill="#3b3e54"/>
        <path id="Trazado_1202" data-name="Trazado 1202" d="M2663.286,62.522a1.9,1.9,0,0,1,2.692,2.692l-2.889,2.888V62.719Z" fill="#292b3b"/>
      </g>
      <g id="Grupo_582" data-name="Grupo 582">
        <path id="Trazado_1203" data-name="Trazado 1203" d="M2923.664,59.722a1.9,1.9,0,0,0-2.692,2.692l2.889,2.889V59.919Z" fill="#3b3e54"/>
        <path id="Trazado_1204" data-name="Trazado 1204" d="M2924.058,59.722a1.9,1.9,0,0,1,2.692,2.692l-2.889,2.889V59.919Z" fill="#292b3b"/>
      </g>
      <g id="Grupo_583" data-name="Grupo 583">
        <path id="Trazado_1205" data-name="Trazado 1205" d="M2804.173,145.331a1.9,1.9,0,1,0-2.691,2.691l2.888,2.889v-5.383Z" fill="#3b3e54"/>
        <path id="Trazado_1206" data-name="Trazado 1206" d="M2804.567,145.331a1.9,1.9,0,1,1,2.692,2.691l-2.889,2.889v-5.383Z" fill="#292b3b"/>
      </g>
      <g id="Grupo_584" data-name="Grupo 584">
        <path id="Trazado_1207" data-name="Trazado 1207" d="M2692.539,80.325a1.9,1.9,0,0,0-2.691,2.692l2.888,2.888V80.522Z" fill="#3b3e54"/>
        <path id="Trazado_1208" data-name="Trazado 1208" d="M2692.933,80.325a1.9,1.9,0,0,1,2.692,2.692l-2.889,2.888V80.522Z" fill="#292b3b"/>
      </g>
      <g id="Grupo_585" data-name="Grupo 585">
        <path id="Trazado_1209" data-name="Trazado 1209" d="M2895.4,141.84a1.9,1.9,0,0,0-2.692,2.692l2.889,2.888v-5.383Z" fill="#3b3e54"/>
        <path id="Trazado_1210" data-name="Trazado 1210" d="M2895.791,141.84a1.9,1.9,0,1,1,2.692,2.692l-2.889,2.888v-5.383Z" fill="#292b3b"/>
      </g>
      <g id="Grupo_586" data-name="Grupo 586">
        <path id="Trazado_1211" data-name="Trazado 1211" d="M2687.37,87.067a1.9,1.9,0,0,0-2.692,2.692l2.889,2.889V87.264Z" fill="#3b3e54"/>
        <path id="Trazado_1212" data-name="Trazado 1212" d="M2687.764,87.067a1.9,1.9,0,0,1,2.692,2.692l-2.889,2.889V87.264Z" fill="#292b3b"/>
      </g>
      <g id="Grupo_595" data-name="Grupo 595">
        <rect id="Rectángulo_732" data-name="Rectángulo 732" width="1.141" height="30.34" transform="translate(2799.658 81.017) rotate(-59.289)" fill="#fec0bf"/>
        <g id="Grupo_594" data-name="Grupo 594">
          <g id="Grupo_593" data-name="Grupo 593">
            <g id="Grupo_589" data-name="Grupo 589">
              <g id="Grupo_587" data-name="Grupo 587">
                <path id="Trazado_1213" data-name="Trazado 1213" d="M2832.309,96.164l2.588,8.7-10.436-6.2" fill="#303345"/>
                <path id="Trazado_1214" data-name="Trazado 1214" d="M2825.135,99.07l-.674-.4,3.147-5.3,4.7,2.793Z" fill="#46495e"/>
              </g>
              <g id="Grupo_588" data-name="Grupo 588">
                <path id="Trazado_1215" data-name="Trazado 1215" d="M2819.76,95.877l-2.588-8.7,10.436,6.2" fill="#303345"/>
                <path id="Trazado_1216" data-name="Trazado 1216" d="M2826.934,92.972l.674.4-3.147,5.3-4.7-2.793Z" fill="#46495e"/>
              </g>
            </g>
            <g id="Grupo_592" data-name="Grupo 592">
              <g id="Grupo_590" data-name="Grupo 590">
                <path id="Trazado_1217" data-name="Trazado 1217" d="M2825.891,102.3l-8.7,2.588,6.2-10.436" fill="#303345"/>
                <path id="Trazado_1218" data-name="Trazado 1218" d="M2822.985,95.121l.4-.674,5.3,3.147-2.792,4.7Z" fill="#46495e"/>
              </g>
              <g id="Grupo_591" data-name="Grupo 591">
                <path id="Trazado_1219" data-name="Trazado 1219" d="M2826.178,89.746l8.7-2.588-6.2,10.436" fill="#303345"/>
                <path id="Trazado_1220" data-name="Trazado 1220" d="M2829.083,96.92l-.4.674-5.3-3.147,2.793-4.7Z" fill="#46495e"/>
              </g>
            </g>
          </g>
          <path id="Trazado_1221" data-name="Trazado 1221" d="M2826.405,95.4a.725.725,0,1,1-.994.253A.726.726,0,0,1,2826.405,95.4Z" fill="#ffa9a6"/>
        </g>
      </g>
      <g id="Grupo_597" data-name="Grupo 597">
        <path id="Trazado_1222" data-name="Trazado 1222" d="M2674.369,82.841l20.029-15.4-22.612,6.778Z" fill="#fff"/>
        <path id="Trazado_1223" data-name="Trazado 1223" d="M2671.785,74.222l22.612-6.778L2669.2,65.6Z" fill="#fff"/>
        <g id="Grupo_596" data-name="Grupo 596">
          <path id="Trazado_1224" data-name="Trazado 1224" d="M2672.5,76.608l21.9-9.164-24.616,7.378Z" fill="#fedada"/>
          <path id="Trazado_1225" data-name="Trazado 1225" d="M2669.864,74.8l24.534-7.354-23.327,4.392Z" fill="#fee5e5"/>
        </g>
      </g>
      <g id="Grupo_598" data-name="Grupo 598">
        <path id="Trazado_1226" data-name="Trazado 1226" d="M2886.423,64.957h-1.468A1.055,1.055,0,0,1,2883.9,63.9V59.66h-2.382V63.9a1.055,1.055,0,0,1-1.055,1.055H2879a3.4,3.4,0,0,0-3.349,4l1.584,8.819h10.957l1.584-8.819A3.4,3.4,0,0,0,2886.423,64.957Z" fill="#8c89ad"/>
        <rect id="Rectángulo_733" data-name="Rectángulo 733" width="2.946" height="1.249" rx="0.452" transform="translate(2881.236 58.913)" fill="#8c89ad"/>
      </g>
      <g id="Grupo_599" data-name="Grupo 599">
        <path id="Trazado_1227" data-name="Trazado 1227" d="M2705.832,68.11h-5.384a1.5,1.5,0,0,0,1.559.906,2.37,2.37,0,0,0,1.615-.566l1.672,1.686a4.317,4.317,0,0,1-3.387,1.246c-2.847,0-4.689-1.714-4.689-4.023a4.079,4.079,0,0,1,4.392-4.009c2.295,0,4.265,1.388,4.265,4.009C2705.875,67.586,2705.846,67.883,2705.832,68.11Zm-5.44-1.544h2.493a1.268,1.268,0,0,0-2.493,0Z" fill="#726f8f"/>
        <path id="Trazado_1228" data-name="Trazado 1228" d="M2706.951,63.236h7.225v2.409h-7.225Zm0,3.684h7.225v2.408h-7.225Z" fill="#726f8f"/>
        <path id="Trazado_1229" data-name="Trazado 1229" d="M2729.01,66.821v4.42h-3.2V67.373c0-.963-.354-1.332-.864-1.332-.567,0-1.006.383-1.006,1.417v3.783h-3.2V67.373c0-.963-.326-1.332-.864-1.332-.567,0-1.006.383-1.006,1.417v3.783h-3.2v-7.75h3.046v.723a3.024,3.024,0,0,1,2.2-.864,2.773,2.773,0,0,1,2.423,1.175,3.283,3.283,0,0,1,2.592-1.175C2727.678,63.35,2729.01,64.384,2729.01,66.821Z" fill="#726f8f"/>
        <path id="Trazado_1230" data-name="Trazado 1230" d="M2730.129,67.359c0-2.352,1.9-4.009,4.576-4.009a3.758,3.758,0,0,1,3.811,2.295l-2.48,1.218a1.451,1.451,0,0,0-1.345-1.02,1.333,1.333,0,0,0-1.318,1.516c0,1.02.595,1.53,1.318,1.53a1.453,1.453,0,0,0,1.345-1.02l2.48,1.218a3.758,3.758,0,0,1-3.811,2.3C2732.027,71.382,2730.129,69.725,2730.129,67.359Z" fill="#726f8f"/>
        <path id="Trazado_1231" data-name="Trazado 1231" d="M2744.225,65.588V67.2h-5.185V65.914l2.252-1.927c.425-.354.51-.581.51-.765,0-.227-.17-.4-.566-.4a1.021,1.021,0,0,0-.95.539l-1.643-.78a2.908,2.908,0,0,1,2.791-1.4c1.559,0,2.607.722,2.607,1.87,0,.567-.213,1.063-1.133,1.87l-.78.666Z" fill="#726f8f"/>
      </g>
      <path id="Trazado_1232" data-name="Trazado 1232" d="M2843.316,77.62c-1.76-2.272-3.6-4.934-3.1-7.765.706-4.018,6.121-5.758,9.784-3.963s5.665,5.854,6.6,9.823a18.053,18.053,0,0,1,.527,3.614c.2,6.914-6.19,13.3-13.1,13.1-2.371-.07-4.985-1.055-5.883-3.249-1.283-3.131,1.538-6.321,4.1-8.529,5.361-4.617,11.639-9.491,18.669-8.69,2.545.29,5.2,1.546,6.214,3.9s-.495,5.694-3.057,5.749a11.556,11.556,0,0,1-3.448-.961c-3.134-.945-6.69.305-9.711-.956a11.4,11.4,0,0,1-3.978-3.264c-2.022-2.317-3.94-4.933-4.349-7.979a7.043,7.043,0,0,1,2.364-6.495c1.913-1.472,5-1.4,6.526.473,1.648,2.016.961,5.147-.643,7.2s-3.921,3.4-5.883,5.112c-3.517,3.07-5.963,7.753-5.19,12.357.609,3.632,3.052,6.647,5.408,9.477.712.855,1.638,1.8,2.736,1.62,1.238-.2,1.779-1.647,2.063-2.868a122.96,122.96,0,0,0,2.309-13.088c.587-4.855,1.38-10.545,5.673-12.885,3.226-1.759,7.318-.819,10.478,1.055,3.666,2.173,6.809,6.369,5.59,10.452-.825,2.76-3.475,4.664-6.26,5.4a25.446,25.446,0,0,1-8.593.273l-13.064-1.07c-3.376-.276-7.318-.908-8.891-3.908-1.392-2.654-.095-6.092,2.205-8.014s5.343-2.66,8.29-3.207a7.132,7.132,0,0,0,3.167-1.11,20.339,20.339,0,0,0,1.78-1.969,10.4,10.4,0,0,1,4.919-2.3,15.315,15.315,0,0,1,5.7-.763,5.209,5.209,0,0,1,4.445,3.2,6.949,6.949,0,0,1,.216,2.424c-.242,6.079-2.2,16.67-7.255,20.823C2854.8,95.471,2846.816,82.137,2843.316,77.62Z" fill="none" stroke="#fff" stroke-miterlimit="10" stroke-width="3"/>
      <g id="Grupo_601" data-name="Grupo 601">
        <g id="Grupo_600" data-name="Grupo 600">
          <path id="Trazado_1233" data-name="Trazado 1233" d="M2813.419,64.2c-.354-1.5.256-2.921,1.362-3.182s2.289.74,2.642,2.236-.145,8.334-.145,8.334S2813.772,65.7,2813.419,64.2Z" fill="#fff"/>
          <path id="Trazado_1234" data-name="Trazado 1234" d="M2817.132,79.924c.353,1.5,1.536,2.5,2.642,2.236s1.716-1.686,1.362-3.182-3.858-7.388-3.858-7.388S2816.779,78.427,2817.132,79.924Z" fill="#fff"/>
          <path id="Trazado_1235" data-name="Trazado 1235" d="M2824.666,67.731c1.5-.353,2.92.257,3.182,1.362s-.74,2.289-2.237,2.642-8.333-.145-8.333-.145S2823.17,68.084,2824.666,67.731Z" fill="#fff"/>
          <path id="Trazado_1236" data-name="Trazado 1236" d="M2808.944,71.444c-1.5.354-2.5,1.536-2.237,2.642s1.686,1.716,3.182,1.362,7.389-3.858,7.389-3.858S2810.44,71.091,2808.944,71.444Z" fill="#fff"/>
          <path id="Trazado_1237" data-name="Trazado 1237" d="M2819.881,63.672c.826-1.3,2.272-1.853,3.23-1.243s1.066,2.156.24,3.453-6.073,5.708-6.073,5.708S2819.055,64.968,2819.881,63.672Z" fill="#fff"/>
          <path id="Trazado_1238" data-name="Trazado 1238" d="M2811.2,77.3c-.826,1.3-.719,2.842.24,3.453s2.4.053,3.23-1.243,2.6-7.918,2.6-7.918S2812.029,76,2811.2,77.3Z" fill="#fff"/>
          <path id="Trazado_1239" data-name="Trazado 1239" d="M2825.2,74.193c1.3.826,1.853,2.272,1.243,3.231s-2.157,1.065-3.453.24-5.708-6.074-5.708-6.074S2823.9,73.368,2825.2,74.193Z" fill="#fff"/>
          <path id="Trazado_1240" data-name="Trazado 1240" d="M2811.569,65.516c-1.3-.826-2.842-.718-3.452.24s-.054,2.405,1.242,3.23,7.919,2.6,7.919,2.6S2812.866,66.342,2811.569,65.516Z" fill="#fff"/>
        </g>
        <path id="Trazado_1241" data-name="Trazado 1241" d="M2815.213,71.8a2.057,2.057,0,1,1,2.475,1.529A2.057,2.057,0,0,1,2815.213,71.8Z" fill="#febbb9"/>
      </g>
    </g>
    <g id="Grupo_606" data-name="Grupo 606">
      <g id="Grupo_604" data-name="Grupo 604">
        <g id="Grupo_603" data-name="Grupo 603">
          <path id="Trazado_1242" data-name="Trazado 1242" d="M2839.322,169.807s7.051,4.922,7.9,21.861,22.914,14.269,22.568,31.411c-.272,13.48-9.445,13.886-13.17,15.523s-6.388-.14-5,11.533-21.412,23.556-35.1,3.817-20.612-28.319-14.017-48.015S2796.425,171.555,2839.322,169.807Z" fill="#1a1c2e"/>
          <path id="Trazado_1243" data-name="Trazado 1243" d="M2809.824,171.95s-8.2,2.591-14.072,18.5-26.131,6.774-30.921,23.238c-3.766,12.945,4.867,16.072,7.934,18.747s6.137,1.775,1.323,12.5,13.4,28.875,32.36,14.126,28.129-20.871,27.717-41.637S2850.241,186.43,2809.824,171.95Z" fill="#1a1c2e"/>
          <path id="Trazado_1244" data-name="Trazado 1244" d="M2837.931,279.021h-46.467c.713-11.646-3.764-16.011-4.856-30.931-.534-7.339,3.093-13.3,11.119-20.9,10.869-10.305,4.094-10.713,13.26-19.055.152-.145.108-.211.249-.2,7.35.134,9.221-5.212,17.106,3.263,5.62,6.044,8.813,10.164,8.872,24.412C2837.252,244.723,2838.15,261.1,2837.931,279.021Z" fill="#ff9f9c"/>
          <path id="Trazado_1245" data-name="Trazado 1245" d="M2828.751,188.791l-14.81-1.741c-.4,2.026-3.882,21.334-3.843,28.637.327,2.255,3.954,3.358,8.1,2.463,3.728-.8,6.583-2.949,6.889-5.013l.018,0C2825.082,208.755,2827.352,195.872,2828.751,188.791Z" fill="#fff"/>
          <path id="Trazado_1246" data-name="Trazado 1246" d="M2810.067,162.906c3.962-2.325,10.114-1.846,13.264,1.752s1.854,9.582-1.425,12.911-12.854,2.885-16-.713S2805.05,165.849,2810.067,162.906Z" fill="#1a1c2e"/>
          <path id="Trazado_1247" data-name="Trazado 1247" d="M2834.74,190.149c-7.459,12.784-21.912,18.56-29.287,14.536s-4.88-16.324,2.578-29.108,17.233-16.027,24.608-12S2842.2,177.365,2834.74,190.149Z" fill="#fff"/>
          <path id="Trazado_1248" data-name="Trazado 1248" d="M2840.928,186.146s3.79-9.077.569-15.966-14.035-14.645-24.7-6.345c0,0-7.078,6.541.993,13.71s10.052,1.2,11.076,8.713,7.438,6.723,7.487,8.329Z" fill="#1a1c2e"/>
          <path id="Trazado_1249" data-name="Trazado 1249" d="M2835.257,196.848c-2.207,2.646-7.526,4.065-9.347,2.632s-.489-3.936,1.718-6.581,5.748-3.959,7.569-2.526S2837.464,194.2,2835.257,196.848Z" fill="#fff"/>
          <path id="Trazado_1250" data-name="Trazado 1250" d="M2826.379,202.079s-.791,12.059-5.153,17.1c-8.347,9.643-11.663,15.493-4.7,20.368s6.349,7.485,8.745,14.97,6.429,11.138,17.089,6.907,4.456-14.218,3.585-25.707,5.5-12.036-2.819-23.078S2826.379,202.079,2826.379,202.079Z" fill="#1a1c2e"/>
        </g>
      </g>
      <path id="Trazado_1251" data-name="Trazado 1251" d="M2828.285,187.573a12.572,12.572,0,0,1-1.075-.939l-.059-.17c-.356-1.03-2.4-3.894-7.516-4.76a3.772,3.772,0,0,0-1.956.128c-.083,0-.166,0-.241,0a1.812,1.812,0,0,1-1.036-.409,1.937,1.937,0,0,0-.578-.454,1.914,1.914,0,0,0-.692-.247,1.823,1.823,0,0,1-.9-.659c-.039-.065-.084-.135-.129-.2a3.77,3.77,0,0,0-.92-1.711c-3.467-3.879-6.982-4.088-8.043-3.842l-.176.041a12.418,12.418,0,0,1-1.367-.41.95.95,0,0,0-1.257.262c-.208.292-.664,1.013-.382,1.412a1.453,1.453,0,0,1,.247,1.295,18.694,18.694,0,0,0-.834,1.857c-2.048,5.2,1.8,7.471,2.183,7.684a2.851,2.851,0,0,0,.423.26,6.4,6.4,0,0,0,8-1.395,8.694,8.694,0,0,0,1.851-2.67c.045-.041.093-.087.143-.135a1.754,1.754,0,0,1,.294-.251,1.482,1.482,0,0,1,.721.241,1.466,1.466,0,0,1,.571.47,1.785,1.785,0,0,1-.056.385c-.014.067-.028.133-.038.193a8.7,8.7,0,0,0-1.275,2.989,6.4,6.4,0,0,0,3.079,7.517,2.922,2.922,0,0,0,.445.219,5.68,5.68,0,0,0,2.1.621c1.534.15,3.66-.272,5.566-2.863a19.265,19.265,0,0,0,1.128-1.695,1.457,1.457,0,0,1,1.227-.481c.484.027.85-.731.989-1.067A.956.956,0,0,0,2828.285,187.573Zm-3.879,3.734c-2.835,3.854-6.008,1.962-6.142,1.879l-.044-.022c-.164-.062-4-1.584-2.845-6.345a5.448,5.448,0,0,1,2.143-3.589,2.663,2.663,0,0,1,1.62-.376,1.739,1.739,0,0,1,.22.034l.043.009c5.355.9,6.592,3.941,6.6,3.966l.024.069C2826.267,187.622,2826.54,188.4,2824.406,191.307Zm-12.08-12.3a2.585,2.585,0,0,1,.682,1.731,5.453,5.453,0,0,1-1.9,3.725c-3.415,3.512-6.746,1.075-6.886.969l-.042-.025c-.141-.07-3.431-1.749-1.679-6.2,1.321-3.352,2.129-3.538,2.841-3.7l.065-.015a3.789,3.789,0,0,1,.954-.006c1.226.12,3.49.753,5.931,3.49Z" fill="#5e6175"/>
      <g id="Grupo_605" data-name="Grupo 605">
        <path id="Rectángulo_734" data-name="Rectángulo 734" d="M15.529,0H50.27a0,0,0,0,1,0,0V63.619a0,0,0,0,1,0,0H0a0,0,0,0,1,0,0V15.529A15.529,15.529,0,0,1,15.529,0Z" transform="translate(2809.276 230.477)" fill="#fff"/>
        <path id="Rectángulo_735" data-name="Rectángulo 735" d="M0,0H50.27a0,0,0,0,1,0,0V63.619a0,0,0,0,1,0,0H15.529A15.529,15.529,0,0,1,0,48.09V0A0,0,0,0,1,0,0Z" transform="translate(2809.276 294.096) rotate(180)" fill="#fff"/>
        <rect id="Rectángulo_736" data-name="Rectángulo 736" width="106.848" height="60.031" rx="3.385" transform="translate(2755.852 235.827)" fill="#5e6175"/>
        <rect id="Rectángulo_737" data-name="Rectángulo 737" width="25.544" height="1.529" transform="translate(2825.207 243.243)" fill="#4c4f63"/>
        <rect id="Rectángulo_738" data-name="Rectángulo 738" width="30.439" height="1.529" transform="translate(2822.76 246.664)" fill="#4c4f63"/>
        <rect id="Rectángulo_739" data-name="Rectángulo 739" width="25.544" height="1.529" transform="translate(2825.207 250.085)" fill="#4c4f63"/>
        <rect id="Rectángulo_740" data-name="Rectángulo 740" width="30.439" height="1.529" transform="translate(2822.76 253.506)" fill="#4c4f63"/>
        <rect id="Rectángulo_741" data-name="Rectángulo 741" width="9.988" height="60.031" transform="translate(2804.282 235.827)" fill="#4a4e66"/>
      </g>
      <path id="Trazado_1252" data-name="Trazado 1252" d="M2756.245,271.508s5.034-24.871.952-30.168-11.539,17.615-6.456,32.7Z" fill="#fff"/>
      <path id="Trazado_1253" data-name="Trazado 1253" d="M2749.575,270.277l8.494-2.8s5.971,18.854,7.453,21.73-12.942,2.383-14.98-.644S2747.96,269.637,2749.575,270.277Z" fill="#ff9f9c"/>
      <path id="Trazado_1254" data-name="Trazado 1254" d="M2862.134,271.508s-5.034-24.871-.952-30.168,11.539,17.615,6.456,32.7Z" fill="#fff"/>
      <path id="Trazado_1255" data-name="Trazado 1255" d="M2868.8,270.277l-8.494-2.8s-5.971,18.854-7.453,21.73,12.942,2.383,14.98-.644S2870.419,269.637,2868.8,270.277Z" fill="#ff9f9c"/>
    </g>
    <g id="Grupo_611" data-name="Grupo 611">
      <g id="Grupo_607" data-name="Grupo 607">
        <path id="Trazado_1256" data-name="Trazado 1256" d="M2656.32,261.8c-36.533,0-44.215,6.207-44.215,9.936v82.852c0-2.882,4.6-7.246,23.559-9.076,5.565-.532,12.366-.855,20.656-.855h62.37V261.8Z" fill="#77222e"/>
        <path id="Trazado_1257" data-name="Trazado 1257" d="M2616.794,278.615a25.67,25.67,0,0,1,8.641-3.226v-5.971a26.847,26.847,0,0,0-8.641,2.944Z" fill="#e1dcb0"/>
        <path id="Trazado_1258" data-name="Trazado 1258" d="M2656.241,267.039c-3.533-.013-6.817.035-9.882.133v5.857c3.065-.1,6.349-.148,9.882-.135l.512,0v-5.855Z" fill="#e1dcb0"/>
        <path id="Trazado_1259" data-name="Trazado 1259" d="M2630.472,274.259c3.075-.417,6.524-.748,10.4-.98v-5.863c-3.871.224-7.32.54-10.4.929Z" fill="#e1dcb0"/>
        <rect id="Rectángulo_742" data-name="Rectángulo 742" width="9.582" height="5.856" transform="translate(2693.972 267.04)" fill="#e1dcb0"/>
        <rect id="Rectángulo_743" data-name="Rectángulo 743" width="9.582" height="5.856" transform="translate(2678.166 267.04)" fill="#e1dcb0"/>
        <rect id="Rectángulo_744" data-name="Rectángulo 744" width="9.582" height="5.856" transform="translate(2662.359 267.04)" fill="#e1dcb0"/>
        <rect id="Rectángulo_745" data-name="Rectángulo 745" width="9.582" height="5.856" transform="translate(2678.166 333.565)" fill="#e1dcb0"/>
        <rect id="Rectángulo_746" data-name="Rectángulo 746" width="9.582" height="5.856" transform="translate(2663.52 333.565)" fill="#e1dcb0"/>
        <path id="Trazado_1260" data-name="Trazado 1260" d="M2690.469,273.3h-.005v82.859l28.226-11.5V261.8Z" fill="#2b040b"/>
        <rect id="Rectángulo_747" data-name="Rectángulo 747" width="58.559" height="82.854" transform="translate(2690.464 273.3)" fill="#ba3a44"/>
        <rect id="Rectángulo_748" data-name="Rectángulo 748" width="9.326" height="5.856" transform="translate(2724.887 278.538)" fill="#e1dcb0"/>
        <rect id="Rectángulo_749" data-name="Rectángulo 749" width="9.326" height="5.856" transform="translate(2710.633 278.538)" fill="#e1dcb0"/>
        <rect id="Rectángulo_750" data-name="Rectángulo 750" width="9.326" height="5.856" transform="translate(2695.604 278.538)" fill="#e1dcb0"/>
        <rect id="Rectángulo_751" data-name="Rectángulo 751" width="9.326" height="5.856" transform="translate(2710.633 345.061)" fill="#e1dcb0"/>
        <rect id="Rectángulo_752" data-name="Rectángulo 752" width="9.326" height="5.856" transform="translate(2695.604 345.061)" fill="#e1dcb0"/>
        <path id="Trazado_1261" data-name="Trazado 1261" d="M2720.8,284.793h-.005v82.859l28.226-11.5V273.3Z" fill="#2b040b"/>
        <path id="Trazado_1262" data-name="Trazado 1262" d="M2636.688,279.788c-15.193,0-24.583-3.531-24.583-8.051v82.852c0,4.636,9.162,8.438,24.583,8.438,16.218,0,27.315-3.972,28.476-6.533V273.642c-1.161,1.2-6.283,6.146-28.476,6.146Z" fill="#dd474d"/>
        <path id="Trazado_1263" data-name="Trazado 1263" d="M2626.42,350.127v6a68.531,68.531,0,0,0,9.307.7v-6a68.542,68.542,0,0,1-9.307-.694Z" fill="#e1dcb0"/>
        <path id="Trazado_1264" data-name="Trazado 1264" d="M2615.266,346.362v6a19.546,19.546,0,0,0,6.335,2.774v-6a19.546,19.546,0,0,1-6.335-2.774Z" fill="#e1dcb0"/>
        <path id="Trazado_1265" data-name="Trazado 1265" d="M2640.88,350.735v6a79.028,79.028,0,0,0,9.1-.92v-6a79.253,79.253,0,0,1-9.1.92Z" fill="#e1dcb0"/>
        <path id="Trazado_1266" data-name="Trazado 1266" d="M2654.341,354.942c2.761-.669,4.967-1.453,7.662-2.247v-6c-2.695.793-4.9,1.577-7.662,2.246Z" fill="#e1dcb0"/>
        <path id="Trazado_1267" data-name="Trazado 1267" d="M2662,287.879v-6c-2.694.794-4.9,1.577-7.662,2.247v6c2.761-.669,4.968-1.453,7.662-2.246Z" fill="#e1dcb0"/>
        <path id="Trazado_1268" data-name="Trazado 1268" d="M2621.6,284.32a19.55,19.55,0,0,1-6.334-2.774v6a19.571,19.571,0,0,0,6.334,2.775Z" fill="#e1dcb0"/>
        <path id="Trazado_1269" data-name="Trazado 1269" d="M2635.727,292.009V286a68.387,68.387,0,0,1-9.307-.694v6.005a68.537,68.537,0,0,0,9.307.694Z" fill="#e1dcb0"/>
        <path id="Trazado_1270" data-name="Trazado 1270" d="M2649.976,291v-6a79.029,79.029,0,0,1-9.1.92v6a79.261,79.261,0,0,0,9.1-.92Z" fill="#e1dcb0"/>
      </g>
      <g id="Grupo_610" data-name="Grupo 610">
        <path id="Trazado_1271" data-name="Trazado 1271" d="M2964.063,261.8c36.533,0,44.215,6.207,44.215,9.936v82.852c0-2.882-4.6-7.246-23.559-9.076-5.565-.532-12.367-.855-20.656-.855h-62.37V261.8Z" fill="#77222e"/>
        <path id="Trazado_1272" data-name="Trazado 1272" d="M3003.589,278.615a25.678,25.678,0,0,0-8.641-3.226v-5.971a26.855,26.855,0,0,1,8.641,2.944Z" fill="#e1dcb0"/>
        <path id="Trazado_1273" data-name="Trazado 1273" d="M2964.142,267.039c3.533-.013,6.818.035,9.882.133v5.857c-3.064-.1-6.349-.148-9.882-.135l-.512,0v-5.855Z" fill="#e1dcb0"/>
        <path id="Trazado_1274" data-name="Trazado 1274" d="M2989.911,274.259c-3.075-.417-6.524-.748-10.395-.98v-5.863c3.871.224,7.32.54,10.395.929Z" fill="#e1dcb0"/>
        <rect id="Rectángulo_753" data-name="Rectángulo 753" width="9.582" height="5.856" transform="translate(2916.829 267.04)" fill="#e1dcb0"/>
        <rect id="Rectángulo_754" data-name="Rectángulo 754" width="9.582" height="5.856" transform="translate(2932.635 267.04)" fill="#e1dcb0"/>
        <rect id="Rectángulo_755" data-name="Rectángulo 755" width="9.582" height="5.856" transform="translate(2948.442 267.04)" fill="#e1dcb0"/>
        <rect id="Rectángulo_756" data-name="Rectángulo 756" width="9.582" height="5.856" transform="translate(2932.635 333.565)" fill="#e1dcb0"/>
        <rect id="Rectángulo_757" data-name="Rectángulo 757" width="9.582" height="5.856" transform="translate(2947.281 333.565)" fill="#e1dcb0"/>
        <path id="Trazado_1275" data-name="Trazado 1275" d="M2929.914,273.3h.005v82.859l-28.226-11.5V261.8Z" fill="#2b040b"/>
        <rect id="Rectángulo_758" data-name="Rectángulo 758" width="58.558" height="82.854" transform="translate(2871.361 273.3)" fill="#ba3a44"/>
        <rect id="Rectángulo_759" data-name="Rectángulo 759" width="9.326" height="5.856" transform="translate(2886.17 278.538)" fill="#e1dcb0"/>
        <rect id="Rectángulo_760" data-name="Rectángulo 760" width="9.326" height="5.856" transform="translate(2900.424 278.538)" fill="#e1dcb0"/>
        <rect id="Rectángulo_761" data-name="Rectángulo 761" width="9.326" height="5.856" transform="translate(2915.452 278.538)" fill="#e1dcb0"/>
        <rect id="Rectángulo_762" data-name="Rectángulo 762" width="9.326" height="5.856" transform="translate(2900.424 345.061)" fill="#e1dcb0"/>
        <rect id="Rectángulo_763" data-name="Rectángulo 763" width="9.326" height="5.856" transform="translate(2915.452 345.061)" fill="#e1dcb0"/>
        <path id="Trazado_1276" data-name="Trazado 1276" d="M2899.582,284.793h.005v82.859l-28.226-11.5V273.3Z" fill="#2b040b"/>
        <path id="Trazado_1277" data-name="Trazado 1277" d="M2983.7,279.788c15.193,0,24.583-3.531,24.583-8.051v82.852c0,4.636-9.162,8.438-24.583,8.438-16.218,0-27.315-3.972-28.477-6.533V273.642c1.162,1.2,6.284,6.146,28.477,6.146Z" fill="#dd474d"/>
        <path id="Trazado_1278" data-name="Trazado 1278" d="M2993.963,350.127v6a68.53,68.53,0,0,1-9.307.7v-6a68.541,68.541,0,0,0,9.307-.694Z" fill="#e1dcb0"/>
        <path id="Trazado_1279" data-name="Trazado 1279" d="M3005.117,346.362v6a19.549,19.549,0,0,1-6.335,2.774v-6a19.548,19.548,0,0,0,6.335-2.774Z" fill="#e1dcb0"/>
        <path id="Trazado_1280" data-name="Trazado 1280" d="M2979.5,350.735v6a79.047,79.047,0,0,1-9.1-.92v-6a79.272,79.272,0,0,0,9.1.92Z" fill="#e1dcb0"/>
        <path id="Trazado_1281" data-name="Trazado 1281" d="M2966.042,354.942c-2.761-.669-4.967-1.453-7.662-2.247v-6c2.7.793,4.9,1.577,7.662,2.246Z" fill="#e1dcb0"/>
        <path id="Trazado_1282" data-name="Trazado 1282" d="M2958.38,287.879v-6c2.694.794,4.9,1.577,7.662,2.247v6c-2.761-.669-4.968-1.453-7.662-2.246Z" fill="#e1dcb0"/>
        <path id="Trazado_1283" data-name="Trazado 1283" d="M2998.782,284.32a19.549,19.549,0,0,0,6.335-2.774v6a19.558,19.558,0,0,1-6.335,2.775Z" fill="#e1dcb0"/>
        <path id="Trazado_1284" data-name="Trazado 1284" d="M2984.656,292.009V286a68.347,68.347,0,0,0,9.306-.694v6.005a68.509,68.509,0,0,1-9.306.694Z" fill="#e1dcb0"/>
        <path id="Trazado_1285" data-name="Trazado 1285" d="M2970.407,291v-6a79.047,79.047,0,0,0,9.1.92v6a79.279,79.279,0,0,1-9.1-.92Z" fill="#e1dcb0"/>
        <path id="Trazado_1286" data-name="Trazado 1286" d="M2810.191,284.8H2720.8v82.854h178.789V284.8Z" fill="#dd474d"/>
        <g id="Grupo_608" data-name="Grupo 608">
          <rect id="Rectángulo_764" data-name="Rectángulo 764" width="9.326" height="5.856" transform="translate(2798.121 356.556)" fill="#e1dcb0"/>
          <rect id="Rectángulo_765" data-name="Rectángulo 765" width="9.326" height="5.856" transform="translate(2783.866 356.556)" fill="#e1dcb0"/>
          <rect id="Rectángulo_766" data-name="Rectángulo 766" width="9.326" height="5.856" transform="translate(2769.612 356.556)" fill="#e1dcb0"/>
          <rect id="Rectángulo_767" data-name="Rectángulo 767" width="9.326" height="5.856" transform="translate(2755.358 356.556)" fill="#e1dcb0"/>
          <rect id="Rectángulo_768" data-name="Rectángulo 768" width="9.326" height="5.856" transform="translate(2741.104 356.556)" fill="#e1dcb0"/>
          <rect id="Rectángulo_769" data-name="Rectángulo 769" width="9.326" height="5.856" transform="translate(2726.85 356.556)" fill="#e1dcb0"/>
          <rect id="Rectángulo_770" data-name="Rectángulo 770" width="9.326" height="5.856" transform="translate(2798.121 290.033)" fill="#e1dcb0"/>
          <rect id="Rectángulo_771" data-name="Rectángulo 771" width="9.326" height="5.856" transform="translate(2783.866 290.033)" fill="#e1dcb0"/>
          <rect id="Rectángulo_772" data-name="Rectángulo 772" width="9.326" height="5.856" transform="translate(2769.612 290.033)" fill="#e1dcb0"/>
          <rect id="Rectángulo_773" data-name="Rectángulo 773" width="9.326" height="5.856" transform="translate(2755.358 290.033)" fill="#e1dcb0"/>
          <rect id="Rectángulo_774" data-name="Rectángulo 774" width="9.326" height="5.856" transform="translate(2741.104 290.033)" fill="#e1dcb0"/>
          <rect id="Rectángulo_775" data-name="Rectángulo 775" width="9.326" height="5.856" transform="translate(2726.85 290.033)" fill="#e1dcb0"/>
        </g>
        <g id="Grupo_609" data-name="Grupo 609">
          <rect id="Rectángulo_776" data-name="Rectángulo 776" width="9.326" height="5.856" transform="translate(2812.937 356.556)" fill="#e1dcb0"/>
          <rect id="Rectángulo_777" data-name="Rectángulo 777" width="9.326" height="5.856" transform="translate(2827.191 356.556)" fill="#e1dcb0"/>
          <rect id="Rectángulo_778" data-name="Rectángulo 778" width="9.326" height="5.856" transform="translate(2841.445 356.556)" fill="#e1dcb0"/>
          <rect id="Rectángulo_779" data-name="Rectángulo 779" width="9.326" height="5.856" transform="translate(2855.699 356.556)" fill="#e1dcb0"/>
          <rect id="Rectángulo_780" data-name="Rectángulo 780" width="9.326" height="5.856" transform="translate(2869.953 356.556)" fill="#e1dcb0"/>
          <rect id="Rectángulo_781" data-name="Rectángulo 781" width="9.326" height="5.856" transform="translate(2884.207 356.556)" fill="#e1dcb0"/>
          <rect id="Rectángulo_782" data-name="Rectángulo 782" width="9.326" height="5.856" transform="translate(2812.937 290.033)" fill="#e1dcb0"/>
          <rect id="Rectángulo_783" data-name="Rectángulo 783" width="9.326" height="5.856" transform="translate(2827.191 290.033)" fill="#e1dcb0"/>
          <rect id="Rectángulo_784" data-name="Rectángulo 784" width="9.326" height="5.856" transform="translate(2841.445 290.033)" fill="#e1dcb0"/>
          <rect id="Rectángulo_785" data-name="Rectángulo 785" width="9.326" height="5.856" transform="translate(2855.699 290.033)" fill="#e1dcb0"/>
          <rect id="Rectángulo_786" data-name="Rectángulo 786" width="9.326" height="5.856" transform="translate(2869.953 290.033)" fill="#e1dcb0"/>
          <rect id="Rectángulo_787" data-name="Rectángulo 787" width="9.326" height="5.856" transform="translate(2884.207 290.033)" fill="#e1dcb0"/>
        </g>
      </g>
    </g>
  </g>
</svg>
